/* XPM */
static char *result[] = {
/* columns rows colors chars-per-pixel */
"68 66 164 2 ",
"   c #4B505C",
".  c #50575C",
"X  c #535A5F",
"o  c #5B595D",
"O  c #655B5E",
"+  c #6F5C5F",
"@  c #735B5D",
"#  c #7E5A5D",
"$  c #4F5763",
"%  c #4E5C65",
"&  c #4D5D6B",
"*  c #515762",
"=  c #545B65",
"-  c #5A5C65",
";  c #53576A",
":  c #545C69",
">  c #595C69",
",  c #645C65",
"<  c #6B5B64",
"1  c #695E6A",
"2  c #735A62",
"3  c #7C5B62",
"4  c #57606E",
"5  c #5C616C",
"6  c #556271",
"7  c #5F6470",
"8  c #606067",
"9  c #61656F",
"0  c #666A6F",
"q  c #626670",
"w  c #656973",
"e  c #696C76",
"r  c #696E79",
"t  c #6D717A",
"y  c #72747D",
"u  c #78787F",
"i  c #CD4A3E",
"p  c #DF4536",
"a  c #DC4936",
"s  c #D74738",
"d  c #DC4739",
"f  c #D0493A",
"g  c #D9483A",
"h  c #E4442E",
"j  c #EA422D",
"k  c #E64432",
"l  c #EC4431",
"z  c #EF4A35",
"x  c #E24739",
"c  c #E24A3A",
"v  c #F04631",
"b  c #F14A35",
"n  c #F54D38",
"m  c #F7513C",
"M  c #F8513D",
"N  c #8C5854",
"B  c #83555C",
"V  c #855B5C",
"C  c #8C595D",
"Z  c #965454",
"A  c #9A5757",
"S  c #975B55",
"D  c #9A5659",
"F  c #945B5D",
"G  c #9B5C5E",
"H  c #A84E4F",
"J  c #BE4E44",
"K  c #A7514D",
"L  c #B1544E",
"P  c #BA514C",
"I  c #A55352",
"U  c #AB5B5C",
"Y  c #BD5151",
"T  c #B05C55",
"R  c #BE5B56",
"E  c #BB5D5A",
"W  c #89605D",
"Q  c #825B62",
"!  c #885D61",
"~  c #C64F44",
"^  c #C94C44",
"/  c #CB5049",
"(  c #C05A56",
")  c #CB5B54",
"_  c #C75C5C",
"`  c #CB5E5B",
"'  c #D35D54",
"]  c #DB5F52",
"[  c #D65E5D",
"{  c #EA5D4E",
"}  c #F65442",
"|  c #F95541",
" . c #FD5C46",
".. c #F45E4E",
"X. c #FF5F49",
"o. c #E45E52",
"O. c #EA5D54",
"+. c #F25E53",
"@. c #FA5F51",
"#. c #C16058",
"$. c #D1605A",
"%. c #E7604F",
"&. c #E8604E",
"*. c #FB604B",
"=. c #EA6057",
"-. c #E36158",
";. c #ED605A",
":. c #F56050",
">. c #767982",
",. c #7A7D86",
"<. c #7E8087",
"1. c #7E818A",
"2. c #84858C",
"3. c #858790",
"4. c #868A92",
"5. c #8A8C93",
"6. c #888C98",
"7. c #8D9095",
"8. c #8E919A",
"9. c #93959C",
"0. c #989A9F",
"q. c #969BA2",
"w. c #9B9CA3",
"e. c #9EA2AA",
"r. c #A4A6AC",
"t. c #A8A7A9",
"y. c #A7A8AB",
"u. c #AEAFB4",
"i. c #AEB0B5",
"p. c #B1B1B5",
"a. c #B5B4BB",
"s. c #B6BABF",
"d. c #B9B9BE",
"f. c #B4B9C1",
"g. c #BBBDC3",
"h. c #BEC0C3",
"j. c #C0C1C5",
"k. c #C4C5CA",
"l. c #C9C7CC",
"z. c #C6C8CF",
"x. c #CCCDCF",
"c. c #C7CAD2",
"v. c #CECED1",
"b. c #D3D3D5",
"n. c #D4D5DB",
"m. c #DAD7DD",
"M. c #DADADC",
"N. c #DDDDE1",
"B. c #E0DFE2",
"V. c #DEE0E5",
"C. c #E4E3E4",
"Z. c #E3E4E9",
"A. c #E8E7E8",
"S. c #E7E9EF",
"D. c #ECECED",
"F. c #EFEFF1",
"G. c #F0EFF0",
"H. c #EFF0F2",
"J. c #F4F4F5",
"K. c #F6F6F8",
"L. c #F8F7F8",
"P. c #F7F8F8",
"I. c #FEFEFE",
"U. c None",
/* pixels */
"U.U.U.U.U.U.U.U.U.U.U.U.U.U.U.U.U.U.U.U.U.U.U.U.U.U.U.U.U.U.U.U.U.U.U.U.U.U.U.U.U.U.U.U.U.U.U.U.U.U.U.U.U.U.U.U.U.U.U.U.U.U.U.U.U.U.U.U.",
"U.U.U.U.U.U.U.U.U.U.U.U.U.U.U.U.U.U.U.U.U.U.U.U.U.U.U.U.U.U.U.U.U.U.U.U.U.U.U.U.U.U.U.U.U.U.U.U.U.U.U.U.U.U.U.U.U.U.U.U.U.U.U.U.U.U.U.U.",
"U.U.U.U.U.U.U.U.U.U.U.U.U.U.U.U.U.U.U.U.U.U.U.U.U.U.U.U.U.U.U.U.: ; : U.= > U.  U.U.U.U.U.U.U.U.U.U.U.U.U.U.U.U.U.U.U.U.U.U.U.U.U.U.U.U.",
"U.U.U.U.U.U.U.U.U.U.U.U.U.U.U.U.U.U.U.U.U.U.U.U.U.U.U.= : : : : : : : : = : : = - = 6 U.U.U.U.U.U.U.U.U.U.U.U.U.U.U.U.U.U.U.U.U.U.U.U.U.",
"U.U.U.U.U.U.U.U.U.U.U.U.U.U.U.U.U.U.U.U.U.U.U.X - = : : : : = : > = = > = : : = : = : = : 6 U.U.U.U.U.U.U.U.U.U.U.U.U.U.U.U.U.U.U.U.U.U.",
"U.U.U.U.U.U.U.U.U.U.U.U.U.U.U.U.U.U.U.U.. = = = : = : - Q U _ ` ] $.{ &.$.R U S 2 - = 4 : : : : 4 U.U.U.U.U.U.U.U.U.U.U.U.U.U.U.U.U.U.U.",
"U.U.U.U.U.U.U.U.U.U.U.U.U.U.U.U.U.U.U.X = : : : - F F O.+.*.X.X.*.*. .*.*.*.*.*.+.' C O > : : = : : 4 U.U.U.U.U.U.U.U.U.U.U.U.U.U.U.U.U.",
"U.U.U.U.U.U.U.U.U.U.U.U.U.U.U.U.U.U.= : : : Q ) *.*.X.X.*.X.X.X.X.X.X.*.*.*.*.*.X.*.X.....E W > : : ; 4 U.U.U.U.U.U.U.U.U.U.U.U.U.U.U.U.",
"U.U.U.U.U.U.U.U.U.U.U.U.U.U.U.U.% : : : , U ..X.X.X.X.X.X.X.X.*.X.X.X.X.X.*.X.X.X.X.X.X.X.X.:.R 2 = > : 4 U.U.U.U.U.U.U.U.U.U.U.U.U.U.U.",
"U.U.U.U.U.U.U.U.U.U.U.U.U.U.U.: : : > C ..*.X.X.X.X.X.X.*.X.X.X. .X.M  .X.X.X.X.*.X.X.X.X.X.X.X.:.G > = : = U.U.U.U.U.U.U.U.U.U.U.U.U.U.",
"U.U.U.U.U.U.U.U.U.U.U.U.U.U.: : : , ' X.X.X.X.*.X.X.*.X.X.m z l j v j j b z M m X.X.X. .X.X.X.X.*.=.G > : : U.U.U.U.U.U.U.U.U.U.U.U.U.U.",
"U.U.U.U.U.U.U.U.U.U.U.U.; : 6 > T +.X.X.X.X.X.X.X.m j j j j j j j j j j j j j j j j m m X.X.X.X.*.*.*.[ 3 : : : U.U.U.U.U.U.U.U.U.U.U.U.",
"U.U.U.U.U.U.U.U.U.U.U.- > : : 3 X.X.X.X.X.*.*. .v j j j j j j j j j j j j j j j j j j j m X.X.X.*.*.*.X.=.< = : X U.U.U.U.U.U.U.U.U.U.U.",
"U.U.U.U.U.U.U.U.U.U.U.: : : 3 *.*. .X.*.X.*.j j j j j j j j j j j j j j j j j j j j j j j j n X.*. .X.*.*.=., : 4 = U.U.U.U.U.U.U.U.U.U.",
"U.U.U.U.U.U.U.U.U.U.= : : ( X.X.X.X.X.*.v j j j j j j j j j j j j j j j j j j j j j j j j j j j m *.X.X.X.X.=.W : = = U.U.U.U.U.U.U.U.U.",
"U.U.U.U.U.U.U.U.U.= : : 2 ..X.X.X.X.X.m j j j j j j j j j j j j j j j j j j j j j j j j j j j j j b X.X.*.*.*.%.> = : > U.U.U.U.U.U.U.U.",
"U.U.U.U.U.U.U.U.U.: = @ O.X.X.X.*.X.v j j j j j j j j j j j j j j j j k j j j j j j j j j j j j j j v *.X.X.X.X.` < : - U.U.U.U.U.U.U.U.",
"U.U.U.U.U.U.U.U.- : : R X.X.X.X. .n j j j j j j j j j j j j j j j j j j j j j j j j j j j j j j j j j b X.*.X.*.@.E : : : U.U.U.U.U.U.U.",
"U.U.U.U.U.U.U.> - = S X.X.*.X.*.j j j j j j j j j j j j j j j j j j j j j j j j j j j j j j j j j j j j n X.X.X.X.X.2 : : U.U.U.U.U.U.U.",
"U.U.U.U.U.U.U.> : + o.X.X.X.X.| j j j j j j j j j j j j j j j j j j j j j j j j j j j j j j j j j j j j j X.X.X.X.X.#.> : = U.U.U.U.U.U.",
"U.U.U.U.U.U.6 : - ) X.X.*.*.*.j j j j j j j j j j j j j j j j j j j j j j j j j j j j j j j j j j j j j j b X.X.*.$.1 : : : U.U.U.U.U.U.",
"U.U.U.U.U.U.: : - { X.X.*.*.M j j j j j j j j j j j j j j j j j j j j j j j j j j j j j j j j j j j j j j j } -.3 > : : : : U.U.U.U.U.U.",
"U.U.U.U.U.8 = > S X.*.*.*.M j j j j j j j j j j j j j j j j j l k k k k j j j j j j j j j j j j j j j j k Z > : : : : : : = : U.U.U.U.U.",
"U.U.U.U.U.> : - ( *.*.*.*.b j j j j j j j j j j j j j j h l c L Z N C Z I / d k k j j j j j j j j j l K < = = : : : : = 5 : : U.U.U.U.U.",
"U.U.U.U.U.= : # { X.X.X.*.j j j j j j j j j j j j j j j a # > = : : : : : : : - / k j j j j j j ^ @ : : : : : : : >.C.I.i.4 = U.U.U.U.U.",
"U.U.U.U.- - : ) X.X.X.X.n j j j j j j j j j j j j j j P < = = : : : : : : : : : > V x j j i Z : : : : : = : e y.I.I.I.I.J.w.: > U.U.U.U.",
"U.U.U.U.> : : o.X.X.X.X.M j j j j j j j j j j j j j p , > : : = : 7 7 > > : : : : : Z a H - : - = : : : : q.M.C.I.I.I.I.I.z.= : U.U.U.U.",
"U.U.U.U.> : : X.X.X.X.X.n j j j j j j j j j j j j g B : : : : f.S.K.I.J.K.A.t : : : : = : : : : : : t c.V.C.C.C.I.I.I.I.I.A.: : = U.U.U.",
"U.U.U.U.> : , *.X.X.*. .j j j j j j j j j j j j j F : = : : w.K.I.I.I.I.I.I.n.,.: : : : : : : - 9 g.V.C.C.C.C.C.J.I.I.I.I.F.> : > U.U.U.",
"U.U.U.U.> : = +.X.X.*.| j j j j j j j j j j j j k , : : = g.I.I.I.I.I.I.I.I.I.J.r : : : : 5 8.N.C.C.C.C.C.C.C.C.D.I.I.I.I.I.5 : > U.U.U.",
"U.U.U.U.: : < X.X.X.X.M j j j j j j j j j j j j g : = : w K.I.I.I.I.I.I.I.I.I.I.<.: : : <.n.Z.C.C.C.C.C.C.C.C.C.C.I.I.I.I.I.w > = U.U.U.",
"U.U.U.U.: : 2 *.X.X.X.M j j j j j j j j j j j j ~ : : : 5.I.I.I.I.I.I.I.I.I.I.I.2.: : : a.C.C.C.C.C.C.C.C.C.C.C.A.L.I.I.I.I.q : > U.U.U.",
"U.U.U.U.= : 3 X.*. .*.n j j j j j j j j j j j j Y : : - 9.I.I.I.I.I.I.I.I.I.I.I.0.: : : j.C.C.C.C.C.C.C.C.C.C.C.C.I.I.I.I.I.e > > U.U.U.",
"U.U.U.U.: > < X.*.*.*.*.v j j j j j j j j j j j L = : : i.I.I.I.I.I.I.I.I.I.I.I.5.= : : k.C.C.C.C.C.C.C.C.C.C.C.C.J.I.I.I.I.>.: : U.U.U.",
"U.U.U.U.% = < X.*. .*.M j j j j j j j j j j j j I : : : 3.I.I.I.I.I.I.I.I.I.I.I.6.: = : l.C.C.C.C.C.C.C.C.C.C.C.C.L.I.I.I.I.w - - U.U.U.",
"U.U.U.U.: : < *.*.*.*.*.j j j j j j j j j j j p B : : = 2.I.I.I.I.I.I.I.I.I.I.J.w : : > M.C.C.C.C.C.C.C.C.C.C.C.C.K.I.I.I.I.q : : U.U.U.",
"U.U.U.U.: : , *.*.*.*.*.b j j j j j j j h J < - : : : : 5 D.I.I.I.I.I.I.I.I.D.6.: : : >.B.C.C.C.C.C.C.C.C.C.C.C.C.I.I.I.I.J.= : : U.U.U.",
"U.U.U.U.% : > :.*.M *.*.b j j j j j h i 2 > : : : : : = = r.J.I.I.I.I.I.I.I.e.4 : : > y.C.C.C.C.C.C.C.C.C.C.C.C.C.I.I.I.I.V.: : : U.U.U.",
"U.U.U.U.U.4 o &.*. .*.*. .j j j f Z - = : : : : : 7 : : : : 4 k.C.N.Z.N.k.4.- : : > 0.B.C.C.C.C.C.C.C.C.C.C.C.C.D.I.I.I.I.H.: = U.U.U.U.",
"U.U.U.U.% = = ) *.*.*. .X.j h K - > = = = : : : q.n.1.% : : = : r 5 e t > > : : : e M.C.C.C.C.C.C.C.C.C.C.C.C.C.L.I.I.I.I.C.: = U.U.U.U.",
"U.U.U.U.U.: : Q  .X.X.*.] @ > : : : = : > t x.C.C.C.B.w.q : : : : : : = = : : 4 9.M.C.C.C.C.C.C.C.C.C.C.C.C.C.C.G.I.I.I.I.d.- : U.U.U.U.",
"U.U.U.U.U.: : Q ' *.&.! > : : : : : = w j.C.C.C.C.C.C.N.a.> - : : : : : : : = y b.C.C.C.C.C.C.C.C.C.C.C.C.C.C.C.I.I.I.I.F.>.: : U.U.U.U.",
"U.U.U.U.U.: : : - 5 > : : : : : 9 0.V.C.C.C.C.C.C.C.C.C.C.B.k.g.5.>.,.>.2.t.n.V.C.C.C.C.C.C.C.C.C.C.C.C.C.C.C.A.I.I.I.I.j.4 > U.U.U.U.U.",
"U.U.U.U.U.U.: : : : : : : > y l.C.C.C.C.C.C.C.C.C.C.C.C.C.C.C.C.C.C.C.C.C.C.C.C.C.C.C.C.C.C.C.C.C.C.C.C.C.C.C.I.I.I.I.I.y 5 = U.U.U.U.U.",
"U.U.U.U.U.U.: : = : = : e n.D.C.C.C.C.C.C.C.C.C.C.C.C.C.C.C.C.C.C.C.C.C.C.C.C.C.C.C.C.C.C.C.C.C.C.C.C.C.C.C.G.I.I.I.I.D.> : - U.U.U.U.U.",
"U.U.U.U.U.U.U.: : > w.L.I.I.I.D.C.C.C.C.C.C.C.C.C.C.C.C.C.C.C.C.C.C.C.C.C.C.C.C.C.C.C.C.C.C.C.C.C.C.C.C.C.C.I.I.I.I.I.a.= = U.U.U.U.U.U.",
"U.U.U.U.U.U.U.: : 9 b.I.I.I.I.L.C.C.C.C.C.C.C.C.C.C.C.C.C.C.C.C.C.C.C.C.C.C.C.C.C.C.C.C.C.C.C.C.C.C.C.C.C.K.I.I.I.I.M.t = = U.U.U.U.U.U.",
"U.U.U.U.U.U.U.> : > r L.I.I.I.I.J.C.C.C.C.C.C.C.C.C.C.C.C.C.C.C.C.C.C.C.C.C.C.C.C.C.C.C.C.C.C.C.C.C.C.C.D.I.I.I.I.I.,.= > U.U.U.U.U.U.U.",
"U.U.U.U.U.U.U.U.: : > k.I.I.I.I.I.A.C.C.C.C.C.C.C.C.C.C.C.C.C.C.C.C.C.C.C.C.C.C.C.C.C.C.C.C.C.C.C.C.C.A.L.I.I.I.I.b.: = = U.U.U.U.U.U.U.",
"U.U.U.U.U.U.U.U.U.: > 5 s.I.I.I.I.I.G.C.C.C.C.C.C.C.C.C.C.C.C.C.C.C.C.C.C.C.C.C.C.C.C.C.C.C.C.C.C.C.D.I.I.I.I.I.c.> * = U.U.U.U.U.U.U.U.",
"U.U.U.U.U.U.U.U.U.= : : w J.I.I.I.I.I.A.C.C.C.C.C.C.C.C.C.C.C.C.C.C.C.C.C.C.C.C.C.C.C.C.C.C.C.C.C.G.I.I.I.I.I.L.>.- X % U.U.U.U.U.U.U.U.",
"U.U.U.U.U.U.U.U.U.U.= : : ,.N.I.I.I.I.I.L.A.C.C.C.C.C.C.C.C.C.C.C.C.C.C.C.C.C.C.C.C.C.C.C.C.C.C.J.I.I.I.I.L.J.0.= = U.U.U.U.U.U.U.U.U.U.",
"U.U.U.U.U.U.U.U.U.U.U.4 : : - v.I.I.I.I.I.I.K.C.C.C.C.C.C.C.C.C.C.C.C.C.C.C.C.C.C.C.C.C.C.C.D.I.I.I.L.I.I.C.4 = = o U.U.U.U.U.U.U.U.U.U.",
"U.U.U.U.U.U.U.U.U.U.U.U.: : : y L.I.I.I.I.I.I.I.D.C.C.C.C.C.C.C.C.C.C.C.C.C.C.C.C.C.C.C.A.P.I.I.I.I.I.I.K.5.= = X U.U.U.U.U.U.U.U.U.U.U.",
"U.U.U.U.U.U.U.U.U.U.U.U.U.> > = y g.I.I.I.I.I.I.I.L.L.C.A.C.C.C.C.C.C.C.C.C.C.C.C.C.G.P.I.I.L.I.L.I.L.x.u * = * U.U.U.U.U.U.U.U.U.U.U.U.",
"U.U.U.U.U.U.U.U.U.U.U.U.U.U.- : : q p.K.I.I.I.I.I.I.I.I.I.D.G.A.A.C.A.C.C.C.A.D.I.I.I.I.L.I.I.I.L.L.M.t * $ $ U.U.U.U.U.U.U.U.U.U.U.U.U.",
"U.U.U.U.U.U.U.U.U.U.U.U.U.U.U.= : : - w J.I.I.I.I.I.I.I.I.I.I.I.I.I.I.I.I.I.I.I.I.I.K.I.L.L.P.P.N.w = * = ; U.U.U.U.U.U.U.U.U.U.U.U.U.U.",
"U.U.U.U.U.U.U.U.U.U.U.U.U.U.U.U.- > : = 3.b.I.I.I.I.I.I.I.I.I.I.I.I.I.I.I.I.I.I.I.I.I.K.L.L.P.h.t = * * * U.U.U.U.U.U.U.U.U.U.U.U.U.U.U.",
"U.U.U.U.U.U.U.U.U.U.U.U.U.U.U.U.U.U.5 : : 5 e w.C.D.L.I.I.I.I.I.I.I.I.I.I.I.L.I.I.K.P.K.D.7.4 * $ $ % U.U.U.U.U.U.U.U.U.U.U.U.U.U.U.U.U.",
"U.U.U.U.U.U.U.U.U.U.U.U.U.U.U.U.U.U.U.> : : : > t e 9.F.L.I.I.I.I.I.I.I.I.L.I.L.J.F.g.e.q : * * $ $ U.U.U.U.U.U.U.U.U.U.U.U.U.U.U.U.U.U.",
"U.U.U.U.U.U.U.U.U.U.U.U.U.U.U.U.U.U.U.U.U.= : : : : = = 4 t 2.6.e.g.k.u.r.q.8.e w * * * = * * U.U.U.U.U.U.U.U.U.U.U.U.U.U.U.U.U.U.U.U.U.",
"U.U.U.U.U.U.U.U.U.U.U.U.U.U.U.U.U.U.U.U.U.U.U.% : : 4 : : = : : - : : % = % : $ * * : * * * U.U.U.U.U.U.U.U.U.U.U.U.U.U.U.U.U.U.U.U.U.U.",
"U.U.U.U.U.U.U.U.U.U.U.U.U.U.U.U.U.U.U.U.U.U.U.U.U.U.U.: - - : : * = - * * = * * : * U.U.U.U.U.U.U.U.U.U.U.U.U.U.U.U.U.U.U.U.U.U.U.U.U.U.",
"U.U.U.U.U.U.U.U.U.U.U.U.U.U.U.U.U.U.U.U.U.U.U.U.U.U.U.U.U.U.U.U.U.U.U.U.U.U.U.U.U.U.U.U.U.U.U.U.U.U.U.U.U.U.U.U.U.U.U.U.U.U.U.U.U.U.U.U.",
"U.U.U.U.U.U.U.U.U.U.U.U.U.U.U.U.U.U.U.U.U.U.U.U.U.U.U.U.U.U.U.U.U.U.U.U.U.U.U.U.U.U.U.U.U.U.U.U.U.U.U.U.U.U.U.U.U.U.U.U.U.U.U.U.U.U.U.U.",
"U.U.U.U.U.U.U.U.U.U.U.U.U.U.U.U.U.U.U.U.U.U.U.U.U.U.U.U.U.U.U.U.U.U.U.U.U.U.U.U.U.U.U.U.U.U.U.U.U.U.U.U.U.U.U.U.U.U.U.U.U.U.U.U.U.U.U.U."
};
