/* XPM */
static char *result[] = {
/* columns rows colors chars-per-pixel */
"34 33 89 1 ",
"  c #545A5E",
". c #745A5F",
"X c #795B5D",
"o c #4D5865",
"O c #4F5D6B",
"+ c #535766",
"@ c #545B65",
"# c #5B5C66",
"$ c #555C68",
"% c #5A5D6A",
"& c #645C64",
"* c #6C5A63",
"= c #745B61",
"- c #7C5C63",
"; c #5B616C",
": c #62656E",
"> c #656770",
", c #666B75",
"< c #696D77",
"1 c #686F7A",
"2 c #6D727C",
"3 c #DC4636",
"4 c #D24E3F",
"5 c #DE483A",
"6 c #E6442F",
"7 c #EA422D",
"8 c #E14733",
"9 c #ED4531",
"0 c #F04530",
"q c #F14832",
"w c #F54E39",
"e c #F6523D",
"r c #865E5F",
"t c #8C595A",
"y c #945555",
"u c #995455",
"i c #91585A",
"p c #B84E48",
"a c #A25A58",
"s c #B55A55",
"d c #815D63",
"f c #885B63",
"g c #915E61",
"h c #985B60",
"j c #C24B40",
"k c #C45D56",
"l c #CA5E58",
"z c #D45C51",
"x c #EC5E4D",
"c c #FD5B45",
"v c #F35F4D",
"b c #FF5F49",
"n c #E15E51",
"m c #FE604A",
"M c #E76053",
"N c #EE6054",
"B c #757682",
"V c #797D84",
"C c #797F89",
"Z c #7E8087",
"A c #80838C",
"S c #86888F",
"D c #838692",
"F c #858890",
"G c #8C919B",
"H c #93949C",
"J c #9698A0",
"K c #9A9BA2",
"L c #A5A7AE",
"P c #ADAEB2",
"I c #B5B7BB",
"U c #B9BABC",
"Y c #BCBDC2",
"T c #C6C6CC",
"R c #C9CBCE",
"E c #CECED2",
"W c #D1D2D4",
"Q c #D5D6D8",
"! c #D8D7DC",
"~ c #DADBDC",
"^ c #DEDFE3",
"/ c #DFE0E5",
"( c #E4E3E4",
") c #E7E7EB",
"_ c #ECECEE",
"` c #F0EFF0",
"' c #F4F3F4",
"] c #FEFEFE",
"[ c None",
/* pixels */
"[[[[[[[[[[[[[[[[[[[[[[[[[[[[[[[[[[",
"[[[[[[[[[[[[[[[[$[[[[[[[[[[[[[[[[[",
"[[[[[[[[[[[$$$$&#-&%$@$ [[[[[[[[[[",
"[[[[[[[[[#$%.zNbbbbmNu#$$[[[[[[[[[",
"[[[[[[[[%#abmmbbbbbbbbbxf$[[[[[[[[",
"[[[[[[[$Xbbbbw7777779cbbbn$$[[[[[[",
"[[[[[[$#vbbe77777777779bbbk##[[[[[",
"[[[[[$*bbbq77777777777777mbv$$[[[[",
"[[[[O$vbb7777777777777777ebbg$[[[[",
"[[[[$sbbw77777777777777777cmbX$[[[",
"[[[$$bbb7777777677777777777mbx$O[[",
"[[[$-xbw7777777954477777777qbb-$[[",
"[[[$$$-47777773&$$$.87777777bbl$[[",
"[[$:U<$$$#y67t$$>D1$$3777777cbN$[[",
"[[$,]]EF$$$#*$$T]]]2$.977777wbm#[[",
"[[$G]](((^I%$$H]]]]]I$u777777bb-[[",
"[[@L]]((((((;;']]]]])$=777777bbd@[",
"[[$S]]((((()B$(]]]]]($$377777bbr$[",
"[[$Z]]((((((TO;']]]Y$$$$$#p6qmm=%[",
"[[$:]]((((((($$2^_E$$HE,$$$$iMm#[[",
"[[%$]]`(((((((H$$$$#H((((/G%$$$$[[",
"[[[%]]'((((((((P22A!((((((((WV$$[[",
"[[[$G]]'(((((((((((((((((((]]]$$[[",
"[[[[%T]]((((((((((((((((((']]/$[[[",
"[[[[$$]]]((((((((((((((((_]](;[[[[",
"[[[[[$Y]]`(((((((((((((((]]]:$[[[[",
"[[[[[[$V]]]((((((((((((']]]Z%[[[[[",
"[[[[[[+$U]]]'(((((((((']]],$[[[[[[",
"[[[[[[[[$V_]]]]]]']]]]]]'>$[[[[[[[",
"[[[[[[[[[$+,W]']]]]]]]^%$#[[[[[[[[",
"[[[[[[[[[[[+o;ZRQ~QYD;%$[[[[[[[[[[",
"[[[[[[[[[[[[[[o++++# [[[[[[[[[[[[[",
"[[[[[[[[[[[[[[[[[[[[[[[[[[[[[[[[[["
};
