/* XPM */
static char *result[] = {
/* columns rows colors chars-per-pixel */
"34 40 75 1 ",
"  c #4B4E54",
". c #505359",
"X c #52555C",
"o c #53565C",
"O c #53565D",
"+ c #54575E",
"@ c #55585E",
"# c #55585F",
"$ c #56595F",
"% c #565960",
"& c #575B61",
"* c #5C5F66",
"= c #5E6168",
"- c #5E6269",
"; c #62666D",
": c #64686F",
"> c #646870",
", c #656970",
"< c #686B73",
"1 c #696D74",
"2 c #6C7078",
"3 c #6D7178",
"4 c #71757D",
"5 c #72767E",
"6 c #7A7F88",
"7 c #8C919A",
"8 c #8C919B",
"9 c #9196A0",
"0 c #9398A2",
"q c #9399A3",
"w c #949AA3",
"e c #969CA5",
"r c #989EA8",
"t c #99A0AA",
"y c #9AA1AB",
"u c #9BA2AC",
"i c #9CA2AC",
"p c #9CA3AD",
"a c #9DA3AE",
"s c #9EA5B0",
"d c #9FA6B1",
"f c #A1A7B2",
"g c #A1A8B3",
"h c #A2A8B3",
"j c #A2A9B4",
"k c #A5ABB6",
"l c #A5ACB7",
"z c #A6ADB7",
"x c #A7AFB9",
"c c #AAB2BC",
"v c #ACB3BF",
"b c #AEB6C1",
"n c #B0B8C3",
"m c #B3BBC7",
"M c #B7BECA",
"N c #B9C1CD",
"B c #BAC1CD",
"V c #BBC3CE",
"C c #BBC3CF",
"Z c #BCC3CF",
"A c #BCC4D0",
"S c #BDC5D1",
"D c #C1C9D5",
"F c #C6CEDB",
"G c #C7CFDC",
"H c #C8D0DD",
"J c #C9D1DE",
"K c #CAD2DF",
"L c #CBD3E0",
"P c #CCD4E1",
"I c #CCD4E2",
"U c #CDD5E2",
"Y c #CED6E3",
"T c #CFD7E4",
"R c None",
/* pixels */
"RRRRRRRRRRRRRRRRRRRRRRRRRRRRRRRRRR",
"RRRRRRRRRRRRRRRRRRRRRRRRRRRRRRRRRR",
"RRRRRRRRRRRRRRRRRRRRRRRRRRRRRRRRRR",
"RRRRRRRRRRRRRRRRRRRRRRRRRRRRRRRRRR",
"RRRRRRRRRRRRRRRRRRRRRRRRRRRRRRRRRR",
"RRRRRRRRRRRRRRRRRRRRRRRRRRRRRRRRRR",
"RRRRRRRRRRRRRRRRRRRRRRRRRRRRRRRRRR",
"RRRRRRRRRRRRRRRRRRRRRRRRRRRRRRRRRR",
"RRRRRRRRRRRRRRRRRRRRRRRRRRRRRRRRRR",
"RRRRRRRRRRRRRRRRRRRRRRRRRRRRRRRRRR",
"RRRRRRRRRRRRRRRRRRRRRRRRRRRRRRRRRR",
"RRRRRRRRRRRRRRRRRRRRRRRRRRRRRRRRRR",
"RRRRRRRRRRwytttytttupr8RRRRRRRRRRR",
"RRRRRRRRRRxIYUUUYUUPUCquRRRRRRRRRR",
"RRRRRRRRRRvUYPPUUPPTYB56RRRRRRRRRR",
"RRRRRRRRRRgSPPLPPPPUGh%<RRRRRRRRRR",
"RRRRRRRRRRRdYPLLLLPTf+.>RRRRRRRRRR",
"RRRRRRRRRRRpYULLLLLFbo15RRRRRRRRRR",
"RRRRRRRRRRReNDKKKKGm9*RRRRRRRRRRRR",
"RRRRRRRRRRRRRcHJJLV=$=RRRRRRRRRRRR",
"RRRRRRRRRRRRRzGHHKN@&4RRRRRRRRRRRR",
"RRRRRRRRRRRRRaZGGAkO:RRRRRRRRRRRRR",
"RRRRRRRRRRRRRRsHKl* ,RRRRRRRRRRRRR",
"RRRRRRRRRRRRRRiPYj.,5RRRRRRRRRRRRR",
"RRRRRRRRRRRRRR0Mn7%RRRRRRRRRRRRRRR",
"RRRRRRRRRRRRRRRR2X#RRRRRRRRRRRRRRR",
"RRRRRRRRRRRRRRRR3-;RRRRRRRRRRRRRRR",
"RRRRRRRRRRRRRRRRRRRRRRRRRRRRRRRRRR",
"RRRRRRRRRRRRRRRRRRRRRRRRRRRRRRRRRR",
"RRRRRRRRRRRRRRRRRRRRRRRRRRRRRRRRRR",
"RRRRRRRRRRRRRRRRRRRRRRRRRRRRRRRRRR",
"RRRRRRRRRRRRRRRRRRRRRRRRRRRRRRRRRR",
"RRRRRRRRRRRRRRRRRRRRRRRRRRRRRRRRRR",
"RRRRRRRRRRRRRRRRRRRRRRRRRRRRRRRRRR",
"RRRRRRRRRRRRRRRRRRRRRRRRRRRRRRRRRR",
"RRRRRRRRRRRRRRRRRRRRRRRRRRRRRRRRRR",
"RRRRRRRRRRRRRRRRRRRRRRRRRRRRRRRRRR",
"RRRRRRRRRRRRRRRRRRRRRRRRRRRRRRRRRR",
"RRRRRRRRRRRRRRRRRRRRRRRRRRRRRRRRRR",
"RRRRRRRRRRRRRRRRRRRRRRRRRRRRRRRRRR"
};
