/* XPM */
static char *result[] = {
/* columns rows colors chars-per-pixel */
"100 143 17 1 ",
"  c #303020",
". c #384028",
"X c #504830",
"o c #485038",
"O c #506838",
"+ c #386058",
"@ c #585040",
"# c #587048",
"$ c #706040",
"% c #907848",
"& c #608038",
"* c #78A028",
"= c #308068",
"- c #409878",
"; c #90C038",
": c #A0D848",
"> c None",
/* pixels */
">>>>>>>>>>>>>>>>>>>>>>>>>>>>>>>>>>>>>>>>>>>>>>>>>>>>>>>>>>>>>>>>>>>>>>>>>>>>>>>>>>>>>>>>>>>>>>>>>>>>",
">>>>>>>>>>>>>>>>>>>>>>>>>>>>>>>>>>>>>>>>>>>>>>>>>>>>>>>>>>>>>>>>>>>>>>>>>>>>>>>>>>>>>>>>>>>>>>>>>>>>",
">>>>>>>>>>>>>>>>>>>>>>>>>>>>>>>>>>>>>>>>>>>>>>>>>>>>>>>>>>>>>>>>>>>>>>>>>>>>>>>>>>>>>>>>>>>>>>>>>>>>",
">>>>>>>>>>>>>>>>>>>>>>>>>>>>>>>>>>>>>>>>>>>>>>>>>>>>>>>>>>>>>>>>>>>>>>>>>>>>>>>>>>>>>>>>>>>>>>>>>>>>",
">>>>>>>>>>>>>>>>>>>>>>>>>>>>>>>>>>>>>>>>>>>>>>>>>>>>>>>>>>>>>>>>>>>>>>>>>>>>>>>>>>>>>>>>>>>>>>>>>>>>",
">>>>>>>>>>>>>>>>>>>>>>>>>>>>>>>>>>>>>>>>>>>>>>>>>>>>>>>>>>>>>>>>>>>>>>>>>>>>>>>>>>>>>>>>>>>>>>>>>>>>",
">>>>>>>>>>>>>>>>>>>>>>>>>>>>>>>>>>>>>>>>>>>>>>>>>>>>>>>>>>>>>>>>>>>>>>>>>>>>>>>>>>>>>>>>>>>>>>>>>>>>",
">>>>>>>>>>>>>>>>>>>>>>>>>>>>>>>>>>>>>>>>>>>>>>>>>>>>>>>>>>>>>>>>>>>>>>>>>>>>>>>>>>>>>>>>>>>>>>>>>>>>",
">>>>>>>>>>>>>>>>>>>>>>>>>>>>>>>>>>>>>>>>>>>>>>>>>>>>>>>>>>>>>>>>>>>>>>>>>>>>>>>>>>>>>>>>>>>>>>>>>>>>",
">>>>>>>>>>>>>>>>>>>>>>>>>>>>>>>>>>>>>>>>>>>>>>>>>>>>>>>>>>>>>>>>>>>>>>>>>>>>>>>>>>>>>>>>>>>>>>>>>>>>",
">>>>>>>>>>>>>>>>>>>>>>>>>>>>>>>>>>>>>>>>>>>>>>>>>>>>>>>>>>>>>>>>>>>>>>>>>>>>>>>>>>>>>>>>>>>>>>>>>>>>",
">>>>>>>>>>>>>>>>>>>>>>>>>>>>>>>>>>>>>>>>>>>>>>>>>>>>>>>>>>>>>>>>>>>>>>>>>>>>>>>>>>>>>>>>>>>>>>>>>>>>",
">>>>>>>>>>>>>>>>>>>>>>>>>>>>>>>>>>>>>>>>>>>>>>>>>>>>>>>>>>>>>>>>>>>>>>>>>>>>>>>>>>>>>>>>>>>>>>>>>>>>",
">>>>>>>>>>>>>>>>>>>>>>>>>>>>>>>>>>>>>>>>>>>>>>>#####>>>>>>>>>>>>>>>>>>>>>>>>>>>>>>>>>>>>>>>>>>>>>>>>",
">>>>>>>>>>>>>>>>>>>>>>>>>>>>>>>>>>>>>>>>>>>>>>>#####>>>>>>>>>>>>>>>>>>>>>>>>>>>>>>>>>>>>>>>>>>>>>>>>",
">>>>>>>>>>>>>>>>>>>>>>>>>>>>>>>>>>>>>ooooo>>>##:::::###>>ooooo>>>>>>>>>>>>>>>>>>>>>>>>>>>>>>>>>>>>>>",
">>>>>>>>>>>>>>>>>>>>>>>>>>>>>>>>>>>>>ooooo>>>##:::::###>>ooooo>>>>>>>>>>>>>>>>>>>>>>>>>>>>>>>>>>>>>>",
">>>>>>>>>>>>>>>>>>>>>>>>>>>>>>>>>>>>>ooooo>>>##:::::###>>ooooo>>>>>>>>>>>>>>>>>>>>>>>>>>>>>>>>>>>>>>",
">>>>>>>>>>>>>>>>>>>>>>>>>>>>>>>>>>>oo*****###;;:::::;;;##*****ooo>>>>>>>>>>>>>>>>>>>>>>>>>>>>>>>>>>>",
">>>>>>>>>>>>>>>>>>>>>>>>>>>>>>>>>>>oo*****###;;:::::;;;##*****ooo>>>>>>>>>>>>>>>>>>>>>>>>>>>>>>>>>>>",
">>>>>>>>>>>>>>>>>>>>>>>>>>>>>>ooooooo*****&&&::::::::::&&*****oooooooo>>>>>>>>>>>>>>>>>>>>>>>>>>>>>>",
">>>>>>>>>>>>>>>>>>>>>>>>>>>>>>ooooooo*****&&&::::::::::&&*****oooooooo>>>>>>>>>>>>>>>>>>>>>>>>>>>>>>",
">>>>>>>>>>>>>>>>>>>>>>>>>>>>>>ooooooo*****&&&::::::::::&&*****oooooooo>>>>>>>>>>>>>>>>>>>>>>>>>>>>>>",
">>>>>>>>>>>>>>>>>>>>>>>>>>>oooooooo&&***&&;;;::::::::::;;&&&**&&&ooooooo>>>>>>>>>>>>>>>>>>>>>>>>>>>>",
">>>>>>>>>>>>>>>>>>>>>>>>>>>oooooooo&&***&&;;;::::::::::;;&&&**&&&ooooooo>>>>>>>>>>>>>>>>>>>>>>>>>>>>",
">>>>>>>>>>>>>>>>>>>>>>>>>ooooo**********&&;;;::::::::::;;&&&**********ooooo>>>>>>>>>>>>>>>>>>>>>>>>>",
">>>>>>>>>>>>>>>>>>>>>>>>>ooooo**********&&;;;::::::::::;;&&&**********ooooo>>>>>>>>>>>>>>>>>>>>>>>>>",
">>>>>>>>>>>>>>>>>>>>>>>>>ooooo**********&&;;;::::::::::;;&&&**********ooooo>>>>>>>>>>>>>>>>>>>>>>>>>",
">>>>>>>>>>>>>>>>>>>>oooooooooo&&*****&&&;;;;;::::::::::;;;;;&&*****&&&oooooooooo>>>>>>>>>>>>>>>>>>>>",
">>>>>>>>>>>>>>>>>>>>oooooooooo&&*****&&&;;;;;::::::::::;;;;;&&*****&&&oooooooooo>>>>>>>>>>>>>>>>>>>>",
">>>>>>>>>>>>>>>>>ooo&&&&&&&ooo**&&&*****;;;;;;;:::::;;;;;;;;*****&&***oo&&&&&&&&oo>>>>>>>>>>>>>>>>>>",
">>>>>>>>>>>>>>>>>ooo&&&&&&&ooo**&&&*****;;;;;;;:::::;;;;;;;;*****&&***oo&&&&&&&&oo>>>>>>>>>>>>>>>>>>",
">>>>>>>>>>>>>>>>>ooo&&&&&&&ooo**&&&*****;;;;;;;:::::;;;;;;;;*****&&***oo&&&&&&&&oo>>>>>>>>>>>>>>>>>>",
">>>>>>>>>>>>>>>>>ooo&&&&&&&###&&********;;;;;;;;;;;;;;;;;;;;*******&&&##&&&&&&&&oo>>>>>>>>>>>>>>>>>>",
">>>>>>>>>>>>>>>>>ooo&&&&&&&###&&********;;;;;;;;;;;;;;;;;;;;*******&&&##&&&&&&&&oo>>>>>>>>>>>>>>>>>>",
">>>>>>>>>>>>>>>oooooOO&&&##***************;;;;;;;;;;;;;;;***************###&&OOOooooo>>>>>>>>>>>>>>>",
">>>>>>>>>>>>>>>oooooOO&&&##***************;;;;;;;;;;;;;;;***************###&&OOOooooo>>>>>>>>>>>>>>>",
">>>>>>>>>>>>>>>oooooOO&&&##***************;;;;;;;;;;;;;;;***************###&&OOOooooo>>>>>>>>>>>>>>>",
">>>>>>>>>>>>ooo&&&&&&&OOO##***&&**********;;;;;;;;;;;;;;;**********&&&**###OO&&&&&&&&oo>>>>>>>>>>>>>",
">>>>>>>>>>>>ooo&&&&&&&OOO##***&&**********;;;;;;;;;;;;;;;**********&&&**###OO&&&&&&&&oo>>>>>>>>>>>>>",
">>>>>>>>>>>>ooo&&&&&&&&&&&&###*****&&********;;;;;;;;;;*******&&&*****##&&&&&&&&&&&&&oo>>>>>>>>>>>>>",
">>>>>>>>>>>>ooo&&&&&&&&&&&&###*****&&********;;;;;;;;;;*******&&&*****##&&&&&&&&&&&&&oo>>>>>>>>>>>>>",
">>>>>>>>>>>>ooo&&&&&&&&&&&&###*****&&********;;;;;;;;;;*******&&&*****##&&&&&&&&&&&&&oo>>>>>>>>>>>>>",
">>>>>>>>>>>>oooOO&&&&&&&&&&&&&##&&&**********;;;;;;;;;;**********&&###&&&&&&&&&&&&OOOoo>>>>>>>>>>>>>",
">>>>>>>>>>>>oooOO&&&&&&&&&&&&&##&&&**********;;;;;;;;;;**********&&###&&&&&&&&&&&&OOOoo>>>>>>>>>>>>>",
">>>>>>>>>>>>...oo&&&&&&&&&&&&&##***************;;;;;***************###&&&&&&&&&&&&ooo..>>>>>>>>>>>>>",
">>>>>>>>>>>>...oo&&&&&&&&&&&&&##***************;;;;;***************###&&&&&&&&&&&&ooo..>>>>>>>>>>>>>",
">>>>>>>>>>>>...oo&&&&&&&&&&&&&##***************;;;;;***************###&&&&&&&&&&&&ooo..>>>>>>>>>>>>>",
">>>>>>>>>>>>...ooOOO&&&&&&&&&&##********&&***************&&&*******###&&&&&&&&&&OOooo..>>>>>>>>>>>>>",
">>>>>>>>>>>>...ooOOO&&&&&&&&&&##********&&***************&&&*******###&&&&&&&&&&OOooo..>>>>>>>>>>>>>",
">>>>>>>>>>..ooo&&&&&&&&&&&&&&&&&#####&&&********************&&#####&&&&&&&&&&&&&&&&&&oo...>>>>>>>>>>",
">>>>>>>>>>..ooo&&&&&&&&&&&&&&&&&#####&&&********************&&#####&&&&&&&&&&&&&&&&&&oo...>>>>>>>>>>",
">>>>>>>>>>..ooo&&&&&&&&&&&&&&&&&#####&&&********************&&#####&&&&&&&&&&&&&&&&&&oo...>>>>>>>>>>",
">>>>>>>...oo&&&&&&&&&&&&&&&&&&&&&&&&&###*******&&&&&********##&&&&&&&&&&&&&&&&&&&&&&&&&ooo..>>>>>>>>",
">>>>>>>...oo&&&&&&&&&&&&&&&&&&&&&&&&&###*******&&&&&********##&&&&&&&&&&&&&&&&&&&&&&&&&ooo..>>>>>>>>",
">>>>>>>...oo&&&&&&&&&&&&&&&&&&&&&&&&&&&&&&***&&&&&&&&&&**&&&&&&&&&&&&&&&&&&&&&&&&&&&&&&ooo..>>>>>>>>",
">>>>>>>...oo&&&&&&&&&&&&&&&&&&&&&&&&&&&&&&***&&&&&&&&&&**&&&&&&&&&&&&&&&&&&&&&&&&&&&&&&ooo..>>>>>>>>",
">>>>>>>...oo&&&&&&&&&&&&&&&&&&&&&&&&&&&&&&***&&&&&&&&&&**&&&&&&&&&&&&&&&&&&&&&&&&&&&&&&ooo..>>>>>>>>",
">>>>>>>...ooooo&&&&&OO&&&&&&&&&&&&&&&&&&&&&&&&&&&&&&&&&&&&&&&&&&&&&&&&&&&&&&&OOO&&&&&ooooo..>>>>>>>>",
">>>>>>>...ooooo&&&&&OO&&&&&&&&&&&&&&&&&&&&&&&&&&&&&&&&&&&&&&&&&&&&&&&&&&&&&&&OOO&&&&&ooooo..>>>>>>>>",
">>>>>..OOOOOOOOooOOO&&&&&OOOOO&&&&&&&&&&&&&&&&&&&&&&&&&&&&&&&&&&&&&&&&OOOOO&&&&&OOoooOOOOOOO...>>>>>",
">>>>>..OOOOOOOOooOOO&&&&&OOOOO&&&&&&&&&&&&&&&&&&&&&&&&&&&&&&&&&&&&&&&&OOOOO&&&&&OOoooOOOOOOO...>>>>>",
">>>>>..OOOOOOOOooOOO&&&&&OOOOO&&&&&&&&&&&&&&&&&&&&&&&&&&&&&&&&&&&&&&&&OOOOO&&&&&OOoooOOOOOOO...>>>>>",
">>...OOoooOOOOOoo&&&&&&&&OOOOO&&&&&&&&&&&&&&&&&&&&&&&&&&&&&&&&&&&&&&&&OOOOO&&&&&&&oooOOOOOooOOO..>>>",
">>...OOoooOOOOOoo&&&&&&&&OOOOO&&&&&&&&&&&&&&&&&&&&&&&&&&&&&&&&&&&&&&&&OOOOO&&&&&&&oooOOOOOooOOO..>>>",
">>...ooOOOOOOOOoo&&&OO&&&&&&&&&&&&&&&&&&&&&&&&&&&&&&&&&&&OOOOO&&&&&&&&&&&&&&&OOO&&oooOOOOOOOooo..>>>",
">>...ooOOOOOOOOoo&&&OO&&&&&&&&&&&&&&&&&&&&&&&&&&&&&&&&&&&OOOOO&&&&&&&&&&&&&&&OOO&&oooOOOOOOOooo..>>>",
">>...ooOOOOOOOOoo&&&OO&&&&&&&&&&&&&&&&&&&&&&&&&&&&&&&&&&&OOOOO&&&&&&&&&&&&&&&OOO&&oooOOOOOOOooo..>>>",
">>...ooOOOooOOOOOooo&&&&&&&OOO&&&&&&&&&&&&&&&&&&&&&&&&&&&OOOOO&&&&&&&&OO&&&&&&&&ooOOOOOoooOOooo..>>>",
">>...ooOOOooOOOOOooo&&&&&&&OOO&&&&&&&&&&&&&&&&&&&&&&&&&&&OOOOO&&&&&&&&OO&&&&&&&&ooOOOOOoooOOooo..>>>",
">>>>>.....OOOOOOOOOOoooooOO&&&&&&&&&&&&&OOOOO&&&&&&&&&&&&&&&&&&&&&&&&&&&OOOoooooOOOOOOOOOO.....>>>>>",
">>>>>.....OOOOOOOOOOoooooOO&&&&&&&&&&&&&OOOOO&&&&&&&&&&&&&&&&&&&&&&&&&&&OOOoooooOOOOOOOOOO.....>>>>>",
">>>>>.....OOOOOOOOOOoooooOO&&&&&&&&&&&&&OOOOO&&&&&&&&&&&&&&&&&&&&&&&&&&&OOOoooooOOOOOOOOOO.....>>>>>",
">>>>>..OOOOOOOOOOOOOOOooo&&&&&&&&&&OO&&&OOOOO&&&&&&&&&&&&&&&&&OOO&&&&&&&&&&ooOOOOOOOOOOOOOOO...>>>>>",
">>>>>..OOOOOOOOOOOOOOOooo&&&&&&&&&&OO&&&OOOOO&&&&&&&&&&&&&&&&&OOO&&&&&&&&&&ooOOOOOOOOOOOOOOO...>>>>>",
">>...ooOOOOOOOOOOOOOOOooo&&&&&&&ooooo&&&&&&&&&&ooooo&&&&&&&&&&ooooo&&&&&&&&ooOOOOOOOOOOOOOOOooo..>>>",
">>...ooOOOOOOOOOOOOOOOooo&&&&&&&ooooo&&&&&&&&&&ooooo&&&&&&&&&&ooooo&&&&&&&&ooOOOOOOOOOOOOOOOooo..>>>",
">>...ooOOOOOOOOOOOOOOOooo&&&&&&&ooooo&&&&&&&&&&ooooo&&&&&&&&&&ooooo&&&&&&&&ooOOOOOOOOOOOOOOOooo..>>>",
">>   oooooOOOOOOOOOOOOOOOoooooooOOOOOooo&&&&&ooOOOOOooo&&&&&ooOOOOOooooooooOOOOOOOOOOOOOOOooooo  >>>",
">>   oooooOOOOOOOOOOOOOOOoooooooOOOOOooo&&&&&ooOOOOOooo&&&&&ooOOOOOooooooooOOOOOOOOOOOOOOOooooo  >>>",
">>   ooooo..OOOOOOOOOOOOOOOOOOOOOOOOOOOOoooooOOOOOOOOOOoooooOOOOOOOOOOOOOOOOOOOOOOOOOOO...ooooo  >>>",
">>   ooooo..OOOOOOOOOOOOOOOOOOOOOOOOOOOOoooooOOOOOOOOOOoooooOOOOOOOOOOOOOOOOOOOOOOOOOOO...ooooo  >>>",
">>   ooooo..OOOOOOOOOOOOOOOOOOOOOOOOOOOOoooooOOOOOOOOOOoooooOOOOOOOOOOOOOOOOOOOOOOOOOOO...ooooo  >>>",
">>>>>     OOOOOOOOOOOOOOOOOOOOOOOOOOOOOOOOOOOOOOOOOOOOOOOOOOOOOOOOOOOOOOOOOOOOOOOOOOOOOOOO     >>>>>",
">>>>>     OOOOOOOOOOOOOOOOOOOOOOOOOOOOOOOOOOOOOOOOOOOOOOOOOOOOOOOOOOOOOOOOOOOOOOOOOOOOOOOO     >>>>>",
">>>>>>>>>>..oooOOOOOOOOOOOOOOOOOOOOOOOOOOOOOOOOOOOOOOOOOOOOOOOOOOOOOOOOOOOOOOOOOOOOOOoo...>>>>>>>>>>",
">>>>>>>>>>..oooOOOOOOOOOOOOOOOOOOOOOOOOOOOOOOOOOOOOOOOOOOOOOOOOOOOOOOOOOOOOOOOOOOOOOOoo...>>>>>>>>>>",
">>>>>>>>>>..oooOOOOOOOOOOOOOOOOOOOOOOOOOOOOOOOOOOOOOOOOOOOOOOOOOOOOOOOOOOOOOOOOOOOOOOoo...>>>>>>>>>>",
">>>>>>>   oooooooOOOOOOOOOOOOOOOOOOOOOOOOOOOOOOOOOOOOOOOOOOOOOOOOOOOOOOOOOOOOOOOOOoooooooo  >>>>>>>>",
">>>>>>>   oooooooOOOOOOOOOOOOOOOOOOOOOOOOOOOOOOOOOOOOOOOOOOOOOOOOOOOOOOOOOOOOOOOOOoooooooo  >>>>>>>>",
">>>>>>>   oo...ooooooo...OOoooOOOOOOOOOOOOOOOOOOOOOOOOOOOOOOOOOOOOOOOOooOOO..oooooooo..ooo  >>>>>>>>",
">>>>>>>   oo...ooooooo...OOoooOOOOOOOOOOOOOOOOOOOOOOOOOOOOOOOOOOOOOOOOooOOO..oooooooo..ooo  >>>>>>>>",
">>>>>>>   oo...ooooooo...OOoooOOOOOOOOOOOOOOOOOOOOOOOOOOOOOOOOOOOOOOOOooOOO..oooooooo..ooo  >>>>>>>>",
">>>>>>>>>>  oooooooo.....ooOOOOOOOOooOOOOOOOOOOOOOOOOOOOOOOOOOoooOOOOOOOooo.....ooooooo   >>>>>>>>>>",
">>>>>>>>>>  oooooooo.....ooOOOOOOOOooOOOOOOOOOOOOOOOOOOOOOOOOOoooOOOOOOOooo.....ooooooo   >>>>>>>>>>",
">>>>>>>>>>>>        ..ooooooooOOoooOOOOOOOOOOOOOOOOOOOOOOOOOOOOOOooOOOooooooo...       >>>>>>>>>>>>>",
">>>>>>>>>>>>        ..ooooooooOOoooOOOOOOOOOOOOOOOOOOOOOOOOOOOOOOooOOOooooooo...       >>>>>>>>>>>>>",
">>>>>>>>>>>>        ..ooooooooOOoooOOOOOOOOOOOOOOOOOOOOOOOOOOOOOOooOOOooooooo...       >>>>>>>>>>>>>",
">>>>>>>>>>>>>>>-----  oooooooooo...ooOOOOOoooOOOOOOOOOOooOOOOOooo..oooooooooo   ----->>>>>>>>>>>>>>>",
">>>>>>>>>>>>>>>-----  oooooooooo...ooOOOOOoooOOOOOOOOOOooOOOOOooo..oooooooooo   ----->>>>>>>>>>>>>>>",
">>>>>>>>>>>>-----===  ooooo...  oooooooooooooooOOOOOooooooooooooooo   ..ooooo   ==----->>>>>>>>>>>>>",
">>>>>>>>>>>>-----===  ooooo...  oooooooooooooooOOOOOooooooooooooooo   ..ooooo   ==----->>>>>>>>>>>>>",
">>>>>>>>>>>>-----===  ooooo...  oooooooooooooooOOOOOooooooooooooooo   ..ooooo   ==----->>>>>>>>>>>>>",
">>>>>>>>>>>>-----===++          ooooo...     oooooooooo     ..ooooo          +++==----->>>>>>>>>>>>>",
">>>>>>>>>>>>-----===++          ooooo...     oooooooooo     ..ooooo          +++==----->>>>>>>>>>>>>",
">>>>>>>>>>>>-----===+++++  XXXXX        %%%%%  ooooo   %%%%%       XXXXX   +++++==----->>>>>>>>>>>>>",
">>>>>>>>>>>>-----===+++++  XXXXX        %%%%%  ooooo   %%%%%       XXXXX   +++++==----->>>>>>>>>>>>>",
">>>>>>>>>>>>-----===+++++  XXXXX        %%%%%  ooooo   %%%%%       XXXXX   +++++==----->>>>>>>>>>>>>",
">>>>>>>>>>>>-----===++   @@@@@@@$$$%%%%%%%%%%%%     %%%%%%%%%%%%%$$@@@@@@@@  +++==----->>>>>>>>>>>>>",
">>>>>>>>>>>>-----===++   @@@@@@@$$$%%%%%%%%%%%%     %%%%%%%%%%%%%$$@@@@@@@@  +++==----->>>>>>>>>>>>>",
">>>>>>>>>>>>-----===++   @@@@@@@XXX%%%%%$$@@@%%$$$$$%%%@@$$$%%%%%XX@@@@@@@@  +++==----->>>>>>>>>>>>>",
">>>>>>>>>>>>-----===++   @@@@@@@XXX%%%%%$$@@@%%$$$$$%%%@@$$$%%%%%XX@@@@@@@@  +++==----->>>>>>>>>>>>>",
">>>>>>>>>>>>-----===++   @@@@@@@XXX%%%%%$$@@@%%$$$$$%%%@@$$$%%%%%XX@@@@@@@@  +++==----->>>>>>>>>>>>>",
">>>>>>>>>>>>-----=====+++          $$%%%@@@@@$$$$$$$$$$@@@@@%%$$$          ++=====----->>>>>>>>>>>>>",
">>>>>>>>>>>>-----=====+++          $$%%%@@@@@$$$$$$$$$$@@@@@%%$$$          ++=====----->>>>>>>>>>>>>",
">>>>>>>>>>>>>>>-----==++++++++++   $$$$$@@@@@$$$$$$$$$$@@@@@$$$$$  ++++++++++===----->>>>>>>>>>>>>>>",
">>>>>>>>>>>>>>>-----==++++++++++   $$$$$@@@@@$$$$$$$$$$@@@@@$$$$$  ++++++++++===----->>>>>>>>>>>>>>>",
">>>>>>>>>>>>>>>-----==++++++++++   $$$$$@@@@@$$$$$$$$$$@@@@@$$$$$  ++++++++++===----->>>>>>>>>>>>>>>",
">>>>>>>>>>>>>>>-----=====++++++++++  $$$$$$$$$$@@@@@$$$$$$$$$$   ++++++++++=====----->>>>>>>>>>>>>>>",
">>>>>>>>>>>>>>>-----=====++++++++++  $$$$$$$$$$@@@@@$$$$$$$$$$   ++++++++++=====----->>>>>>>>>>>>>>>",
">>>>>>>>>>>>>>>>>-----=============++        ++++++++++       +++============----->>>>>>>>>>>>>>>>>>",
">>>>>>>>>>>>>>>>>-----=============++        ++++++++++       +++============----->>>>>>>>>>>>>>>>>>",
">>>>>>>>>>>>>>>>>-----=============++        ++++++++++       +++============----->>>>>>>>>>>>>>>>>>",
">>>>>>>>>>>>>>>>>--------===============++++++++++++++++++++===============------->>>>>>>>>>>>>>>>>>",
">>>>>>>>>>>>>>>>>--------===============++++++++++++++++++++===============------->>>>>>>>>>>>>>>>>>",
">>>>>>>>>>>>>>>>>>>>-------=============================================-------->>>>>>>>>>>>>>>>>>>>",
">>>>>>>>>>>>>>>>>>>>-------=============================================-------->>>>>>>>>>>>>>>>>>>>",
">>>>>>>>>>>>>>>>>>>>-------=============================================-------->>>>>>>>>>>>>>>>>>>>",
">>>>>>>>>>>>>>>>>>>>>>----------===================================---------->>>>>>>>>>>>>>>>>>>>>>>",
">>>>>>>>>>>>>>>>>>>>>>----------===================================---------->>>>>>>>>>>>>>>>>>>>>>>",
">>>>>>>>>>>>>>>>>>>>>>>>>-------------------------------------------------->>>>>>>>>>>>>>>>>>>>>>>>>",
">>>>>>>>>>>>>>>>>>>>>>>>>-------------------------------------------------->>>>>>>>>>>>>>>>>>>>>>>>>",
">>>>>>>>>>>>>>>>>>>>>>>>>-------------------------------------------------->>>>>>>>>>>>>>>>>>>>>>>>>",
">>>>>>>>>>>>>>>>>>>>>>>>>>>>>>>>----------------------------------->>>>>>>>>>>>>>>>>>>>>>>>>>>>>>>>>",
">>>>>>>>>>>>>>>>>>>>>>>>>>>>>>>>----------------------------------->>>>>>>>>>>>>>>>>>>>>>>>>>>>>>>>>",
">>>>>>>>>>>>>>>>>>>>>>>>>>>>>>>>>>>>>>>>>>>>>>>>>>>>>>>>>>>>>>>>>>>>>>>>>>>>>>>>>>>>>>>>>>>>>>>>>>>>",
">>>>>>>>>>>>>>>>>>>>>>>>>>>>>>>>>>>>>>>>>>>>>>>>>>>>>>>>>>>>>>>>>>>>>>>>>>>>>>>>>>>>>>>>>>>>>>>>>>>>",
">>>>>>>>>>>>>>>>>>>>>>>>>>>>>>>>>>>>>>>>>>>>>>>>>>>>>>>>>>>>>>>>>>>>>>>>>>>>>>>>>>>>>>>>>>>>>>>>>>>>",
">>>>>>>>>>>>>>>>>>>>>>>>>>>>>>>>>>>>>>>>>>>>>>>>>>>>>>>>>>>>>>>>>>>>>>>>>>>>>>>>>>>>>>>>>>>>>>>>>>>>",
">>>>>>>>>>>>>>>>>>>>>>>>>>>>>>>>>>>>>>>>>>>>>>>>>>>>>>>>>>>>>>>>>>>>>>>>>>>>>>>>>>>>>>>>>>>>>>>>>>>>",
">>>>>>>>>>>>>>>>>>>>>>>>>>>>>>>>>>>>>>>>>>>>>>>>>>>>>>>>>>>>>>>>>>>>>>>>>>>>>>>>>>>>>>>>>>>>>>>>>>>>",
">>>>>>>>>>>>>>>>>>>>>>>>>>>>>>>>>>>>>>>>>>>>>>>>>>>>>>>>>>>>>>>>>>>>>>>>>>>>>>>>>>>>>>>>>>>>>>>>>>>>",
">>>>>>>>>>>>>>>>>>>>>>>>>>>>>>>>>>>>>>>>>>>>>>>>>>>>>>>>>>>>>>>>>>>>>>>>>>>>>>>>>>>>>>>>>>>>>>>>>>>>"
};
