/* XPM */
static char *result[] = {
/* columns rows colors chars-per-pixel */
"42 42 9 1 ",
"  c #312C21",
". c #424131",
"X c #63614A",
"o c #84755A",
"O c #A9000000",
"+ c #9C927B",
"@ c #B5A68C",
"# c #D6D3AD",
"$ c None",
/* pixels */
"$$$$$$$$$$$$$$$$$$$$$$$$$$$$$$$$$$$$$$$$$$",
"$$$$$$$$$$$$$$$$$$$$$$$$$$$$$$$$$$$$$$$$$$",
"$$$$$$$$$$$$$$$$$$$$$$$$$$$$$$$$$$$$$$$$$$",
"$$$$$$$$$$$$$$$$$$$$$$$$$$$$$$$$$$$$$$$$$$",
"$$$$$$$$$$$$$$$$$$$$$$$$$$$$$$$$$$$$$$$$$$",
"$$$$$$$$$$$$$$$$$$$$$$$$$$$$$$$$$$$$$$$$$$",
"$$$$$$$$$$$$$$$$$$$$$$$$$$$$$$$$$$$$$$$$$$",
"$$$$$$$$$$$$$$..............$$$$$$$$$$$$$$",
"$$$$$$$$$$$$..@@##########@@..$$$$$$$$$$$$",
"$$$$$$$$$$$$..@@##########@@..$$$$$$$$$$$$",
"$$$$$$$$$...##################...$$$$$$$$$",
"$$$$$$$$$...#######@@@@@@@####...$$$$$$$$$",
"$$$$$$$$$...#######@@@@@@@####...$$$$$$$$$",
"$$$$$$$..@@@##@@@@@#######@@##@@@..$$$$$$$",
"$$$$$$$..@@@##@@@@@#######@@##@@@..$$$$$$$",
"$$$$$$$..#####@@@@@@@############..$$$$$$$",
"$$$$$$$..#####@@@@@@@############..$$$$$$$",
"$$$$$$$..@@@#######@@@@@@@####@@@..$$$$$$$",
"$$$$$$$..@@@#######@@@@@@@####@@@..$$$$$$$",
"$$$$$$$..@@@##################@@@..$$$$$$$",
"$$$$$$$.....##################.....$$$$$$$",
"$$$$$$$.....##################.....$$$$$$$",
"$$$$$$$..XXXXX@@##########@@XXXXX..$$$$$$$",
"$$$$$$$..XXXXX@@##########@@XXXXX..$$$$$$$",
"$$$$$..ooXXX++XXXXXXXXXXXXXXXXXXXoo..$$$$$",
"$$$$$..ooXXX++XXXXXXXXXXXXXXXXXXXoo..$$$$$",
"$$$$$..ooXXX++XXXXXXXXXXXXXXXXXXXoo..$$$$$",
"$$$$$  XXooo++ooXXXooooXXXXXooXXXXX  $$$$$",
"$$$$$  XXooo++ooXXXooooXXXXXooXXXXX  $$$$$",
"$$$$$  XXoooooooXXXooXXXXXXXoooooXX  $$$$$",
"$$$$$  XXoooooooXXXooXXXXXXXoooooXX  $$$$$",
"$$$$$OO  ooooooo...XXXX...ooooooo  OOO$$$$",
"$$$$$OO  ooooooo...XXXX...ooooooo  OOO$$$$",
"$$$$OOO  ooooooo...XXXX...ooooooo  OOOO$$$",
"$$$$$OO     ooXX          XXoo     OOO$$$$",
"$$$$$OO     ooXX          XXoo     OOO$$$$",
"$$$$$$OOOOOO    OOOOOOOOOO    OOOOOOO$$$$$",
"$$$$$$$$OOOO    OOOOOOOOOO    OOOOO$$$$$$$",
"$$$$$$$$$$OOOOOOOOOOOOOOOOOOOOOOO$$$$$$$$$",
"$$$$$$$$$$$$$OOOOOOOOOOOOOOOOO$$$$$$$$$$$$",
"$$$$$$$$$$$$$$$$$$$$$$$$$$$$$$$$$$$$$$$$$$",
"$$$$$$$$$$$$$$$$$$$$$$$$$$$$$$$$$$$$$$$$$$"
};
