/* XPM */
static char *result[] = {
/* columns rows colors chars-per-pixel */
"42 42 9 1 ",
"  c #09491F",
". c #0C6329",
"X c #0E7030",
"o c #108239",
"O c #109631",
"+ c #42AA52",
"@ c #4ABE52",
"# c #A9000000",
"$ c None",
/* pixels */
"$$$$$$$$$$$$$$$$$$$$$$$$$$$$$$$$$$$$$$$$$$",
"$$$$$$$$$$$$$$$$$$$$$$$$$$$$$$$$$$$$$$$$$$",
"$$$$$$$$$$$$$$$$$$$$$$$$$$$$$$$$$$$$$$$$$$",
"$$$$$$$$$$$$$$$$$$$$$$$$$$$$$$$$$$$$$$$$$$",
"$$$$$$$$$$$$$$$$$$$$$$$$$$$$$$$$$$$$$$$$$$",
"$$$$$$$$$$$$$$$$$$$$$$$$$$$$$$$$$$$$$$$$$$",
"$$$$$$$$$$$$$$$$$$$$$$$$$$$$$$$$$$$$$$$$$$",
"$$$$$$$$$$$$$$$$$$$$$$$$$$$$$$$$$$$$$$$$$$",
"$$$$$$$$$$$$$$$$$$$$$$$$$$$$$$$$$$$$$$$$$$",
"$$$$$$$$$$$$$$$$$$$$$$$$$$$$$$$$$$$$$$$$$$",
"$$$$$$$$$$$$$$$$$$$$$$$$$$$$$$$$$$$$$$$$$$",
"$$$$$$$$$$$$$$$$$........$$$$$$$$$$$$$$$$$",
"$$$$$$$$$$$$$$$$$........$$$$$$$$$$$$$$$$$",
"$$$$$$$$$$$$$....++@@@@++....$$$$$$$$$$$$$",
"$$$$$$$$$$...OO@@++@@++++@@OO...$$$$$$$$$$",
"$$$$$$$$$$...OO@@++@@++++@@OO...$$$$$$$$$$",
"$$$$$$$$...OOOO@@@@++++@@@@OOOO...$$$$$$$$",
"$$$$$$$$...OOOO@@@@++++@@@@OOOO...$$$$$$$$",
"$$$$$$$$..oooOOOOOO++++OOOOOOooo..$$$$$$$$",
"$$$$$$$$..oooOOOOOO++++OOOOOOooo..$$$$$$$$",
"$$$$$$$$...ooooooOO++++++oooooo...$$$$$$$$",
"$$$$$$$$...ooooooOO++++++oooooo...$$$$$$$$",
"$$$$$$....oOOOOooooooooooooOOOOo....$$$$$$",
"$$$$$$....oOOOOooooooooooooOOOOo....$$$$$$",
"$$$$$$..ooXOOooOOOOOOooOOOOooOOoXX..$$$$$$",
"$$$$$$..ooXOOooOOOOOOooOOOOooOOoXX..$$$$$$",
"$$$$$$..oooXXXXOOOOooooOOOOooXXooo..$$$$$$",
"$$$$$$..oooXXXXOOOOooooOOOOooXXooo..$$$$$$",
"$$$$$$....oooXXXXXXXXXXXXXXXXooo....$$$$$$",
"$$$$$$....oooXXXXXXXXXXXXXXXXooo....$$$$$$",
"$$$$$$.........XXooooooXXXX.........$$$$$$",
"$$$$$$.........XXooooooXXXX.........$$$$$$",
"$$$$$$  ..XXX......XXXX....XXXXX..  $$$$$$",
"$$$$$$  ..XXX......XXXX....XXXXX..  $$$$$$",
"$$$$$$$$  ......................  $$$$$$$$",
"$$$$$$$###   ................   ###$$$$$$$",
"$$$$$$$###   ................   ###$$$$$$$",
"$$$$$$$$#####                #####$$$$$$$$",
"$$$$$$$$$####                ####$$$$$$$$$",
"$$$$$$$$$$######################$$$$$$$$$$",
"$$$$$$$$$$$$$################$$$$$$$$$$$$$",
"$$$$$$$$$$$$$$$$$$######$$$$$$$$$$$$$$$$$$"
};
