/* XPM */
static char *result[] = {
/* columns rows colors chars-per-pixel */
"42 84 13 1 ",
"  c #312C21",
". c #217131",
"X c #424131",
"o c #63614A",
"O c #84755A",
"+ c #108239",
"@ c #109631",
"# c #42AA52",
"$ c #4ABE52",
"% c #A9000000",
"& c #54D85D",
"* c #97E59C",
"= c None",
/* pixels */
"==========================================",
"==========================================",
"==========================================",
"==========================================",
"==========================================",
"==========================================",
"==========================================",
"==========================================",
"==========================================",
"==========================================",
"==========================================",
"==========================================",
"==========================================",
"===================++++===================",
"===================++++===================",
"================+++&&&&+++================",
"================+++&&&&+++================",
"================+++&&&&+++================",
"============++++###&&&&###++++============",
"============++++###&&&&###++++============",
"=========+++$$&&&&&****&&&&&$$+++=========",
"=========+++$$&&&&&****&&&&&$$+++=========",
"=========+++$$$$&&&****&&&$$$$+++=========",
"=========+++$$$$&&&****&&&$$$$+++=========",
"=========+++$$$$&&&****&&&$$$$+++=========",
"=======++$$$$$&&**********&&$$$$$++=======",
"=======++$$$$$&&**********&&$$$$$++=======",
"=======++$$$&&&&&&&****&&&&&&&$$$++=======",
"=======++$$$&&&&&&&****&&&&&&&$$$++=======",
"=======++###&&&&&&&&&&&&&&&&&&###++=======",
"=======++###&&&&&&&&&&&&&&&&&&###++=======",
"=======++###&&&&&&&&&&&&&&&&&&###++=======",
"=======++$$$$$&&$$$&&&&$$$&&$$$$$++=======",
"=======++$$$$$&&$$$&&&&$$$&&$$$$$++=======",
"=======++###$$$$$$$&&&&$$$$$$$###++=======",
"=======++###$$$$$$$&&&&$$$$$$$###++=======",
"=======..+++$$@@$$$$$$$$$$@@$$+++..=======",
"=======..+++$$@@$$$$$$$$$$@@$$+++..=======",
"=======..+++$$@@$$$$$$$$$$@@$$+++..=======",
"=======..@@@++@@###$$$$###@@++@@@..=======",
"=======..@@@++@@###$$$$###@@++@@@..=======",
"=====..@@#######@@@####@@@#######@@..=====",
"=====..@@#######@@@####@@@#######@@..=====",
"=====..##@@@##################@@@##..=====",
"=====..##@@@##################@@@##..=====",
"=====..##@@@##################@@@##..=====",
"=====..##@@@$$##$$$####$$$##$$@@@##..=====",
"=====..##@@@$$##$$$####$$$##$$@@@##..=====",
"=====..@@###$$@@$$$$$$$$$$@@$$###@@..=====",
"=====..@@###$$@@$$$$$$$$$$@@$$###@@..=====",
"=======..#####@@###$$$$###@@#####..=======",
"=======..#####@@###$$$$###@@#####..=======",
"=======..#####@@###$$$$###@@#####..=======",
"=======..@@@##@@##########@@##@@@..=======",
"=======..@@@##@@##########@@##@@@..=======",
"=====..@@+++@@@@###@@@@###@@@@+++@@..=====",
"=====..@@+++@@@@###@@@@###@@@@+++@@..=====",
"=====..@@+++@@@@@@@@@@@@@@@@@@+++@@..=====",
"=====..@@+++@@@@@@@@@@@@@@@@@@+++@@..=====",
"=====..@@+++@@@@@@@@@@@@@@@@@@+++@@..=====",
"=====..++@@@@@@@+++@@@@+++@@@@@@@++..=====",
"=====..++@@@@@@@+++@@@@+++@@@@@@@++..=====",
"=======..@@@++@@++++++++++@@++@@@..=======",
"=======..@@@++@@++++++++++@@++@@@..=======",
"=======..+++..@@++++++++++@@..+++..=======",
"=======..+++..@@++++++++++@@..+++..=======",
"=======..+++..@@++++++++++@@..+++..=======",
"=========...  ..++++++++++..  ...=========",
"=========...  ..++++++++++..  ...=========",
"============XXOO          OOXX============",
"============XXOO          OOXX============",
"=========XXXooOOoooOOOOoooOOooXXX=========",
"=========XXXooOOoooOOOOoooOOooXXX=========",
"=========XXXooOOoooOOOOoooOOooXXX=========",
"========%XXXOOoooooOOOOoooooOOXXX%========",
"=======%%XXXOOoooooOOOOoooooOOXXX%%=======",
"======%%%   ooXXoooOOOOoooXXoo   %%%======",
"======%%%   ooXXoooOOOOoooXXoo   %%%======",
"======%%%%%%  XXooooooooooXX  %%%%%%======",
"======%%%%%%  XXooooooooooXX  %%%%%%======",
"=======%%%%%  XXooooooooooXX  %%%%%=======",
"========%%%%%%%%XXX    XXX%%%%%%%%========",
"==========%%%%%%XXX    XXX%%%%%%==========",
"=============%%%%%%%%%%%%%%%%============="
};
