/* XPM */
static char *result[] = {
/* columns rows colors chars-per-pixel */
"42 42 11 1 ",
"  c #101010",
". c #312C21",
"X c #217131",
"o c #31514A",
"O c #29754A",
"+ c #6B554A",
"@ c #6B6552",
"# c #4AAE52",
"$ c #A9000000",
"% c #AD864A",
"& c None",
/* pixels */
"&&&&&&&&&&&&&&&&&&&&&&&&&&&&&&&&&&&&&&&&&&",
"&&&&&&&&&&&&&&&&&&&&&&&&&&&&&&&&&&&&&&&&&&",
"&&&&&&&&&&&&&XXXX&&&&&&&&&&&&&&&&&&&&&&&&&",
"&&&&&&&&&&&&&XXXX&&&&&&&&&&&&&&&&&&&&&&&&&",
"&&&&&&&&&&XXXOO##XXXX&&&&&&&&&&&&&&&&&&&&&",
"&&&&&&&&&&XXXOO##XXXX&&&&&&&&&&&&&&&&&&&&&",
"&&&&&&&&XX#####OOOOooXX&&&&&&&&&&&&&&&&&&&",
"&&&&&&&&XX#####OOOOooXX&&&&&&&&&&&&&&&&&&&",
"&&&&&&XX#########ooOOXX&&XXXXXX&&&&&&&&&&&",
"&&&&&&XX#########ooOOXX&&XXXXXX&&&&&&&&&&&",
"&&&&&&XXOO#####OO##OOOOXXOO####XXX&&&&&&&&",
"&&&&&&XXOOoOOOO##OOOOXX#########XX&&&&&&&&",
"&&&&&&XXOOoOOOO##OOOOXX#########XX&&&&&&&&",
"&&&&&&&&XXOOOOOOOOOooXXOO######O##XX&&&&&&",
"&&&&&&&&XXOOOOOOOOOooXXOO######O##XX&&&&&&",
"&&&&&&&&&&...++@@++  XX##OOOOOO#OOXX&&&&&&",
"&&&&&&&&&&...++@@++  XX##OOOOOO#OOXX&&&&&&",
"&&&&&&&&&&&&&..@@@@++OOOOOOOOOOOXX&&&&&&&&",
"&&&&&&&&&&&&&..@@@@++OOOOOOOOOOOXX&&&&&&&&",
"&&&&&&&&&&&&&&&..%%++OOooOOooOOOXX&&&&&&&&",
"&&&&&&&&&&&&&&&..%%++OOooOOooOOOXX&&&&&&&&",
"&&&&&&&&&&&&&&&..%%@@++OOOOOOoo.&&&&&&&&&&",
"&&&&&&&&&&&&&&&..%%@@++OOOOOOoo.&&&&&&&&&&",
"&&&&&&&&&&&&&&&&&..@@%%%%......&&&&&&&&&&&",
"&&&&&&&&&&&&&&&&&..@@%%%%......&&&&&&&&&&&",
"&&&&&&&&&&&&&&&&&..@@%%..&&&&&&&&&&&&&&&&&",
"&&&&&&&&&&&&&&&&&..@@%%..&&&&&&&&&&&&&&&&&",
"&&&&&&&&&&&&&&&&&..%%%%..&&&&&&&&&&&&&&&&&",
"&&&&&&&&&&&&&&&&&..%%%%..&&&&&&&&&&&&&&&&&",
"&&&&&&&&&&&&&&&..@@%%%%@@..&&&&&&&&&&&&&&&",
"&&&&&&&&&&&&&&&..@@%%%%@@..&&&&&&&&&&&&&&&",
"&&&&&&&&&&&&&$$..@@%%%%@@..$$$&&&&&&&&&&&&",
"&&&&&&&&&&$$$..%%@@%%@@@@%%..$$$&&&&&&&&&&",
"&&&&&&&&&$$$$..%%@@%%@@@@%%..$$$$&&&&&&&&&",
"&&&&&&&&$$$$$$$....@@%%....$$$$$$$&&&&&&&&",
"&&&&&&&&$$$$$$$....@@%%....$$$$$$$&&&&&&&&",
"&&&&&&&&$$$$$$$$$$$....$$$$$$$$$$$&&&&&&&&",
"&&&&&&&&&$$$$$$$$$$....$$$$$$$$$$&&&&&&&&&",
"&&&&&&&&&&$$$$$$$$$$$$$$$$$$$$$$&&&&&&&&&&",
"&&&&&&&&&&&&&$$$$$$$$$$$$$$$$&&&&&&&&&&&&&",
"&&&&&&&&&&&&&&&&&$$$$$$$$&&&&&&&&&&&&&&&&&",
"&&&&&&&&&&&&&&&&&&&&&&&&&&&&&&&&&&&&&&&&&&"
};
