/* XPM */
static char *result[] = {
/* columns rows colors chars-per-pixel */
"64 64 16 1 ",
"  c black",
". c #385038",
"X c #504838",
"o c #484848",
"O c #685848",
"+ c #A9000000",
"@ c #987038",
"# c #40A030",
"$ c #60B050",
"% c #C89018",
"& c #E0B828",
"* c #80C830",
"= c #A0E070",
"- c #A8B0C8",
"; c #E8E8F8",
": c None",
/* pixels */
"::::::::::::::::::::::::::::::::::::::::::::::::::::::::::::::::",
"::::::::::::::::::::::::::::::::::::::::::::::::::::::::::::::::",
"::::::::::::::::::::::::::::::::::::::::::::::::::::::::::::::::",
"::::::::::::::::::::::::::::::::::::::::::::::::::::::::::::::::",
"::::::::::::::::::::::::::::::::::::::::::::::::::::::::::::::::",
"::::::::::::::::::::::::::::::::::::::::::::::::::::::::::::::::",
"::::::::::::::::::::::::::::::::::::::::::::::::::::::::::::::::",
"::::::::::::::::::::::::::::::::::::::::::::::::::::::::::::::::",
"::::::::::::::::::::::::::::::::::::::::::::::::::::::::::::::::",
"::::::::::::::::::::::::::::::::::::::::::::::::::::::::::::::::",
"::::::::::::::::::::::::::::::::::::::::::::::::::::::::::::::::",
"::::::::::::::::::::::::::::::::::::::::::::::::::::::::::::::::",
"::::::::::::::::::::::::::::::::::::::::::::::::::::::::::::::::",
"::::::::::::::::::::::::::::::::::::::::::::::::::::::::::::::::",
"::::::::::::::::::::::::::::::::::::::::::::::::::::::::::::::::",
"::::::::::::::::::::::::::::::::::::::::::::::::::::::::::::::::",
"::::::::::::::::::::::::::::::::::::::::::::::::::::::::::::::::",
"::::::::::::::::::::::::::::::::::::::::::::::::::::::::::::::::",
"::::::::::::::::::::::::::::::::::::::::::::::::::::::::::::::::",
"::::::::::::::::::::::::::::::::::::::::::::::::::::::::::::::::",
"::::::::::::::::::::::::::::::::::::::::::::::::::::::::::::::::",
"::::::::::::::::::::::::::::::::::::::::::::::::::::::::::::::::",
"::::::::::::::::::::::::::::::::::::::::::::::::::::::::::::::::",
"::::::::::::::::::::::::::::::::::::::::::::::::::::::::::::::::",
"::::::::::::::::::::::::..    ::::::::::::::::::::::::::::::::::",
"::::::::::::::::::::::::..    ::::::::::::::::::::::::::::::::::",
"::::::::::::::::::::....######    ::::::::::::::::::::::::::::::",
"::::::::::::::::::::....######    ::::::::::::::::::::::::::::::",
"::::::::::::::::::..####..######..  ::::::::::::::::::::::::::::",
"::::::::::::::::::..####..######..  ::::::::::::::::::::::::::::",
"::::::::::::::::::..########..####  ::::::::::::::::::::::::::::",
"::::::::::::::::::..########..####  ::::::::::::::::::::::::::::",
"::::::::::::::::..##..##ooooooooooXX  oo::::::::::::::::::::::::",
"::::::::::::::::..##..##ooooooooooXX  oo::::::::::::::::::::::::",
"::::::::::::::::..@@    @@    @@@@OOOOoo  ::::::::::::::::::::::",
"::::::::::::::::..@@    @@    @@@@OOOOoo  ::::::::::::::::::::::",
"::::::::::::::oo@@  **##  ..**  oo@@@@@@@@  ::::::::::::::::::::",
"::::::::::::::oo@@  **##  ..**  oo@@@@@@@@  ::::::::::::::::::::",
"::::::::::oooo@@  ******##******  OOOOOO@@@@XX::::::::::::::::::",
"::::::::::oooo@@  ******##******  OOOOOO@@@@XX::::::::::::::::::",
"::::::oooo&&OO&&  ******##****##  %%%%OOOOOO%%XX::::::::::::::::",
"::::::oooo&&OO&&  ******##****##  %%%%OOOOOO%%XX::::::::::::::::",
"::::::  &&&&%%..**##****######..@@XX%%%%&&&&%%  ::::::::::::::::",
"::::::  &&&&%%..**##****######..@@XX%%%%&&&&%%  ::::::::::::::::",
"::::::::  &&&&..##..##  ##..##    XX&&&&%%%%  ..::::::::::::::::",
"::::::::  &&&&..##..##  ##..##    XX&&&&%%%%  ..::::::::::::::::",
"::::::::..  %%&&..    ..    ..%%%%&&%%%%--oo==$$..::::::::::::::",
"::::::::..  %%&&..    ..    ..%%%%&&%%%%--oo==$$..::::::::::::::",
"::::::::::..    %%%%%%%%%%%%%%&&XXXXXXXX;;  $$==..::::::::::::::",
"::::::::::..    %%%%%%%%%%%%%%&&XXXXXXXX;;  $$==..::::::::::::::",
"::::::::::::....      XXXXXXXX......  &&%%$$$$....::::::::::::::",
"::::::::::::....      XXXXXXXX......  &&%%$$$$....::::::::::::::",
"::::::::::::::..$$$$..........$$$$  &&%%%%....::::::::::::::::::",
":::::::::::::+..$$$$..........$$$$  &&%%%%....::::::::::::::::::",
"::::::::::::..$$$$$$$$  ....  $$$$$$    oo++::::::::::::::::::::",
":::::::::::+..$$$$$$$$  ....  $$$$$$    oo+++:::::::::::::::::::",
":::::::::::+  %%%%--  ++++++++  %%%%--..+++++:::::::::::::::::::",
":::::::::::+  %%%%--  ++++++++  %%%%--..+++++:::::::::::::::::::",
":::::::::::+++      ++++++++++++      +++++++:::::::::::::::::::",
"::::::::::::++      ++++++++++++      ++++++::::::::::::::::::::",
":::::::::::::++++++++++++++++++++++++++++++:::::::::::::::::::::",
":::::::::::::::++++++++++++++++++++++++++:::::::::::::::::::::::",
":::::::::::::::::++++++++++++++++++++++:::::::::::::::::::::::::",
"::::::::::::::::::::::++++++++++++::::::::::::::::::::::::::::::"
};
