/* XPM */
static char *result[] = {
/* columns rows colors chars-per-pixel */
"64 64 13 1 ",
"  c black",
". c #385038",
"X c #504838",
"o c #484848",
"O c #685848",
"+ c #A9000000",
"@ c #987038",
"# c #40A030",
"$ c #60B050",
"% c #C89018",
"& c #E0B828",
"* c #80C830",
"= c None",
/* pixels */
"================================================================",
"================================================================",
"================================================================",
"================================================================",
"================================================================",
"================================================================",
"================================================================",
"================================================================",
"================================================================",
"================================================================",
"================================================================",
"================================================================",
"================================================================",
"================================================================",
"================================================================",
"================================================================",
"================================================================",
"================================================================",
"================================================================",
"================================================================",
"================================================================",
"================================================================",
"================================================================",
"================================================================",
"==================....========  ========....====================",
"==================....========  ========....====================",
"================..**##..==oo  @@  oo==..##**..==================",
"================..**##..==oo  @@  oo==..##**..==================",
"==============..**##****oo%%  @@  %%oo****####..================",
"==============..**##****oo%%  @@  %%oo****####..================",
"==============..******..%%&&  @@  &&%%..******..================",
"==============..******..%%&&  @@  &&%%..******..================",
"============..##******##..&&  @@  &&..##******##..==============",
"============..##******##..&&  @@  &&..##******##..==============",
"============..****######..%%XX@@XX%%..####**##**..==============",
"============..****######..%%XX@@XX%%..####**##**..==============",
"============  ..####**  %%&&XX@@XX&&%%  **####..  ==============",
"============  ..####**  %%&&XX@@XX&&%%  **####..  ==============",
"============  ####**####  &&XXOOXX&&  ####**####  ==============",
"============  ####**####  &&XXOOXX&&  ####**####  ==============",
"==============  ####OOXX  &&%%OO%%&&  XXOO####  ================",
"==============  ####OOXX  &&%%OO%%&&  XXOO####  ================",
"================    @@  %%%%%%XX%%%%%%  @@    ==================",
"================    @@  %%%%%%XX%%%%%%  @@    ==================",
"================oo%%  XX%%&&&&&&&&&&%%XX  %%oo==================",
"================oo%%  XX%%&&&&&&&&&&%%XX  %%oo==================",
"==================oo%%%%&&&&&&&&&&&&&&%%%%oo====================",
"==================oo%%%%&&&&&&&&&&&&&&%%%%oo====================",
"================..$$  %%&&&&%%%%%%&&&&%%  ..====================",
"================..$$  %%&&&&%%%%%%&&&&%%  ..====================",
"================..$$..  oo%%&&&&&&%%oo  ..$$..==================",
"================..$$..  oo%%&&&&&&%%oo  ..$$..==================",
"================..$$$$..  oooo&&oooo  ..$$$$..==================",
"================..$$$$..  oooo&&oooo  ..$$$$..==================",
"===============+  %%%%OOoo  ..  ..  oo$$$$$$  +=================",
"==============++  %%%%OOoo  ..  ..  oo$$$$$$  ++================",
"==============++++      ++++++++++++oo%%%%%%  ++================",
"==============++++      ++++++++++++oo%%%%%%  ++================",
"==============++++++++++++++++++++++++      ++++================",
"===============+++++++++++++++++++++++      +++=================",
"================++++++++++++++++++++++++++++++==================",
"==================++++++++++++++++++++++++++====================",
"====================++++++++++++++++++++++======================",
"=========================++++++++++++==========================="
};
