/* XPM */
static char *result[] = {
/* columns rows colors chars-per-pixel */
"64 64 16 1 ",
"  c black",
". c #683828",
"X c #901818",
"o c #F03828",
"O c #805838",
"+ c #B86020",
"@ c #B87840",
"# c #D05040",
"$ c #A9000000",
"% c #F08010",
"& c #F8C000",
"* c #D8B870",
"= c #3890D0",
"- c #F8E8A8",
"; c #E8E8F8",
": c None",
/* pixels */
"::::::::::::::::::::::::::::::::::::::::::::::::::::::::::::::::",
"::::::::::::::::::::::::::::::::::::::::::::::::::::::::::::::::",
"::::::::::::::::::::::::::::::::::::::::::::::::::::::::::::::::",
"::::::::::::::::::::::::::::::::::::::::::::::::::::::::::::::::",
"::::::::::::::::::::::::::::::::::::::::::::::::::::::::::::::::",
"::::::::::::::::::::::::::::::::::::::::::::::::::::::::::::::::",
"::::::::::::::::::::::::::::::::::::::::::::::::::::::::::::::::",
"::::::::::::::::::::::::::::::::::::::::::::::::::::::::::::::::",
"::::::::::::::::::::::::::::::::::::::::::::::::::::::::::::::::",
"::::::::::::::::::::::::::::::::::::::::::::::::::::::::::::::::",
"::::::::::::::::::::::::::::::::::::::::::::::::::::::::::::::::",
"::::::::::::::::::::::::::::::::::::::::::::::::::::::::::::::::",
"::::::::::::::::::::::::::::::::::::::::::::::::::::::::::::::::",
"::::::::::::::::::::::::::::::::::::::::::::::::::::::::::::::::",
"::::::::::::::::::::::::::::::::::::::::::::::::::::::::::::::::",
"::::::::::::::::::::::::::::::::::::::::::::::::::::::::::::::::",
"::::::::::::::::::::::::::::::::::::::::::::::::::::::::::::::::",
"::::::::::::::::::::::::::::::::::::::::::::::::::::::::::::::::",
"::::::::::::::::::::::::::::  ........::::::::::::::::::::::::::",
"::::::::::::::::::::::::::::  ........::::::::::::::::::::::::::",
"::::::::::::::::::::::::::::  ++++++%%....::::::::::::::::::::::",
"::::::::::::::::::::::::::::  ++++++%%....::::::::::::::::::::::",
"::::::::::::::::::::::::::::..  %%++++%%%%..  ::::::::::::::::::",
"::::::::::::::::::::::::::::..  %%++++%%%%..  ::::::::::::::::::",
"::::::::::::::::::::::::::..++%%OO%%%%%%%%%%==  ::::::::::::::::",
"::::::::::::::::::::::::::..++%%OO%%%%%%%%%%==  ::::::::::::::::",
"::::::::::::::::::::::::::..%%%%%%%%%%%%%%%%++  ::::::::::::::::",
"::::::::::::::::::::::::::..%%%%%%%%%%%%%%%%++  ::::::::::::::::",
"::::::::::::::::::::::::..++%%%%%%%%%%%%%%%%++==  ::::::::::::::",
"::::::::::::::::::::::::..++%%%%%%%%%%%%%%%%++==  ::::::::::::::",
"::::::::::::::::::::::::..%%%%%%%%%%%%%%%%%%++==  ::::::::::::::",
"::::::::::::::::::::::::..%%%%%%%%%%%%%%%%%%++==  ::::::::::::::",
"::::::::::::::XXXX::::::..++%%%%    %%%%%%++====..::::::::::::::",
"::::::::::::::XXXX::::::..++%%%%    %%%%%%++====..::::::::::::::",
"::::::::::::::XXooXX::::  ++++  ----..++========##  ::::::::::::",
"::::::::::::::XXooXX::::  ++++  ----..++========##  ::::::::::::",
"::::::::::::XXooooXX::::::  ++  ****--====..++==**  ::::::::::::",
"::::::::::::XXooooXX::::::  ++  ****--====..++==**  ::::::::::::",
"::::::::::::XXooooXX::::::  ++  **@@**====;;..----  ::::::::::::",
"::::::::::::XXooooXX::::::  ++  **@@**====;;..----  ::::::::::::",
"::::::::::XXooooooXX::::::::  ++  **@@++==;;  **  ::::::::::::::",
"::::::::::XXooooooXX::::::::  ++  **@@++==;;  **  ::::::::::::::",
"::::::::::XXoo&&ooooXX::::::::  ..  ..++++**@@..::::::::::::::::",
"::::::::::XXoo&&ooooXX::::::::  ..  ..++++**@@..::::::::::::::::",
"::::::::::::XX&&&&ooXX::::::::..OO++OO......::::::::::::::::::::",
"::::::::::::XX&&&&ooXX::::::::..OO++OO......::::::::::::::::::::",
"::::::::::::XXoo&&XX::::::::::..++++    ..::::::::::::::::::::::",
"::::::::::::XXoo&&XX::::::::::..++++    ..::::::::::::::::::::::",
"::::::::::::::..%%OOOO::::::..++..++&&++..  ::::::::::::::::::::",
"::::::::::::::..%%OOOO::::::..++..++&&++..  ::::::::::::::::::::",
"::::::::::::::::..%%++OOOOOO++##....++++%%OO  ::::::::::::::::::",
"::::::::::::::::..%%++OOOOOO++##....++++%%OO  ::::::::::::::::::",
"::::::::::::::::::....%%++++  ##++..%%%%@@**  ::::::::::::::::::",
"::::::::::::::::::....%%++++  ##++..%%%%@@**  ::::::::::::::::::",
"::::::::::::::::::::::..    ....++++  **@@  ::::::::::::::::::::",
"::::::::::::::::::::::..    ....++++  **@@  ::::::::::::::::::::",
":::::::::::::::::::::::$$$$$  OOOO@@..    $$$:::::::::::::::::::",
"::::::::::::::::::::::$$$$$$  OOOO@@..    $$$$::::::::::::::::::",
"::::::::::::::::::::::$$$$$$$$      $$$$$$$$$$::::::::::::::::::",
"::::::::::::::::::::::$$$$$$$$      $$$$$$$$$$::::::::::::::::::",
"::::::::::::::::::::::$$$$$$$$$$$$$$$$$$$$$$$:::::::::::::::::::",
"::::::::::::::::::::::::$$$$$$$$$$$$$$$$$$$$::::::::::::::::::::",
"::::::::::::::::::::::::::$$$$$$$$$$$$$$$$::::::::::::::::::::::",
":::::::::::::::::::::::::::::::$$$$$$:::::::::::::::::::::::::::"
};
