/* XPM */
static char *result[] = {
/* columns rows colors chars-per-pixel */
"64 64 16 1 ",
"  c black",
". c #683828",
"X c #901818",
"o c #F03828",
"O c #805838",
"+ c #B86020",
"@ c #B87840",
"# c #D05040",
"$ c #A9000000",
"% c #F08010",
"& c #F8C000",
"* c #D8B870",
"= c #989898",
"- c #F8E8A8",
"; c #E8E8F8",
": c None",
/* pixels */
"::::::::::::::::::::::::::::::::::::::::::::::::::::::::::::::::",
"::::::::::::::::::::::::::::::::::::::::::::::::::::::::::::::::",
"::::::::::::::::::::::::::::::::::::::::::::::::::::::::::::::::",
"::::::::::::::::::::::::::::::::::::::::::::::::::::::::::::::::",
"::::::::::::::::::::::::::::::::::::::::::::::::::::::::::::::::",
"::::::::::::::::::::::::::::::::::::::::::::::::::::::::::::::::",
"::::::::::::::::::::::::::::::::::::::::::::::::::::::::::::::::",
"::::::::::::::::::::::::::::::::::::::::::::::::::::::::::::::::",
"::::::::::::::::::::::::::::::::::::::::::::::::::::::::::::::::",
"::::::::::::::::::::::::::::::::::::::::::::::::::::::::::::::::",
"::::::::::::::::::::::::::::::::::::::::::::::::::::::::::::::::",
"::::::::::::::::::::::::::::::::::::::::::::::::::::::::::::::::",
"::::::::::::::::::::::::::::::::::::::::::::::::::::::::::::::::",
"::::::::::::::::::::::::::::::::::::::::::::::::::::::::::::::::",
"::::::::::::::::::::::::::::::::::::::::::::::::::::::::::::::::",
"::::::::::::::::::::::::::::::::::::::::::::::::::::::::::::::::",
"::::::::::::::::::::::::::::::..::::::::::::::::::::::::::::::::",
"::::::::::::::::::::::::::::::..::::::::::::::::::::::::::::::::",
"::::::::::::::::::::::::::::..%%..::::::::::::::::::::::::::::::",
"::::::::::::::::::::::::::::..%%..::::::::::::::::::::::::::::::",
"::::::::::::::::::::::::....++%%++....::::::::::::::::::::::::::",
"::::::::::::::::::::::::....++%%++....::::::::::::::::::::::::::",
"::::::::::::::::::::::..%%OO%%%%%%OO%%..::::::::::::::::::::::::",
"::::::::::::::::::::::..%%OO%%%%%%OO%%..::::::::::::::::::::::::",
"::::::::::::::::::::..%%%%%%OO++OO%%%%%%..::::::::::::::::::::::",
"::::::::::::::::::::..%%%%%%OO++OO%%%%%%..::::::::::::::::::::::",
"::::::::::::::::::..++%%%%%%%%++%%%%%%%%++..::::::::::::::::::::",
"::::::::::::::::::..++%%%%%%%%++%%%%%%%%++..::::::::::::::::::::",
"::::::::::::::::  ..%%%%%%%%%%%%%%%%%%%%%%..  ::::::::::::::::::",
"::::::::::::::::  ..%%%%%%%%%%%%%%%%%%%%%%..  ::::::::::::::::::",
"::::::::::::::  --..%%%%%%%%%%%%%%%%%%%%%%..--  ::::::::::::::::",
"::::::::::::::  --..%%%%%%%%%%%%%%%%%%%%%%..--  ::::::::::::::::",
"::::::::::::::  --..++%%%%%%%%XXXX%%%%%%++..--  ::::::::::::::::",
"::::::::::::::  --..++%%%%%%%%XXXX%%%%%%++..--  ::::::::::::::::",
"::::::::::::::  ****..++%%%%XXooXX%%%%++..****  ::::::::::::::::",
"::::::::::::::  ****..++%%%%XXooXX%%%%++..****  ::::::::::::::::",
"::::::::::::::  @@**..++++++XXooXX++++++..**@@  ::::::::::::::::",
"::::::::::::::  @@**..++++++XXooXX++++++..**@@  ::::::::::::::::",
"::::::::::::::::  @@  ++++XXooooooXX++++  @@  ::::::::::::::::::",
"::::::::::::::::  @@  ++++XXooooooXX++++  @@  ::::::::::::::::::",
"::::::::::::::::::    OO++XXoo&&ooXX++OO    ::::::::::::::::::::",
"::::::::::::::::::    OO++XXoo&&ooXX++OO    ::::::::::::::::::::",
"::::::::::::::::::::..  ..XXoo&&&&ooXX  ..::::::::::::::::::::::",
"::::::::::::::::::::..  ..XXoo&&&&ooXX  ..::::::::::::::::::::::",
"::::::::::::::::..OO&&++++;;XX&&&&ooXX++&&..::::::::::::::::::::",
"::::::::::::::::..OO&&++++;;XX&&&&ooXX++&&..::::::::::::::::::::",
"::::::::::::::  **%%++&&OO==;;..&&XXOO&&++++..::::::::::::::::::",
"::::::::::::::  **%%++&&OO==;;..&&XXOO&&++++..::::::::::::::::::",
"::::::::::::::  OO@@++  %%%%==..%%..%%..OO++@@..::::::::::::::::",
"::::::::::::::  OO@@++  %%%%==..%%..%%..OO++@@..::::::::::::::::",
"::::::::::::::::....  ..++%%%%..%%..++  @@OO**  ::::::::::::::::",
"::::::::::::::::....  ..++%%%%..%%..++  @@OO**  ::::::::::::::::",
"::::::::::::::::::::..++++++OO%%..++++++    ..::::::::::::::::::",
"::::::::::::::::::::..++++++OO%%..++++++    ..::::::::::::::::::",
"::::::::::::::::::::..++..++##OO##++..OO..::::::::::::::::::::::",
":::::::::::::::::::$..++..++##OO##++..OO..::::::::::::::::::::::",
"::::::::::::::::::$$  @@@@OO      ..    $$$:::::::::::::::::::::",
"::::::::::::::::::$$  @@@@OO      ..    $$$:::::::::::::::::::::",
"::::::::::::::::::$$$$    ..$$$$$$$$$$$$$$$:::::::::::::::::::::",
":::::::::::::::::::$$$    ..$$$$$$$$$$$$$$::::::::::::::::::::::",
"::::::::::::::::::::$$$$$$$$$$$$$$$$$$$$$:::::::::::::::::::::::",
":::::::::::::::::::::::$$$$$$$$$$$$$$$::::::::::::::::::::::::::",
"::::::::::::::::::::::::::::$$$$$:::::::::::::::::::::::::::::::",
"::::::::::::::::::::::::::::::::::::::::::::::::::::::::::::::::"
};
