/* XPM */
static char *result[] = {
/* columns rows colors chars-per-pixel */
"64 64 15 1 ",
"  c black",
". c #683828",
"X c #805838",
"o c #B86020",
"O c #B87840",
"+ c #D05040",
"@ c #A9000000",
"# c #F08010",
"$ c #F8C000",
"% c #D8B870",
"& c #3890D0",
"* c #989898",
"= c #F8E8A8",
"- c #E8E8F8",
"; c None",
/* pixels */
";;;;;;;;;;;;;;;;;;;;;;;;;;;;;;;;;;;;;;;;;;;;;;;;;;;;;;;;;;;;;;;;",
";;;;;;;;;;;;;;;;;;;;;;;;;;;;;;;;;;;;;;;;;;;;;;;;;;;;;;;;;;;;;;;;",
";;;;;;;;;;;;;;;;;;;;;;;;;;;;;;;;;;;;;;;;;;;;;;;;;;;;;;;;;;;;;;;;",
";;;;;;;;;;;;;;;;;;;;;;;;;;;;;;;;;;;;;;;;;;;;;;;;;;;;;;;;;;;;;;;;",
";;;;;;;;;;;;;;;;;;;;;;;;;;;;;;;;;;;;;;;;;;;;;;;;;;;;;;;;;;;;;;;;",
";;;;;;;;;;;;;;;;;;;;;;;;;;;;;;;;;;;;;;;;;;;;;;;;;;;;;;;;;;;;;;;;",
";;;;;;;;;;;;;;;;;;;;;;;;;;;;;;;;;;;;;;;;;;;;;;;;;;;;;;;;;;;;;;;;",
";;;;;;;;;;;;;;;;;;;;;;;;;;;;;;;;;;;;;;;;;;;;;;;;;;;;;;;;;;;;;;;;",
";;;;;;;;;;;;;;;;;;;;;;;;;;;;;;;;;;;;;;;;;;;;;;;;;;;;;;;;;;;;;;;;",
";;;;;;;;;;;;;;;;;;;;;;;;;;;;;;;;;;;;;;;;;;;;;;;;;;;;;;;;;;;;;;;;",
";;;;;;;;;;;;;;;;;;;;;;;;;;;;;;;;;;;;;;;;;;;;;;;;;;;;;;;;;;;;;;;;",
";;;;;;;;;;;;;;;;;;;;;;;;;;;;;;;;;;;;;;;;;;;;;;;;;;;;;;;;;;;;;;;;",
";;;;;;;;;;;;;;;;;;;;;;;;;;;;;;;;;;;;;;;;;;;;;;;;;;;;;;;;;;;;;;;;",
";;;;;;;;;;;;;;;;;;;;;;;;;;;;;;;;;;;;;;;;;;;;;;;;;;;;;;;;;;;;;;;;",
";;;;;;;;;;;;;;;;;;;;;;;;;;;;;;;;;;;;;;;;;;;;;;;;;;;;;;;;;;;;;;;;",
";;;;;;;;;;;;;;;;;;;;;;;;;;;;;;;;;;;;;;;;;;;;;;;;;;;;;;;;;;;;;;;;",
";;;;;;;;;;;;;;;;;;;;;;;;;;;;;;..;;;;;;;;;;;;;;;;;;;;;;;;;;;;;;;;",
";;;;;;;;;;;;;;;;;;;;;;;;;;;;;;..;;;;;;;;;;;;;;;;;;;;;;;;;;;;;;;;",
";;;;;;;;;;;;;;;;;;;;;;;;;;;;..##..;;;;;;;;;;;;;;;;;;;;;;;;;;;;;;",
";;;;;;;;;;;;;;;;;;;;;;;;;;;;..##..;;;;;;;;;;;;;;;;;;;;;;;;;;;;;;",
";;;;;;;;;;;;;;;;;;;;;;;;....oo##oo....;;;;;;;;;;;;;;;;;;;;;;;;;;",
";;;;;;;;;;;;;;;;;;;;;;;;....oo##oo....;;;;;;;;;;;;;;;;;;;;;;;;;;",
";;;;;;;;;;;;;;;;;;;;;;..##XX######XX##..;;;;;;;;;;;;;;;;;;;;;;;;",
";;;;;;;;;;;;;;;;;;;;;;..##XX######XX##..;;;;;;;;;;;;;;;;;;;;;;;;",
";;;;;;;;;;;;;;;;;;;;..##################..;;;;;;;;;;;;;;;;;;;;;;",
";;;;;;;;;;;;;;;;;;;;..##################..;;;;;;;;;;;;;;;;;;;;;;",
";;;;;;;;;;;;;;;;;;..oo##################oo..;;;;;;;;;;;;;;;;;;;;",
";;;;;;;;;;;;;;;;;;..oo##################oo..;;;;;;;;;;;;;;;;;;;;",
";;;;;;;;;;;;;;;;    oooo##############oooo    ;;;;;;;;;;;;;;;;;;",
";;;;;;;;;;;;;;;;    oooo##############oooo    ;;;;;;;;;;;;;;;;;;",
";;;;;;;;;;;;;;  ==XX  oooo##########oooo  XX==  ;;;;;;;;;;;;;;;;",
";;;;;;;;;;;;;;  ==XX  oooo##########oooo  XX==  ;;;;;;;;;;;;;;;;",
";;;;;;;;;;;;;;  %%%%  ..&&&&..oo..&&&&..  %%%%  ;;;;;;;;;;;;;;;;",
";;;;;;;;;;;;;;  %%%%  ..&&&&..oo..&&&&..  %%%%  ;;;;;;;;;;;;;;;;",
";;;;;;;;;;;;;;  %%OOXX&&&&&&&&..&&&&&&&&XXOO%%  ;;;;;;;;;;;;;;;;",
";;;;;;;;;;;;;;  %%OOXX&&&&&&&&..&&&&&&&&XXOO%%  ;;;;;;;;;;;;;;;;",
";;;;;;;;;;;;;;;;XXOOXX&&..oo&&&&&&oo..&&XXOOXX;;;;;;;;;;;;;;;;;;",
";;;;;;;;;;;;;;;;XXOOXX&&..oo&&&&&&oo..&&XXOOXX;;;;;;;;;;;;;;;;;;",
";;;;;;;;;;;;;;;;  %%..oo--..++&&++..--oo..%%  ;;;;;;;;;;;;;;;;;;",
";;;;;;;;;;;;;;;;  %%..oo--..++&&++..--oo..%%  ;;;;;;;;;;;;;;;;;;",
";;;;;;;;;;;;;;;;;;    %%--  ++++++  --%%    ;;;;;;;;;;;;;;;;;;;;",
";;;;;;;;;;;;;;;;;;    %%--  ++++++  --%%    ;;;;;;;;;;;;;;;;;;;;",
";;;;;;;;;;;;;;;;;;;;..  %%====%%====%%  ..XX;;;;;;;;;;;;;;;;;;;;",
";;;;;;;;;;;;;;;;;;;;..  %%====%%====%%  ..XX;;;;;;;;;;;;;;;;;;;;",
";;;;;;;;;;;;;;;;;;..$$oo    %%==%%    oo$$oo..;;;;;;;;;;;;;;;;;;",
";;;;;;;;;;;;;;;;;;..$$oo    %%==%%    oo$$oo..;;;;;;;;;;;;;;;;;;",
";;;;;;;;;;;;;;;;..####$$XX--      --XX$$oo##%%..;;;;;;;;;;;;;;;;",
";;;;;;;;;;;;;;;;..####$$XX--      --XX$$oo##%%..;;;;;;;;;;;;;;;;",
";;;;;;;;;;;;;;..OOXX##oo..**--**--**oo..oo%%OO  ;;;;;;;;;;;;;;;;",
";;;;;;;;;;;;;;..OOXX##oo..**--**--**oo..oo%%OO  ;;;;;;;;;;;;;;;;",
";;;;;;;;;;;;;;  %%OO%%  oo##**%%**####XX....  ;;;;;;;;;;;;;;;;;;",
";;;;;;;;;;;;;;  %%OO%%  oo##**%%**####XX....  ;;;;;;;;;;;;;;;;;;",
";;;;;;;;;;;;;;;;      oo##oo%%%%%%####ooXX;;;;;;;;;;;;;;;;;;;;;;",
";;;;;;;;;;;;;;;;      oo##oo%%%%%%####ooXX;;;;;;;;;;;;;;;;;;;;;;",
";;;;;;;;;;;;;;;;;;;;..oooo..OOOOOO..##oo..;;;;;;;;;;;;;;;;;;;;;;",
";;;;;;;;;;;;;;;;;;;;..oooo..OOOOOO..##oo..;;;;;;;;;;;;;;;;;;;;;;",
";;;;;;;;;;;;;;;;;;;;;@    ..      XXOOXX  ;;;;;;;;;;;;;;;;;;;;;;",
";;;;;;;;;;;;;;;;;;;@@@    ..      XXOOXX  ;;;;;;;;;;;;;;;;;;;;;;",
";;;;;;;;;;;;;;;;;;;@@@@@@@@@@@@@@@..    @@@;;;;;;;;;;;;;;;;;;;;;",
";;;;;;;;;;;;;;;;;;@@@@@@@@@@@@@@@@..    @@@;;;;;;;;;;;;;;;;;;;;;",
";;;;;;;;;;;;;;;;;;;@@@@@@@@@@@@@@@@@@@@@@@@;;;;;;;;;;;;;;;;;;;;;",
";;;;;;;;;;;;;;;;;;;@@@@@@@@@@@@@@@@@@@@@@@@;;;;;;;;;;;;;;;;;;;;;",
";;;;;;;;;;;;;;;;;;;;;@@@@@@@@@@@@@@@@@@@@;;;;;;;;;;;;;;;;;;;;;;;",
";;;;;;;;;;;;;;;;;;;;;;;@@@@@@@@@@@@@@@@;;;;;;;;;;;;;;;;;;;;;;;;;"
};
