/* XPM */
static char *result[] = {
/* columns rows colors chars-per-pixel */
"64 64 16 1 ",
"  c black",
". c #683828",
"X c #901818",
"o c #F03828",
"O c #805838",
"+ c #B86020",
"@ c #B87840",
"# c #D05040",
"$ c #A9000000",
"% c #F08010",
"& c #F8C000",
"* c #D8B870",
"= c #3890D0",
"- c #F8E8A8",
"; c #E8E8F8",
": c None",
/* pixels */
"::::::::::::::::::::::::::::::::::::::::::::::::::::::::::::::::",
"::::::::::::::::::::::::::::::::::::::::::::::::::::::::::::::::",
"::::::::::::::::::::::::::::::::::::::::::::::::::::::::::::::::",
"::::::::::::::::::::::::::::::::::::::::::::::::::::::::::::::::",
"::::::::::::::::::::::::::::::::::::::::::::::::::::::::::::::::",
"::::::::::::::::::::::::::::::::::::::::::::::::::::::::::::::::",
"::::::::::::::::::::::::::::::::::::::::::::::::::::::::::::::::",
"::::::::::::::::::::::::::::::::::::::::::::::::::::::::::::::::",
"::::::::::::::::::::::::::::::::::::::::::::::::::::::::::::::::",
"::::::::::::::::::::::::::::::::::::::::::::::::::::::::::::::::",
"::::::::::::::::::::::::::::::::::::::::::::::::::::::::::::::::",
"::::::::::::::::::::::::::::::::::::::::::::::::::::::::::::::::",
"::::::::::::::::::::::::::::::::::::::::::::::::::::::::::::::::",
"::::::::::::::::::::::::::::::::::::::::::::::::::::::::::::::::",
"::::::::::::::::::::::::::::::::::::::::::::::::::::::::::::::::",
"::::::::::::::::::::::::::::::::::::::::::::::::::::::::::::::::",
"::::::::::::::::::::::::::::::::::::::::::::::::::::::::::::::::",
"::::::::::::::::::::::::::::::::::::::::::::::::::::::::::::::::",
"::::::::::::::::::::::::::........  ::::::::::::::::::::::::::::",
"::::::::::::::::::::::::::........  ::::::::::::::::::::::::::::",
"::::::::::::::::::::::....%%++++++  ::::::::::::::::::::::::::::",
"::::::::::::::::::::::....%%++++++  ::::::::::::::::::::::::::::",
"::::::::::::::::::  ..%%%%++++%%  ..::::::::::::::::::::::::::::",
"::::::::::::::::::  ..%%%%++++%%  ..::::::::::::::::::::::::::::",
"::::::::::::::::  ==%%%%%%%%%%OO%%++..::::::::::::::::::::::::::",
"::::::::::::::::  ==%%%%%%%%%%OO%%++..::::::::::::::::::::::::::",
"::::::::::::::::  ++%%%%%%%%%%%%%%%%..::::::::::::::::::::::::::",
"::::::::::::::::  ++%%%%%%%%%%%%%%%%..::::::::::::::::::::::::::",
"::::::::::::::  ==++%%%%%%%%%%%%%%%%++..::::::::::::::::::::::::",
"::::::::::::::  ==++%%%%%%%%%%%%%%%%++..::::::::::::::::::::::::",
"::::::::::::::  ==++%%%%%%%%%%%%%%%%%%..::::::::::::::::::::::::",
"::::::::::::::  ==++%%%%%%%%%%%%%%%%%%..::::::::::::::::::::::::",
"::::::::::::::..====++%%%%%%    %%%%++..::::::XXXX::::::::::::::",
"::::::::::::::..====++%%%%%%    %%%%++..::::::XXXX::::::::::::::",
"::::::::::::  ##========++..----  ++++  ::::::XXooXX::::::::::::",
"::::::::::::  ##========++..----  ++++  ::::::XXooXX::::::::::::",
"::::::::::::  **==++..====--****  ++  ::::::::::XXooXX::::::::::",
"::::::::::::  **==++..====--****  ++  ::::::::::XXooXX::::::::::",
"::::::::::::  ----..;;====**@@**  ++  ::::::::XXooooXX::::::::::",
"::::::::::::  ----..;;====**@@**  ++  ::::::::XXooooXX::::::::::",
"::::::::::::::  **  ;;==++@@**  ++  ::::::::XXXXooooooXX::::::::",
"::::::::::::::  **  ;;==++@@**  ++  ::::::::XXXXooooooXX::::::::",
"::::::::::::::::..@@**++++..  ..  ::::::::XXoooooo&&XXXX::::::::",
"::::::::::::::::..@@**++++..  ..  ::::::::XXoooooo&&XXXX::::::::",
"::::::::::::::::::::......OO++..::::::::::XXoooo&&ooXX::::::::::",
"::::::::::::::::::::......OO++..::::::::::XXoooo&&ooXX::::::::::",
"::::::::::::::::::::::..OO++%%++  ::::::::::XX&&&&XX::::::::::::",
"::::::::::::::::::::::..OO++%%++  ::::::::::XX&&&&XX::::::::::::",
"::::::::::::::::::::::..++..@@&&..::::::::OOOO%%..::::::::::::::",
"::::::::::::::::::::::..++..@@&&..::::::::OOOO%%..::::::::::::::",
"::::::::::::::::::::..++++  %%%%++  OOOOOO++%%..::::::::::::::::",
"::::::::::::::::::::..++++  %%%%++  OOOOOO++%%..::::::::::::::::",
"::::::::::::::::::::..++++  ++@@%%  ++++%%....::::::::::::::::::",
"::::::::::::::::::::..++++  ++@@%%  ++++%%....::::::::::::::::::",
"::::::::::::::::::::::..++..**@@**..    ..::::::::::::::::::::::",
":::::::::::::::::::::$..++..**@@**..    ..::::::::::::::::::::::",
":::::::::::::::::::$$$  @@OO    ..$$$$$$$:::::::::::::::::::::::",
"::::::::::::::::::$$$$  @@OO    ..$$$$$$$$::::::::::::::::::::::",
"::::::::::::::::::$$$$..      $$$$$$$$$$$$::::::::::::::::::::::",
"::::::::::::::::::$$$$..      $$$$$$$$$$$$::::::::::::::::::::::",
"::::::::::::::::::$$$$$$$$$$$$$$$$$$$$$$$$::::::::::::::::::::::",
":::::::::::::::::::$$$$$$$$$$$$$$$$$$$$$::::::::::::::::::::::::",
":::::::::::::::::::::$$$$$$$$$$$$$$$$$::::::::::::::::::::::::::",
":::::::::::::::::::::::::$$$$$$$$$$:::::::::::::::::::::::::::::"
};
