/* XPM */
static char *result[] = {
/* columns rows colors chars-per-pixel */
"13 21 155 2 ",
"   c #EAE9EC",
".  c #E9E9EB",
"X  c #E9E9EA",
"o  c #EAE9EA",
"O  c #C9C8C9",
"+  c #878887",
"@  c #818281",
"#  c gray73",
"$  c #CBCACB",
"%  c #E7E6E8",
"&  c #ECEAEC",
"*  c #EBE9EB",
"=  c gray72",
"-  c #5A5B58",
";  c #545553",
":  c #A2A2A2",
">  c #BBB9BB",
",  c #E3E2E4",
"<  c #E6E5E7",
"1  c #B7B7B7",
"2  c #545653",
"3  c #5B5B5B",
"4  c #787778",
"5  c #A9A8A9",
"6  c #BDBCBD",
"7  c #E9E8EA",
"8  c #EAE9EB",
"9  c #535551",
"0  c #535452",
"q  c #6E6D6D",
"w  c #9C9B9B",
"e  c #AEADAD",
"r  c #E5E3E5",
"t  c #535351",
"y  c #5C5C5B",
"u  c #6B6A69",
"i  c #7D7C7B",
"p  c #B8B6B7",
"a  c #E0DFE1",
"s  c #EAE8EA",
"d  c #595A57",
"f  c #545451",
"g  c #535250",
"h  c #535251",
"j  c #525151",
"k  c #636261",
"l  c gray62",
"z  c #D6D7D7",
"x  c #E6E6E8",
"c  c #525150",
"v  c #51504F",
"b  c #515250",
"n  c #969797",
"m  c #B4B5B6",
"M  c #E2E3E4",
"N  c #E9EAEA",
"B  c #53524F",
"V  c #535352",
"C  c #515150",
"Z  c #8F9090",
"A  c #AFAFB0",
"S  c #DDDDDE",
"D  c #E3E3E4",
"F  c #B7B6B6",
"G  c #535350",
"H  c #525251",
"J  c #555656",
"K  c #676869",
"L  c #A3A4A5",
"P  c #AAABAB",
"I  c #DEDEDF",
"U  c #545350",
"Y  c #525352",
"T  c #777878",
"R  c #878889",
"E  c #A2A3A4",
"W  c #A6A7A7",
"Q  c #E1E1E2",
"!  c #545150",
"~  c #535150",
"^  c #505150",
"/  c #959696",
"(  c #A2A5A5",
")  c #A0A2A3",
"_  c #E1E1E3",
"`  c #585B59",
"'  c #737573",
"]  c #9B9E9D",
"[  c #ACAFAF",
"{  c #C1C3C4",
"}  c #C5C7C8",
"|  c #E4E3E5",
" . c #525250",
".. c #545554",
"X. c #656866",
"o. c #A0A1A0",
"O. c #A9ABAA",
"+. c #E1E2E3",
"@. c #EBEAEC",
"#. c #525450",
"$. c #50524F",
"%. c #636462",
"&. c #828382",
"*. c #8C8D8C",
"=. c #A5A6A4",
"-. c #C8C7C8",
";. c #D7D6D8",
":. c #B6B6B6",
">. c #525551",
",. c #505450",
"<. c #6C716E",
"1. c #9FA4A1",
"2. c #A4A9A6",
"3. c #A8ABA8",
"4. c gray87",
"5. c #EBE8EA",
"6. c #ECE8EA",
"7. c #ECE9EC",
"8. c #B6B5B6",
"9. c #5A5B5A",
"0. c #555755",
"q. c #7B7F7C",
"w. c #8A8F8D",
"e. c #A1A5A4",
"r. c #ABAFAE",
"t. c #CACCCC",
"y. c #E5E6E6",
"u. c #EAEAEB",
"i. c #BAB9BA",
"p. c #5E5F5E",
"a. c #5A5C5A",
"s. c #A5A8A8",
"d. c #B4B7B7",
"f. c #E3E5E5",
"g. c #D5D4D5",
"h. c #A9AAA9",
"j. c #A3A6A4",
"k. c #BABDBB",
"l. c #E5E7E7",
"z. c #E8EBEB",
"x. c #EAECED",
"c. c #E9EAEB",
"v. c #D4D3D4",
"b. c #AAABAA",
"n. c #A5A6A5",
"m. c #A4A5A3",
"M. c #BABBBA",
"N. c #E4E5E6",
"B. c #E7E8E9",
"V. c #E8E8E9",
"C. c #E6E5E6",
"Z. c #DCDDDB",
"A. c #DEDEDD",
"S. c #DFDEDF",
"D. c #E3E2E3",
/* pixels */
"  . X o o o o o o o o o o ",
"O + @ # $ % & * o o o o o ",
"= - ; : > , < o o o o o o ",
"1 - 2 3 4 5 6 7 8 7 8 o o ",
"1 - 9 0 q w e r o 7 o o o ",
"1 - 9 t y u i p a 7 s o o ",
"1 d f g h j k l z x X X o ",
"1 d f g g c v b n m M N X ",
"1 d f B g c V C Z A S D 7 ",
"F d G B g h h H J K L P I ",
"F d U B g h h Y T R E W Q ",
"F d U ! ~ c H ^ / ( ) ( _ ",
"F d G g h Y ` ' ] [ { } | ",
"F d G  .V ..X.o.O.m +.X @.",
"F d #.$.%.&.*.=.-.;.% o @.",
":.d >.,.<.1.2.3.4.s 5.6.7.",
"8.9.0.q.w.e.r.t.y.u.* & @.",
"i.p.a.1.2.s.d.f.u.. @.@.@.",
"g.h.j.j.k.l.z.x.c.@.@.@.@.",
"v.b.n.m.M.N.B.V.X 8 @.@.@.",
"C.Z.A.S.D.7 7 s o o @.@.@."
};
