/* XPM */
static char *result[] = {
/* columns rows colors chars-per-pixel */
"68 76 135 2 ",
"   c #4B3A47",
".  c #414449",
"X  c #4B434D",
"o  c #51424C",
"O  c #5B544D",
"+  c #4E4652",
"@  c #4D4C55",
"#  c #564D54",
"$  c #5A4E54",
"%  c #554F59",
"&  c #5B4F5A",
"*  c #4E565E",
"=  c #565254",
"-  c #595456",
";  c #595952",
":  c #53555D",
">  c #59525B",
",  c #54585E",
"<  c #61554F",
"1  c #604E54",
"2  c #60535D",
"3  c #4E5661",
"4  c #4D5963",
"5  c #535561",
"6  c #595662",
"7  c #535963",
"8  c #595C66",
"9  c #575D69",
"0  c #5A5D69",
"q  c #586166",
"w  c #5C626C",
"e  c #5D6571",
"r  c #61636D",
"t  c #616671",
"y  c #656B75",
"u  c #686A74",
"i  c #6C6F7B",
"p  c #6C727C",
"a  c #72747E",
"s  c #6F7880",
"d  c #707681",
"f  c #767B84",
"g  c #7B7C83",
"h  c #7E7F89",
"j  c #77808A",
"k  c #79828B",
"l  c #7F8A8F",
"z  c #7C8590",
"x  c #7D8895",
"c  c #80828D",
"v  c #828591",
"b  c #858B94",
"n  c #8B8E96",
"m  c #868E99",
"M  c #898E99",
"N  c #86929B",
"B  c #8B939C",
"V  c #8D9A9F",
"C  c #8B97A1",
"Z  c #8D9AA3",
"A  c #939DA6",
"S  c #9B9FA5",
"D  c #939EA9",
"F  c #9C9FAA",
"G  c #94A0A6",
"H  c #95A3AB",
"J  c #9AA3AC",
"K  c #93A6B0",
"L  c #9CA6B1",
"P  c #9EAAB3",
"I  c #9EAFBA",
"U  c #A0A1A7",
"Y  c #A9AAAF",
"T  c #A1A6B2",
"R  c #A3ABB4",
"E  c #ABADB4",
"W  c #A3AEB9",
"Q  c #A9AEB8",
"!  c #A2B2B7",
"~  c #A5B3BC",
"^  c #AAB5BD",
"/  c #ABB9BF",
"(  c #B1BABF",
")  c #A6B7C1",
"_  c #AAB5C1",
"`  c #A7B9C3",
"'  c #ABBAC4",
"]  c #ACBBC9",
"[  c #B1B6C0",
"{  c #B3BBC4",
"}  c #B9BFC7",
"|  c #B3BFCA",
" . c #B9BFC9",
".. c #AFC0C3",
"X. c #AFC2CC",
"o. c #B3C0C6",
"O. c #B3C2CC",
"+. c #BAC3CC",
"@. c #BDC8CF",
"#. c #B7C6D0",
"$. c #BAC6D0",
"%. c #BDCAD3",
"&. c #C2C4CC",
"*. c #C6C7D1",
"=. c #C2CBD4",
"-. c #C9CDD5",
";. c #C2CEDA",
":. c #CBCFD8",
">. c #C5D0D6",
",. c #C8D1D6",
"<. c #C4D2DC",
"1. c #CBD6DE",
"2. c #CDD8DE",
"3. c #D0D5DD",
"4. c #D3D9DE",
"5. c #D9DCDF",
"6. c #C7D5E1",
"7. c #CBD7E1",
"8. c #C7D9E0",
"9. c #CBD9E1",
"0. c #D0D7E0",
"q. c #D4DAE2",
"w. c #DBDEE4",
"e. c #DCE1E6",
"r. c #DEE2EA",
"t. c #E0E5E7",
"y. c #E2E5EB",
"u. c #E9E7EC",
"i. c #E5E9ED",
"p. c #ECECEE",
"a. c #E7E7F0",
"s. c #E5EAF1",
"d. c #EBECF1",
"f. c #EEF0F5",
"g. c None",
/* pixels */
"g.g.g.g.g.g.g.g.g.g.g.g.g.g.g.g.g.g.g.g.g.g.g.g.g.g.g.g.g.g.g.g.g.g.g.g.g.g.g.g.g.g.g.g.g.g.g.g.g.g.g.g.g.g.g.g.g.g.g.g.g.g.g.g.g.g.g.g.",
"g.g.g.g.g.g.g.g.g.g.g.g.g.g.g.g.g.g.g.g.g.g.g.g.g.g.g.g.g.g.g.g.g.g.g.g.g.g.g.g.g.g.g.g.g.g.g.g.g.g.g.g.g.g.g.g.g.g.g.g.g.g.g.g.g.g.g.g.",
"g.g.g.g.g.g.g.g.g.g.g.g.g.g.g.g.g.g.g.g.g.g.g.g.g.g.g.g.g.g.g.g.g.g.g.g.g.g.g.g.g.g.g.g.g.g.g.g.g.g.g.g.g.g.g.g.g.g.g.g.g.g.g.g.g.g.g.g.",
"g.g.g.g.g.g.g.g.g.g.g.g.g.g.g.g.g.g.g.g.g.g.g.g.g.g.g.g.g.g.g.g.g.g.g.g.g.g.g.g.g.g.g.g.g.g.g.g.g.g.g.g.g.g.g.g.g.g.g.g.g.g.g.g.g.g.g.g.",
"g.g.g.g.g.g.g.g.g.g.g.g.g.g.g.g.g.g.g.g.g.g.g.g.g.g.g.g.g.g.g.g.g.g.g.g.g.g.g.g.g.g.g.g.g.g.g.g.g.g.g.g.g.g.g.g.g.g.g.g.g.g.g.g.g.g.g.g.",
"g.g.g.g.g.g.g.g.g.g.g.g.g.g.g.g.g.g.g.g.g.g.g.g.g.g.g.g.g.g.g.g.g.g.g.g.g.g.g.g.g.g.g.g.g.g.g.g.g.g.g.g.g.g.g.g.g.g.g.g.g.g.g.g.g.g.g.g.",
"g.g.g.g.g.g.g.g.g.g.g.g.g.g.g.g.g.g.g.g.g.g.g.g.g.g.g.g.g.g.g.g.g.g.g.g.g.g.g.g.g.g.g.g.g.g.g.g.g.g.g.g.g.g.g.g.g.g.g.g.g.g.g.g.g.g.g.g.",
"g.g.g.g.g.g.g.g.g.g.g.g.g.g.g.g.g.g.g.g.g.g.g.g.g.g.g.g.g.g.g.g.g.g.g.g.g.g.g.g.g.g.g.g.g.g.g.g.g.g.g.g.g.g.g.g.g.g.g.g.g.g.g.g.g.g.g.g.",
"g.g.g.g.g.g.g.g.g.g.g.g.g.g.g.g.g.g.g.g.g.g.g.g.g.g.g.g.g.g.g.g.g.g.g.g.g.g.g.g.g.g.g.g.g.g.g.g.g.g.g.g.g.g.g.g.g.g.g.g.g.g.g.g.g.g.g.g.",
"g.g.g.g.g.g.g.g.g.g.g.g.g.g.g.g.g.g.g.g.g.g.g.g.g.g.g.g.g.g.g.g.g.g.g.g.g.g.g.g.g.g.g.g.g.g.g.g.g.g.g.g.g.g.g.g.g.g.g.g.g.g.g.g.g.g.g.g.",
"g.g.g.g.g.g.g.g.g.g.g.g.g.g.g.g.g.g.g.g.g.g.g.g.@ * * : 5 : 5 : : * 5 : * : : : : : : : * : : : : g.g.g.g.g.g.g.g.g.g.g.g.g.g.g.g.g.g.g.",
"g.g.g.g.g.g.g.g.g.g.g.g.g.g.g.g.g.g.g.g.g.g.  > : : 5 5 5 5 > & 5 : , 5 : , : : : : , : : : 7 5 * : > g.g.g.g.g.g.g.g.g.g.g.g.g.g.g.g.g.",
"g.g.g.g.g.g.g.g.g.g.g.g.g.g.g.g.g.g.g.g.g.g.+ 5 3 3 9 i c h g g g g g g g g g g a k g g h g p y * * : g.g.g.g.g.g.g.g.g.g.g.g.g.g.g.g.g.",
"g.g.g.g.g.g.g.g.g.g.g.g.g.g.g.g.g.g.g.g.g.  6 5 3 3 h [ u.p.u.u.i.i.u.u.u.u.i.i.u.u.a.a.s.s.{ Q 7 5 5 % & g.g.g.g.g.g.g.g.g.g.g.g.g.g.g.",
"g.g.g.g.g.g.g.g.g.g.g.g.g.g.g.g.g.g.g.g.g.X 5 5 i m P 3.d.p.p.p.p.p.p.p.d.d.d.p.p.d.d.d.s.d.0.1.v d 7 : & g.g.g.g.g.g.g.g.g.g.g.g.g.g.g.",
"g.g.g.g.g.g.g.g.g.g.g.g.g.g.g.g.g.g.g.g.g.. 5 5 v { :.d.d.d.p.p.p.p.p.u.u.p.p.p.p.p.p.p.d.d.d.d.| B 5 : = g.g.g.g.g.g.g.g.g.g.g.g.g.g.g.",
"g.g.g.g.g.g.g.g.g.g.g.g.g.g.g.g.g.g.g.g.g.. 5 7 b  .3.d.d.p.p.p.p.p.p.p.p.p.p.p.p.p.p.p.p.d.d.s.+.A 6 5 & g.g.g.g.g.g.g.g.g.g.g.g.g.g.g.",
"g.g.g.g.g.g.g.g.g.g.g.g.g.g.g.g.g.g.g.g.g.. : 7 A 3.w.d.d.d.p.p.p.p.p.p.p.p.p.p.p.p.p.p.p.p.d.s.q.T 9 5 = g.g.g.g.g.g.g.g.g.g.g.g.g.g.g.",
"g.g.g.g.g.g.g.g.g.g.g.g.g.g.g.g.g.g.g.g.g.@ * 7 Z 1.r.d.d.d.p.p.p.p.f.p.p.p.p.p.p.p.p.p.p.p.d.s.0.L 0 5 $ g.g.g.g.g.g.g.g.g.g.g.g.g.g.g.",
"g.g.g.g.g.g.g.g.g.g.g.g.g.g.g.g.g.g.g.g.g.@ 7 4 A 7.w.d.d.d.d.p.p.p.p.p.p.p.f.p.p.p.p.p.p.p.d.d.0.T 6 5 > g.g.g.g.g.g.g.g.g.g.g.g.g.g.g.",
"g.g.g.g.g.g.g.g.g.g.g.g.g.g.g.g.g.g.g.g.= : p P +.2.w.d.d.d.d.p.p.p.p.p.p.p.p.f.p.p.p.p.p.p.d.s.0.T 7 : = g.g.g.g.g.g.g.g.g.g.g.g.g.g.g.",
"g.g.g.g.g.g.g.g.g.g.g.g.g.g.g.g.g.g.g.g.> 7 s { &.1.w.d.d.p.p.d.p.f.p.p.p.d.p.p.p.p.p.p.d.d.i.y.7.R y 7 = g.g.g.g.g.g.g.g.g.g.g.g.g.g.g.",
"g.g.g.g.g.g.g.g.g.g.g.g.g.g.g.g.g.g.g.= 5 5 k 1.3.1.r.s.d.d.d.d.p.p.p.p.p.p.p.p.p.p.f.p.d.d.5.4.0.*.R 0 5 1 g.g.g.g.g.g.g.g.g.g.g.g.g.g.",
"g.g.g.g.g.g.g.g.g.g.g.g.g.g.g.g.g.g.= , , q b 2.0.q.r.d.d.a.i.a.u.p.p.p.i.i.i.i.i.u.p.p.s.i.4.2.0.;.| 0 : & g.g.g.g.g.g.g.g.g.g.g.g.g.g.",
"g.g.g.g.g.g.g.g.g.g.g.g.g.g.g.g.% : : : * b ( 4.e.i.p.p.q.q.4.q.w.q.0.0.0.0.9.9.9.2.2.9.9.q.9.9.9.1.<.t 5 & g.g.g.g.g.g.g.g.g.g.g.g.g.g.",
"g.g.g.g.g.g.g.g.g.g.> : : 5 7 3 * f A R / +.3.i.p.d.d.i.3.7.1.7.7.7.7.6.6.7.7.7.1.8.1.1.1.1.9.8.9.9.9.H A t = & g.g.g.g.g.g.g.g.g.g.g.g.",
"g.g.g.g.g.g.g.g.g.> 5 5 4 3 3 5 , n { -.2.2.5.f.f.f.d.i.1.1.6.6.6.7.6.7.1.1.7.7.1.1.<.7.1.1.1.8.9.9.9.{ _ r : : g.g.g.g.g.g.g.g.g.g.g.g.",
"g.g.g.g.g.g.g.g.g.> 5 : e y i d p S &.,.5.5.e.i.d.p.p.i.1.7.<.<.7.6.7.6.8.9.<.1.1.1.9.6.1.1.8.8.9.9.1.%.+.t 5 : g.g.g.g.g.g.g.g.g.g.g.g.",
"g.g.g.g.g.g.g.g.> : 7 7 D } :.0.3.t.i.p.p.p.p.p.p.p.p.i.2.9.O.O.6.;.6.7.8.1.<.9.7.6.7.6.7.6.6.9.9.7.6.8.1.y 5 5 g.g.g.g.g.g.g.g.g.g.g.g.",
"g.g.g.g.g.g.g.g.> 5 m L 7.w.r.s.i.i.p.p.p.p.p.p.p.f.t.4.1.9.X.O.<.#.#.O.O.X.] X.] ] ] #.X.| 9.6.9.9.9.8.1.y 3 5 g.g.g.g.g.g.g.g.g.g.g.g.",
"g.g.g.g.g.g.g.g.: , J ] w.a.f.d.p.p.p.f.p.p.f.p.d.d.r.3.7.6.X.O.6.#.] ' ] ] ] ] ] ] ] ] ] ] 6.6.6.9.9.8.7.y : 5 g.g.g.g.g.g.g.g.g.g.g.g.",
"g.g.g.g.g.g.g.g.: * R $.r.f.d.d.p.p.p.p.p.p.p.p.p.i.t.2.7.<.X.] %.] ] ] ] ] ] ] ] ] ` ] ] ] %.%.7.7.8.9.1.y 5 5 g.g.g.g.g.g.g.g.g.g.g.g.",
"g.g.g.g.g.g.g.g.: 5 _ 7.r.d.p.p.p.p.p.p.p.p.f.i.p.i.r.2.6.8.X.] ] ) ) ) ) ) ) ` ` ` ) ) ) ^ ' ..<.<.<.8.7.u 5 5 g.g.g.g.g.g.g.g.g.g.g.g.",
"g.g.g.g.g.g.g.g.> : _ 7.s.d.d.p.p.p.f.p.p.p.p.p.e.3.2.<.' ] ' ' ] Z N N m N B E U B B B M N _ _ N N C <.7.y 5 5 g.g.g.g.g.g.g.g.g.g.g.g.",
"g.g.g.g.g.g.g.g.: : ) 7.s.d.d.p.p.p.p.p.p.p.i.i.5.2.2.1.' ' ' _ ' C N N N N B W J N N m N C _ _ C N N <.9.y 5 : g.g.g.g.g.g.g.g.g.g.g.g.",
"g.g.g.g.g.g.g.g.: , D ] q.f.p.d.f.f.p.f.p.p.e.5.2.,.<.1.' ' _ ^ C W ^ ^ _ ^ ^ A L ^ _ _ ^ ^ C C ) ) ) Z C 7 5 3 g.g.g.g.g.g.g.g.g.g.g.g.",
"g.g.g.g.g.g.g.g.= , z B @.w.e.y.t.t.t.t.t.i.5.5.>.o.+.=.+.+.! J G o.+.+.+.+.O.! ) | $.+.$.| J D $.#.#.W R 0 5 5 g.g.g.g.g.g.g.g.g.g.g.g.",
"g.g.g.g.g.g.g.g.: : 4 4 G ( >.1.2.2.3.4.4.3.2.,.! B J / <.1.G A _ <.9.1.9.1.1.O.$.6.6.6.9.7.' ' <.7.7.7.7.y : 5 g.g.g.g.g.g.g.g.g.g.g.g.",
"g.g.g.g.g.g.g.g.> > 7 * b V R ! ! ! E { o...+.,./ P ! +.1.1.G Z @.1.1.7.7.1.1.%.;.7.7.7.9.0.$.$.7.7.7.7.0.y 5 5 g.g.g.g.g.g.g.g.g.g.g.g.",
"g.g.g.g.g.g.g.g.g.; 5 5 0 6 0 0 0 8 r c B V H / =.2.,.3.9.9.G H <.9.7.1.9.1.2.<.7.7.7.7.7.0.6.6.7.7.7.7.7.y 5 5 g.g.g.g.g.g.g.g.g.g.g.g.",
"g.g.g.g.g.g.g.g.g.g.; 6 5 5 6 5 6 > , u a V / +.<.1.2.1.2.2.G G 1.1.9.7.7.7.7.7.7.7.7.7.7.7.7.7.7.7.7.7.0.y 5 5 g.g.g.g.g.g.g.g.g.g.g.g.",
"g.g.g.g.g.g.g.g.g.g.g.g.g.g.g.g.g.> : 7 * H 9.1.2.2.2.2.2.2.G G 1.7.1.7.0.7.0.7.0.7.9.9.7.7.9.9.7.7.7.1.7.y * 5 g.g.g.g.g.g.g.g.g.g.g.g.",
"g.g.g.g.g.g.g.g.g.g.g.g.g.g.g.g.g.O - : 7 J 1.9.9.9.2.2.2.2.G D 1.7.0.9.9.9.7.0.7.0.9.9.9.9.7.9.6.7.7.1.1.y * 5 g.g.g.g.g.g.g.g.g.g.g.g.",
"g.g.g.g.g.g.g.g.g.g.g.g.g.g.g.g.g.g.> * 4 K 2.9.9.9.2.1.1.1.G G ;.1.7.7.7.7.7.7.7.7.9.7.9.7.6.7.<.6.6.<.:.t 5 5 g.g.g.g.g.g.g.g.g.g.g.g.",
"g.g.g.g.g.g.g.g.g.g.g.g.g.g.g.g.g.g.- 5 * J 1.1.9.8.1.1.7.7.H Z ' <.7.0.7.7.7.9.%.$.%.9.7.9.8.8.] $.6...' e : 5 g.g.g.g.g.g.g.g.g.g.g.g.",
"g.g.g.g.g.g.g.g.g.g.g.g.g.g.g.g.g.g.= : 5 J 9.8.9.9.9.9.7.7.H D { ;.;.;.<.<.;.<.+.] %.<.%.<.<.<.] #.%.L J w * : g.g.g.g.g.g.g.g.g.g.g.g.",
"g.g.g.g.g.g.g.g.g.g.g.g.g.g.g.g.g.g.; 7 5 H 1.1.9.1.2.7.7.7.L C ` ' ' ' ` ) ' ` ' ' ) ] X.` ] ` ` ] ] w * , : : g.g.g.g.g.g.g.g.g.g.g.g.",
"g.g.g.g.g.g.g.g.g.g.g.g.g.g.g.g.g.g.; 5 3 H 9.8.2.9.9.7.7.7.W D J ' ] ' ] ] ] ] I K K K K K K K K K K q , > - g.g.g.g.g.g.g.g.g.g.g.g.g.",
"g.g.g.g.g.g.g.g.g.g.g.g.g.g.g.g.g.g.; : 3 H 9.8.9.9.1.8.7.9.7.| 4 D _ ) ~ ) ^ ) x 7 5 5 5 : : : : : : 4 5 < g.g.g.g.g.g.g.g.g.g.g.g.g.g.",
"g.g.g.g.g.g.g.g.g.g.g.g.g.g.g.g.g.g.; , 7 H 1.1.9.9.9.8.9.9.9.| 3 e e e t e e e 9 5 5 : : : > > : : : > O g.g.g.g.g.g.g.g.g.g.g.g.g.g.g.",
"g.g.g.g.g.g.g.g.g.g.g.g.g.g.g.g.g.g.= * * J 2.1.9.9.9.9.7.7.0.} 3 7 7 5 5 5 : 6 5 5 : > > = > > : > > > g.g.g.g.g.g.g.g.g.g.g.g.g.g.g.g.",
"g.g.g.g.g.g.g.g.g.g.g.g.g.g.g.g.g.g.= : : J 1.4.3.4.2.2.1.3.3.} 3 6 5 > : > : > > > # g.g.g.g.g.g.g.g.g.g.g.g.g.g.g.g.g.g.g.g.g.g.g.g.g.",
"g.g.g.g.g.g.g.g.g.g.g.g.g.g.g.g.g.g.= 5 : J 3.q.q.q.4.4.4.q.3.o.3 5 6 % $ $ $ = - $ g.g.g.g.g.g.g.g.g.g.g.g.g.g.g.g.g.g.g.g.g.g.g.g.g.g.",
"g.g.g.g.g.g.g.g.g.g.g.g.g.g.g.g.g.g.5 5 : U 5.p.d.d.d.d.d.p.5.+.5 5 5 g.g.g.g.g.g.g.g.g.g.g.g.g.g.g.g.g.g.g.g.g.g.g.g.g.g.g.g.g.g.g.g.g.",
"g.g.g.g.g.g.g.g.g.g.g.g.g.g.g.g.g.g.: : : U e.p.d.f.p.p.d.d.w.+.5 6 6 g.g.g.g.g.g.g.g.g.g.g.g.g.g.g.g.g.g.g.g.g.g.g.g.g.g.g.g.g.g.g.g.g.",
"g.g.g.g.g.g.g.g.g.g.g.g.g.g.g.g.g.g.> : : Y i.d.p.d.p.d.p.p.r.*.5 5 > g.g.g.g.g.g.g.g.g.g.g.g.g.g.g.g.g.g.g.g.g.g.g.g.g.g.g.g.g.g.g.g.g.",
"g.g.g.g.g.g.g.g.g.g.g.g.g.g.g.g.g.g.> : : E u.d.d.d.d.d.d.p.f.:.5 5 > g.g.g.g.g.g.g.g.g.g.g.g.g.g.g.g.g.g.g.g.g.g.g.g.g.g.g.g.g.g.g.g.g.",
"g.g.g.g.g.g.g.g.g.g.g.g.g.g.g.g.g.g.5 5 > E p.d.d.d.p.p.d.d.d.:.5 5 6 g.g.g.g.g.g.g.g.g.g.g.g.g.g.g.g.g.g.g.g.g.g.g.g.g.g.g.g.g.g.g.g.g.",
"g.g.g.g.g.g.g.g.g.g.g.g.g.g.g.g.g.g.> 5 : E p.p.d.p.d.d.p.d.d.:.5 6 6 g.g.g.g.g.g.g.g.g.g.g.g.g.g.g.g.g.g.g.g.g.g.g.g.g.g.g.g.g.g.g.g.g.",
"g.g.g.g.g.g.g.g.g.g.g.g.g.g.g.g.g.g.> 5 , E p.f.f.d.d.d.d.d.a.:.5 5 6 g.g.g.g.g.g.g.g.g.g.g.g.g.g.g.g.g.g.g.g.g.g.g.g.g.g.g.g.g.g.g.g.g.",
"g.g.g.g.g.g.g.g.g.g.g.g.g.g.g.g.g.g.5 5 > S q.a.p.d.d.d.f.f.0.| 5 7 > g.g.g.g.g.g.g.g.g.g.g.g.g.g.g.g.g.g.g.g.g.g.g.g.g.g.g.g.g.g.g.g.g.",
"g.g.g.g.g.g.g.g.g.g.g.g.g.g.g.g.g.g.> 5 > n *.d.p.d.d.f.s.f. .F 5 7 > g.g.g.g.g.g.g.g.g.g.g.g.g.g.g.g.g.g.g.g.g.g.g.g.g.g.g.g.g.g.g.g.g.",
"g.g.g.g.g.g.g.g.g.g.g.g.g.g.g.g.g.g.% : 5 f Q q.w.y.y.y.q.w.L v 5 5 6 g.g.g.g.g.g.g.g.g.g.g.g.g.g.g.g.g.g.g.g.g.g.g.g.g.g.g.g.g.g.g.g.g.",
"g.g.g.g.g.g.g.g.g.g.g.g.g.g.g.g.g.g.% 5 5 7 f { -.0.7.7. .{ i 5 5 6 > g.g.g.g.g.g.g.g.g.g.g.g.g.g.g.g.g.g.g.g.g.g.g.g.g.g.g.g.g.g.g.g.g.",
"g.g.g.g.g.g.g.g.g.g.g.g.g.g.g.g.g.g.g.# 5 5 7 t w r w r 0 0 7 5 6 g.g.g.g.g.g.g.g.g.g.g.g.g.g.g.g.g.g.g.g.g.g.g.g.g.g.g.g.g.g.g.g.g.g.g.",
"g.g.g.g.g.g.g.g.g.g.g.g.g.g.g.g.g.g.g.o > 6 5 5 5 : 5 : 5 : 5 > & g.g.g.g.g.g.g.g.g.g.g.g.g.g.g.g.g.g.g.g.g.g.g.g.g.g.g.g.g.g.g.g.g.g.g.",
"g.g.g.g.g.g.g.g.g.g.g.g.g.g.g.g.g.g.g.g.g.X > > > > > > > > 2 g.g.g.g.g.g.g.g.g.g.g.g.g.g.g.g.g.g.g.g.g.g.g.g.g.g.g.g.g.g.g.g.g.g.g.g.g.",
"g.g.g.g.g.g.g.g.g.g.g.g.g.g.g.g.g.g.g.g.g.g.g.g.g.g.g.g.g.g.g.g.g.g.g.g.g.g.g.g.g.g.g.g.g.g.g.g.g.g.g.g.g.g.g.g.g.g.g.g.g.g.g.g.g.g.g.g.",
"g.g.g.g.g.g.g.g.g.g.g.g.g.g.g.g.g.g.g.g.g.g.g.g.g.g.g.g.g.g.g.g.g.g.g.g.g.g.g.g.g.g.g.g.g.g.g.g.g.g.g.g.g.g.g.g.g.g.g.g.g.g.g.g.g.g.g.g.",
"g.g.g.g.g.g.g.g.g.g.g.g.g.g.g.g.g.g.g.g.g.g.g.g.g.g.g.g.g.g.g.g.g.g.g.g.g.g.g.g.g.g.g.g.g.g.g.g.g.g.g.g.g.g.g.g.g.g.g.g.g.g.g.g.g.g.g.g.",
"g.g.g.g.g.g.g.g.g.g.g.g.g.g.g.g.g.g.g.g.g.g.g.g.g.g.g.g.g.g.g.g.g.g.g.g.g.g.g.g.g.g.g.g.g.g.g.g.g.g.g.g.g.g.g.g.g.g.g.g.g.g.g.g.g.g.g.g.",
"g.g.g.g.g.g.g.g.g.g.g.g.g.g.g.g.g.g.g.g.g.g.g.g.g.g.g.g.g.g.g.g.g.g.g.g.g.g.g.g.g.g.g.g.g.g.g.g.g.g.g.g.g.g.g.g.g.g.g.g.g.g.g.g.g.g.g.g.",
"g.g.g.g.g.g.g.g.g.g.g.g.g.g.g.g.g.g.g.g.g.g.g.g.g.g.g.g.g.g.g.g.g.g.g.g.g.g.g.g.g.g.g.g.g.g.g.g.g.g.g.g.g.g.g.g.g.g.g.g.g.g.g.g.g.g.g.g.",
"g.g.g.g.g.g.g.g.g.g.g.g.g.g.g.g.g.g.g.g.g.g.g.g.g.g.g.g.g.g.g.g.g.g.g.g.g.g.g.g.g.g.g.g.g.g.g.g.g.g.g.g.g.g.g.g.g.g.g.g.g.g.g.g.g.g.g.g.",
"g.g.g.g.g.g.g.g.g.g.g.g.g.g.g.g.g.g.g.g.g.g.g.g.g.g.g.g.g.g.g.g.g.g.g.g.g.g.g.g.g.g.g.g.g.g.g.g.g.g.g.g.g.g.g.g.g.g.g.g.g.g.g.g.g.g.g.g.",
"g.g.g.g.g.g.g.g.g.g.g.g.g.g.g.g.g.g.g.g.g.g.g.g.g.g.g.g.g.g.g.g.g.g.g.g.g.g.g.g.g.g.g.g.g.g.g.g.g.g.g.g.g.g.g.g.g.g.g.g.g.g.g.g.g.g.g.g."
};
