/* XPM */
static char *f2e50e17cad44c0bb8cb77afbb7b139btD2UZrSig5dxWsyA[] = {
/* columns rows colors chars-per-pixel */
"64 64 17 1 ",
"  c None",
". c black",
"X c #010101",
"o c #000301",
"O c #000002",
"+ c #030102",
"@ c #020202",
"# c #020104",
"$ c #DD4724",
"% c #DF4624",
"& c #DF4725",
"* c #DF4626",
"= c #DF4726",
"- c #DF4727",
"; c #DE4825",
": c #E04726",
"> c white",
/* pixels */
"                     ......................                     ",
"                     ......................                     ",
"                   ..>>>>>>>>>>>>>>>>>>>>>>..                   ",
"                   ..>>>>>>>>>>>>>>>>>>>>>>..                   ",
"                 ..>>>>>>>>>>>>>>>>>>>>>>>>>>..                 ",
"                 ..>>>>>>>>>>>>>>>>>>>>>>>>>>..                 ",
"               ..>>>>>>>>>>>>*$$*$$>>>>>>>>>>>>..               ",
"               ..>>>>>>>>>>>>*$$$$$>>>>>>>>>>>>..               ",
"               ..>>>>>>>>>>>>*$$$$$>>>>>>>>>>>>..               ",
"               ..>>>>>>>>>>>>*$$$$$>>>>>>>>>>>>..               ",
"               ..>>>>>>>>>>>>*$$$$$>>>>>>>>>>>>..               ",
"               ..>>>>>>>>>>>>*$$$$$>>>>>>>>>>>>..               ",
"               ..>>>>>>>>>>>>*$$$$$>>>>>>>>>>>>..               ",
"               ..>>>>>>>>>>>>*$$$$$>>>>>>>>>>>>..               ",
"               ..>>>>>>>>>>>>*$$$$$>>>>>>>>>>>>..               ",
"               ..>>>>>>>>>>>>*$$$$$>>>>>>>>>>>>..               ",
"               ..>>>>>>>>>>>>*$$$$$>>>>>>>>>>>>..               ",
"               ..>>>>>>>>>>>>$$$$$$>>>>>>>>>>>>..               ",
"               ..>>>>>>>>>>>>>>>>>>>>>>>>>>>>>>..               ",
"               ..>>>>>>>>>>>>>>>>>>>>>>>>>>>>>>..               ",
"               ..>>>>>>>>>>>>>>>>>>>>>>>>>>>>>>..               ",
"               ..>>>>>>>>>>>>:;;$*;>>>>>>>>>>>>..               ",
"               ..>>>>>>>>>>>>;*$$$$>>>>>>>>>>>>..               ",
"               ..>>>>>>>>>>>>*;*::*>>>>>>>>>>>>..               ",
"               ..>>>>>>>>>>>>>>>>>>>>>>>>>>>>>>..               ",
"               ..>>>>>>>>>>>>>>>>>>>>>>>>>>>>>>..               ",
"                 ....>>>>>>>>>>>>>>>>>>>>>>....                 ",
"                 ....>>>>>>>>>>>>>>>>>>>>>>....                 ",
"                     ......>>>>>>>>>>......                     ",
"                     ......>>>>>>>>>>......                     ",
"                           ..>>>>>>..                           ",
"                           ..>>>>>>..                           ",
"                            ..>>>>..                            ",
"                             ..>>..                             ",
"                             ..>>..                             ",
"                               ..                               ",
"                                                                ",
"                                                                ",
"                                                                ",
"                                                                ",
"                                                                ",
"                                                                ",
"                                                                ",
"                                                                ",
"                                                                ",
"                                                                ",
"                                                                ",
"                                                                ",
"                                                                ",
"                                                                ",
"                                                                ",
"                                                                ",
"                                                                ",
"                                                                ",
"                                                                ",
"                                                                ",
"                                                                ",
"                                                                ",
"                                                                ",
"                                                                ",
"                                                                ",
"                                                                ",
"                                                                ",
"                                                                "
};
