/* XPM */
static char *result[] = {
/* columns rows colors chars-per-pixel */
"42 42 8 1 ",
"  c #686878",
". c #A9000000",
"X c #429879",
"o c #49997B",
"O c #A0A098",
"+ c #D8D8C8",
"@ c #E0E8F8",
"# c None",
/* pixels */
"##########################################",
"##########################################",
"##########################################",
"##########################################",
"##########################################",
"##########################################",
"##########################################",
"##########################################",
"###################++++###################",
"###################++++###################",
"#################++@@@@++#################",
"#################++@@@@++#################",
"#################++@@@@++#################",
"#################++@@@@++#################",
"#################++OOOO++#################",
"#################++OOOO++#################",
"#################OOOOOOOO#################",
"#################OOOOOOOO#################",
"#################OOOOOOOO#################",
"#################OOOOOOOO#################",
"#################OOOOOOOO#################",
"#################OOOOOOOO#################",
"#################OOOOOOOO#################",
"#################OOOOOOOO#################",
"#################OOOOOOOO#################",
"#################OOOOOOOO#################",
"#################OOOOOOOO#################",
"#################OOOOOOOO#################",
"#################OOOOOOOO#################",
"#################OOOOOOOO....#############",
"#################OOOOOOOO....#############",
"#################OOOOOOOOo.....###########",
"#################OOOOOOOOo.....###########",
"#################OOOOOOOOX.....###########",
"#################OOOOOOOO......###########",
"#################OOOOOOOO..###############",
"#################        ..###############",
"#################        #################",
"##########################################",
"##########################################",
"##########################################",
"##########################################"
};
