/* XPM */
static char *result[] = {
/* columns rows colors chars-per-pixel */
"32 32 8 1 ",
"  c #68D0A0",
". c #68C8A0",
"X c #A0D0B8",
"o c #D0E8D0",
"O c #E8B8A8",
"+ c #E89068",
"@ c #58C098",
"# c #50A890",
/* pixels */
"                                ",
"                                ",
"          ........        ......",
"          ........        ......",
"  ....  XXooooXXoooooooo        ",
"  ....  XXooooXXoooooooo        ",
"  ....ooooooooOOOOoooooo        ",
"  ....ooooooooOOOOoooooo        ",
"      ooooooOO++++OOXXXX......  ",
"      ooooooOO++++OOXXXX......  ",
"..      XXXXOO++++OOoooooo      ",
"..      XXXXOO++++OOoooooo      ",
"..  @@##oooooooo##oooooo##@@    ",
"..  @@##oooooooo##oooooo##@@    ",
"  @@####oooo##########ooooXX    ",
"  @@####oooo##########ooooXX    ",
"  @@##########oooo##oooooooo  ..",
"  @@##########oooo##oooooooo  ..",
"    @@@@@@ooooooooOOOOoooooo  ..",
"    @@@@@@ooooooooOOOOoooooo  ..",
"..        ##XXXXOO++++OOoooooo  ",
"..        ##XXXXOO++++OOoooooo  ",
"  ....  @@##ooooooOOOOoooooooo  ",
"  ....  @@##ooooooOOOOoooooooo  ",
"  ....  @@##ooooooooXXoooooo@@  ",
"  ....  @@##ooooooooXXoooooo@@  ",
"          @@####oooo@@######@@  ",
"          @@####oooo@@######@@  ",
"            @@@@@@  @@####@@    ",
"            @@@@@@  @@####@@    ",
"          ....                  ",
"          ....                  "
};
