/* XPM */
static char *result[] = {
/* columns rows colors chars-per-pixel */
"32 32 6 1 ",
"  c #68D0A0",
". c #68C8A0",
"X c #60C090",
"o c #A8D8B0",
"O c #58B088",
"+ c #E0D8C0",
/* pixels */
"                  ....          ",
"                  ....          ",
"        ....                    ",
"        ....                    ",
"        ....                    ",
"        ....                    ",
"      XXXX      ......oooo      ",
"      XXXX      ......oooo      ",
"    XXOOOOXX        oo++++oo    ",
"    XXOOOOXX        oo++++oo    ",
"    XXOOOOXXXX      oo++++oo    ",
"    XXOOOOXXXX      oo++++oo    ",
"  XXOOOOXXOOOOXX    XXXXXX......",
"  XXOOOOXXOOOOXX    XXXXXX......",
"  XXOOOOXXXXXX    XXOOOOXXXXXX  ",
"  XXOOOOXXXXXX    XXOOOOXXXXXX  ",
"    XXXXXX        XXOOOOXXOOOOXX",
"    XXXXXX        XXOOOOXXOOOOXX",
"oo++++oo    XXXXXX..XXOOOOXXXX  ",
"oo++++oo    XXXXXX..XXOOOOXXXX  ",
"oo++++ooXXXXXXOOOOXXXXOOOOXX    ",
"oo++++ooXXXXXXOOOOXXXXOOOOXX    ",
"  ooooXXOOOOXXOOOOXX  XXXX      ",
"  ooooXXOOOOXXOOOOXX  XXXX      ",
"        XXXXOOOOXX      oo++++oo",
"        XXXXOOOOXX      oo++++oo",
"        ..XXOOOOXX      oo++++oo",
"        ..XXOOOOXX      oo++++oo",
"....        XXXX          oooo  ",
"....        XXXX          oooo  ",
"            ....    ........    ",
"            ....    ........    "
};
