/* XPM */
static char *result[] = {
/* columns rows colors chars-per-pixel */
"32 32 4 1 ",
"  c #68D0A0",
". c #68C8A0",
"X c #B8D898",
"o c #90B8E0",
/* pixels */
"                   ....         ",
"                   ....         ",
".        ....                   ",
".        ....                   ",
"         ....                   ",
"         ....                   ",
"   XXXX          ........       ",
"   XXXX          ........       ",
" XXXXXXXX                       ",
" XXXXXXXX                       ",
" XXXXXXXX                       ",
" XXXXXXXX                       ",
"         ........        ..XXXX.",
"         ........        ..XXXX.",
"                           XXXX ",
"                           XXXX ",
".                               ",
".                               ",
".........        ........       ",
".........        ........       ",
"                                ",
"                                ",
"                                ",
"                                ",
"         ..oooo..        .......",
"         ..oooo..        .......",
"         oooooooo        .......",
"         oooooooo        .......",
" ....      oooo                 ",
" ....      oooo                 ",
"             ....    ........   ",
"             ....    ........   "
};
