/* XPM */
static char *result[] = {
/* columns rows colors chars-per-pixel */
"32 32 5 1 ",
"  c #68D0A0",
". c #68C8A0",
"X c #F8C0B0",
"o c #60B898",
"O c #F8D0D0",
/* pixels */
"      ....        ....XXXX      ",
"      ....        ....XXXX      ",
"    ..oooo..        XXOOOOXX    ",
"    ..oooo..        XXOOOOXX    ",
"    ..oooo....      XXOOOOXX    ",
"    ..oooo....      XXOOOOXX    ",
"  ..oooo..oooo............      ",
"  ..oooo..oooo............      ",
"  ..oooo......    ..oooo......  ",
"  ..oooo......    ..oooo......  ",
"    ......        ..oooo..oooo..",
"    ......        ..oooo..oooo..",
"XXOOOOXX..........  ..oooo......",
"XXOOOOXX..........  ..oooo......",
"XXOOOOXX......oooo....oooo..    ",
"XXOOOOXX......oooo....oooo..    ",
"  XXXX..oooo..oooo..  ....      ",
"  XXXX..oooo..oooo..  ....      ",
"............oooo........XXOOOOXX",
"............oooo........XXOOOOXX",
"          ..oooo..      XXOOOOXX",
"          ..oooo..      XXOOOOXX",
"            ....          XXXX  ",
"            ....          XXXX  ",
"        ........        ........",
"        ........        ........",
"    ..oooo......    XXOOOOXX....",
"    ..oooo......    XXOOOOXX....",
"......oooo....      XXOOOOXX    ",
"......oooo....      XXOOOOXX    ",
"    ......oooo..    ..XXXX..    ",
"    ......oooo..    ..XXXX..    "
};
