/* XPM */
static char *result[] = {
/* columns rows colors chars-per-pixel */
"32 32 8 1 ",
"  c #68D0A0",
". c #90A888",
"X c #E08860",
"o c #E8A868",
"O c #68C8A0",
"+ c #F0C068",
"@ c #50A890",
"# c #58C098",
/* pixels */
"                                ",
"                                ",
"                                ",
"                                ",
"                                ",
"                                ",
"    ..XXXX..XXXXXXXX            ",
"    ..XXXX..XXXXXXXX            ",
"  XXXXXXXXooooXXXXXXOOOO        ",
"  XXXXXXXXooooXXXXXXOOOO        ",
"  XXXXXXoo++++oo....OOOO        ",
"  XXXXXXoo++++oo....OOOO        ",
"    XXXXXXooooXXXXXXXX@@##      ",
"    XXXXXXooooXXXXXXXX@@##      ",
"  ##XXXXXXXX@@XXXXXX@@@@##OOOOOO",
"  ##XXXXXXXX@@XXXXXX@@@@##OOOOOO",
"##@@@@XXXX@@@@@@@@@@@@XXXX..OOOO",
"##@@@@XXXX@@@@@@@@@@@@XXXX..OOOO",
"  ########XXXXXXXXooooXXXXXX    ",
"  ########XXXXXXXXooooXXXXXX    ",
"OOOOOOOO  XXXXXXoo++++oo....    ",
"OOOOOOOO  XXXXXXoo++++oo....    ",
"OOOOOOOO##@@....oo++++ooXXXXXX  ",
"OOOOOOOO##@@....oo++++ooXXXXXX  ",
"      ##@@@@XXXXXXXX..XXXXXX    ",
"      ##@@@@XXXXXXXX..XXXXXX    ",
"        ##@@@@##XXXX@@@@@@##OOOO",
"        ##@@@@##XXXX@@@@@@##OOOO",
"        OO######  ##@@@@##OOOOOO",
"        OO######  ##@@@@##OOOOOO",
"OOOO                            ",
"OOOO                            "
};
