/* XPM */
static char *result[] = {
/* columns rows colors chars-per-pixel */
"64 64 13 1 ",
"  c black",
". c #384050",
"X c #784040",
"o c #C03838",
"O c #F06848",
"+ c #A9000000",
"@ c #386088",
"# c #C06898",
"$ c #F8D0B8",
"% c #A8A0C8",
"& c #C8C8D8",
"* c #E8E8F8",
"= c None",
/* pixels */
"================================================================",
"================================================================",
"================================================================",
"================================================================",
"================================================================",
"================================================================",
"================================================================",
"================================================================",
"================================================================",
"================================================================",
"================================================================",
"================================================================",
"================================================================",
"================================================================",
"===========================@@@@@@@@@@===========================",
"===========================@@@@@@@@@@===========================",
"=====================@@@@%%**********%%@@@@=====================",
"=====================@@@@%%**********%%@@@@=====================",
"===================@@@@******************%%@@===================",
"===================@@@@******************%%@@===================",
"===================  **********************  ===================",
"===================  **********************  ===================",
"=================  &&**********************&&  =================",
"=================  &&**********************&&  =================",
"=================..&&**********************&&..=================",
"=================..&&**********************&&..=================",
"===============  ..&&&&******************&&&&..  ===============",
"===============  ..&&&&******************&&&&..  ===============",
"===============  ..%%&&******************&&%%..  ===============",
"===============  ..%%&&******************&&%%..  ===============",
"===============  ..%%&&&&&&**********&&&&&&%%..  ===============",
"===============  ..%%&&&&&&**********&&&&&&%%..  ===============",
"===============  ..  &&&&&&**********&&&&&&....  ===============",
"===============  ..  &&&&&&**********&&&&&&....  ===============",
"===============  @@..%%**&&%%******%%&&**%%..@@  ===============",
"===============  @@..%%**&&%%******%%&&**%%..@@  ===============",
"===============    @@@@..%%%%******%%%%..@@@@    ===============",
"===============    @@@@..%%%%******%%%%..@@@@    ===============",
"===============  ..    @@@@..%%**%%..@@@@    ..  ===============",
"===============  ..    @@@@..%%**%%..@@@@    ..  ===============",
"===============    ....      @@@@@@      ....    ===============",
"===============    ....      @@@@@@      ....    ===============",
"=================  ........  @@@@@@  ........  =================",
"=================  ........  @@@@@@  ........  =================",
"===================  ..  ..  @@@@@@  ..  ..  ===================",
"===================  ..  ..  @@@@@@  ..  ..  ===================",
"=================  &&        ..@@..        XX  =================",
"=================  &&        ..@@..        XX  =================",
"===============XX$$&&oo  oo  ..  ..  %%****oo$$  ===============",
"===============XX$$&&oo  oo  ..  ..  %%****oo$$  ===============",
"===============  $$$$  oooooo      oo%%****  $$  ===============",
"===============  $$$$  oooooo      oo%%****  $$  ===============",
"=================      ooOOooooooooooOO%%%%    =================",
"=================      ooOOooooooooooOO%%%%    =================",
"=====================      OOOOOOOOOO      =====================",
"====================+      OOOOOOOOOO      +====================",
"===================++  ####          ####  ++===================",
"===================++  ####          ####  ++===================",
"===================++++    ++++++++++    ++++===================",
"====================+++    ++++++++++    +++====================",
"=====================++++++++++++++++++++++=====================",
"========================++++++++++++++++========================",
"============================++++++++============================",
"================================================================"
};
