/* XPM */
static char *result[] = {
/* columns rows colors chars-per-pixel */
"42 42 2 1 ",
"  c #68D0A0",
". c #68C8A0",
/* pixels */
"             ........                     ",
"                                          ",
"                                          ",
"                                          ",
"                                          ",
"     ........        ........        .....",
"     ........        ........        .....",
"                                          ",
"                                          ",
"                                          ",
"                                          ",
".....        ........        ........     ",
".....        ........        ........     ",
"                                          ",
"                                          ",
"                                          ",
"                                          ",
"     ........        ........        .....",
"     ........        ........        .....",
"     ........        ........        .....",
"     ........        ........        .....",
".                            ....         ",
".                            ....         ",
"         ....    ........                .",
"         ....    ........                .",
"               ....                       ",
"               ....                       ",
"     ....                            .... ",
"     ....                            .... ",
"     ....                            .... ",
"     ....                            .... ",
"             ........                     ",
"             ........                     ",
"                                          ",
"                                          ",
"                                          ",
"                                          ",
"     ........        ........        .....",
"     ........        ........        .....",
"                                          ",
"                                          ",
"                                          "
};
