/* XPM */
static char *result[] = {
/* columns rows colors chars-per-pixel */
"42 42 8 1 ",
"  c #484048",
". c #686878",
"X c #A9000000",
"o c #49997B",
"O c #A0A098",
"+ c #D8D8C8",
"@ c #E0E8F8",
"# c None",
/* pixels */
"##########################################",
"##########################################",
"##########################################",
"##########################################",
"##########################################",
"##########################################",
"##########################################",
"##########################################",
"###################++++###################",
"###################++++###################",
"#################++@@@@++#################",
"#################++@@@@++#################",
"#################++@@@@++#################",
"#################++@@@@++#################",
"#################++OOOO++#################",
"#################++OOOO++#################",
"#################OOOOOOOO#################",
"#################OOOOOOOO#################",
"####..+++++++++++OOOOOOOO..+++++++++++####",
"####..+++++++++++OOOOOOOO..+++++++++++####",
"####.....++++++++OOOOOOOO.....++++++++####",
"####.....++++++++OOOOOOOO.....++++++++####",
"####     ........OOOOOOOO     ........####",
"####     ........OOOOOOOO     ........####",
"####    .........OOOOOOOO    .........####",
"####    .........OOOOOOOO    .........####",
"####    .........OOOOOOOO    .........####",
"####    .........OOOOOOOO    .........####",
"#################OOOOOOOO#################",
"#################OOOOOOOOXXXX#############",
"#################OOOOOOOOXXXX#############",
"#################OOOOOOOOoXXXXX###########",
"####.............OOOOOOOO.............####",
"####.............OOOOOOOO.............####",
"####.............OOOOOOOO.............####",
"####.............OOOOOOOO.............####",
"#################........XX###############",
"#################........#################",
"##########################################",
"##########################################",
"##########################################",
"##########################################"
};
