/* XPM */
static char *result[] = {
/* columns rows colors chars-per-pixel */
"64 64 18 1 ",
"  c black",
". c #282018",
"X c #503038",
"o c #385038",
"O c #504810",
"+ c #4B432B",
"@ c #686030",
"# c #784040",
"$ c #904000",
"% c #907028",
"& c #C86000",
"* c #408040",
"= c #A9000000",
"- c #D09870",
"; c #D89870",
": c #C8A860",
"> c #F5D0BA",
", c None",
/* pixels */
",,,,,,,,,,,,,,,,,,,,,,,,,,,,,,,,,,,,,,,,,,,,,,,,,,,,,,,,,,,,,,,,",
",,,,,,,,,,,,,,,,,,,,,,,,,,,,,,,,,,,,,,,,,,,,,,,,,,,,,,,,,,,,,,,,",
",,,,,,,,,,,,,,,,,,,,,,,,,,,,,,,,,,,,,,,,,,,,,,,,,,,,,,,,,,,,,,,,",
",,,,,,,,,,,,,,,,,,,,,,,,,,,,,,,,,,,,,,,,,,,,,,,,,,,,,,,,,,,,,,,,",
",,,,,,,,,,,,,,,,,,,,,,,,,,,,,,,,,,,,,,,,,,,,,,,,,,,,,,,,,,,,,,,,",
",,,,,,,,,,,,,,,,,,,,,,,,,,,,,,,,,,,,,,,,,,,,,,,,,,,,,,,,,,,,,,,,",
",,,,,,,,,,,,,,,,,,,,,,,,,,,,,,,,,,,,,,,,,,,,,,,,,,,,,,,,,,,,,,,,",
",,,,,,,,,,,,,,,,,,,,,,,,,,,,,,,,,,,,,,,,,,,,,,,,,,,,,,,,,,,,,,,,",
",,,,,,,,,,,,,,,,,,,,,,,,,,              ,,,,,,,,,,,,,,,,,,,,,,,,",
",,,,,,,,,,,,,,,,,,,,,,,,,,              ,,,,,,,,,,,,,,,,,,,,,,,,",
",,,,,,,,,,,,,,,,,,,,,,,,  %%::::::::::%%  ,,,,,,,,,,,,,,,,,,,,,,",
",,,,,,,,,,,,,,,,,,,,,,,,  %%::::::::::%%  ,,,,,,,,,,,,,,,,,,,,,,",
",,,,,,,,,,,,,,,,,,,,,,  %%::::::::::::::%%  ,,,,,,,,,,,,,,,,,,,,",
",,,,,,,,,,,,,,,,,,,,,,  %%::::::::::::::%%  ,,,,,,,,,,,,,,,,,,,,",
",,,,,,,,,,,,,,,,,,,,  OO%%%%::::::::::%%%%OO  ,,,,,,,,,,,,,,,,,,",
",,,,,,,,,,,,,,,,,,,,  OO%%%%::::::::::%%%%OO  ,,,,,,,,,,,,,,,,,,",
",,,,,,,,,,,,,,,,,,  %%OO$$%%%%%%%%%%%%%%$$OO%%  ,,,,,,,,,,,,,,,,",
",,,,,,,,,,,,,,,,,,  %%OO$$%%%%%%%%%%%%%%$$OO%%  ,,,,,,,,,,,,,,,,",
",,,,,,,,,,,,,,,,  %%::%%$$$$&&&&&&&&&&$$$$%%::%%  ,,,,,,,,,,,,,,",
",,,,,,,,,,,,,,,,  %%::%%$$$$&&&&&&&&&&$$$$%%::%%  ,,,,,,,,,,,,,,",
",,,,,,,,,,,,,,,,  ::::::%%$$&&&&&&&&&&$$%%::::::  ,,,,,,,,,,,,,,",
",,,,,,,,,,,,,,,,  ::::::%%$$&&&&&&&&&&$$%%::::::  ,,,,,,,,,,,,,,",
",,,,,,,,,,,,,,,,,,  ::::::::::%%%%%%::::::::::  ,,,,,,,,,,,,,,,,",
",,,,,,,,,,,,,,,,,,  ::::::::::%%%%%%::::::::::  ,,,,,,,,,,,,,,,,",
",,,,,,,,,,,,,,,,,,,,OO%%::::::::::::::::::%%OO  ,,,,,,,,,,,,,,,,",
",,,,,,,,,,,,,,,,,,,,OO%%::::::::::::::::::%%OO  ,,,,,,,,,,,,,,,,",
",,,,,,,,,,,,,,,,,,,,XX;;OOOO%%::::::%%OOOO;;;;  ,,,,,,,,,,,,,,,,",
",,,,,,,,,,,,,,,,,,,,XX;;OOOO%%::::::%%OOOO;;;;  ,,,,,,,,,,,,,,,,",
",,,,,,,,,,,,,,,,,,,,XX;;;;;;OOOOOOOOOO;;;;;;;;  ,,,,,,,,,,,,,,,,",
",,,,,,,,,,,,,,,,,,,,XX;;;;;;OOOOOOOOOO;;;;;;;;  ,,,,,,,,,,,,,,,,",
",,,,,,,,,,,,,,,,,,,,  >>    ;;;;##;;;;XX;;;;##  ,,,,,,,,,,,,,,,,",
",,,,,,,,,,,,,,,,,,,,  >>    ;;;;##;;;;XX;;;;##  ,,,,,,,,,,,,,,,,",
",,,,,,,,,,,,,,,,,,  ##XX>>>>>>;;XX;;;;XX;;;;  ++  ,,,,,,,,,,,,,,",
",,,,,,,,,,,,,,,,,,  ##XX>>>>>>;;XX;;;;XX;;;;  ++  ,,,,,,,,,,,,,,",
",,,,,,,,,,,,,,,,,,  --####>>>>##XXXXXX;;;;##  oo  ,,,,,,,,,,,,,,",
",,,,,,,,,,,,,,,,,,  --####>>>>##XXXXXX;;;;##  oo  ,,,,,,,,,,,,,,",
",,,,,,,,,,,,,,,,,,,,  --XXXXXXXXXXXX;;;;##  %%@@  ,,,,,,,,,,,,,,",
",,,,,,,,,,,,,,,,,,,,  --XXXXXXXXXXXX;;;;##  %%@@  ,,,,,,,,,,,,,,",
",,,,,,,,,,,,,,,,,,,,,,    XXXXXX########  %%**@@  ,,,,,,,,,,,,,,",
",,,,,,,,,,,,,,,,,,,,,,    XXXXXX########  %%**@@  ,,,,,,,,,,,,,,",
",,,,,,,,,,,,,,,,,,,,,,  $$  oooo  oooo%%@@@@%%oo  ,,,,,,,,,,,,,,",
",,,,,,,,,,,,,,,,,,,,,,  $$  oooo  oooo%%@@@@%%oo  ,,,,,,,,,,,,,,",
",,,,,,,,,,,,,,,,,,,,  $$@@oo$$&&$$    @@++++@@@@  ,,,,,,,,,,,,,,",
",,,,,,,,,,,,,,,,,,,,  $$@@oo$$&&$$    @@++++@@@@  ,,,,,,,,,,,,,,",
",,,,,,,,,,,,,,,,,,,,  @@%%  &&&&&&    ++@@@@++@@  ,,,,,,,,,,,,,,",
",,,,,,,,,,,,,,,,,,,,  @@%%  &&&&&&    ++@@@@++@@  ,,,,,,,,,,,,,,",
",,,,,,,,,,,,,,,,,,,,  %%@@  $$&&&&    @@++++@@  oo  ,,,,,,,,,,,,",
",,,,,,,,,,,,,,,,,,,,  %%@@  $$&&&&    @@++++@@  oo  ,,,,,,,,,,,,",
",,,,,,,,,,,,,,,,,,,,  XX  ;;;;$$$$  OO  @@@@  oooo  ,,,,,,,,,,,,",
",,,,,,,,,,,,,,,,,,,,  XX  ;;;;$$$$  OO  @@@@  oooo  ,,,,,,,,,,,,",
",,,,,,,,,,,,,,,,,,  ##  ..  ;;;;  OOOOOO    oooo  ,,,,,,,,,,,,,,",
",,,,,,,,,,,,,,,,,,  ##  ..  ;;;;  OOOOOO    oooo  ,,,,,,,,,,,,,,",
",,,,,,,,,,,,,,,,,,  ####  ..    OOOOOOOO  ##    ,,,,,,,,,,,,,,,,",
",,,,,,,,,,,,,,,,,,  ####  ..    OOOOOOOO  ##    ,,,,,,,,,,,,,,,,",
",,,,,,,,,,,,,,,,,===  ######      ..OO  &&&&  ===,,,,,,,,,,,,,,,",
",,,,,,,,,,,,,,,,,===  ######      ..OO  &&&&  ===,,,,,,,,,,,,,,,",
",,,,,,,,,,,,,,,,,=====    ========    &&&&  =====,,,,,,,,,,,,,,,",
",,,,,,,,,,,,,,,,,=====    ========    &&&&  =====,,,,,,,,,,,,,,,",
",,,,,,,,,,,,,,,,,=====================    =======,,,,,,,,,,,,,,,",
",,,,,,,,,,,,,,,,,,====================    ======,,,,,,,,,,,,,,,,",
",,,,,,,,,,,,,,,,,,,,==========================,,,,,,,,,,,,,,,,,,",
",,,,,,,,,,,,,,,,,,,,,,======================,,,,,,,,,,,,,,,,,,,,",
",,,,,,,,,,,,,,,,,,,,,,,,,,==============,,,,,,,,,,,,,,,,,,,,,,,,",
",,,,,,,,,,,,,,,,,,,,,,,,,,,,,,,,,,,,,,,,,,,,,,,,,,,,,,,,,,,,,,,,"
};
