/* XPM */
static char *result[] = {
/* columns rows colors chars-per-pixel */
"64 64 15 1 ",
"  c black",
". c #282018",
"X c #503038",
"o c #385038",
"O c #504810",
"+ c #686030",
"@ c #784040",
"# c #904000",
"$ c #907028",
"% c #C86000",
"& c #A9000000",
"* c #D89870",
"= c #C8A860",
"- c #F5D0BA",
"; c None",
/* pixels */
";;;;;;;;;;;;;;;;;;;;;;;;;;;;;;;;;;;;;;;;;;;;;;;;;;;;;;;;;;;;;;;;",
";;;;;;;;;;;;;;;;;;;;;;;;;;;;;;;;;;;;;;;;;;;;;;;;;;;;;;;;;;;;;;;;",
";;;;;;;;;;;;;;;;;;;;;;;;;;;;;;;;;;;;;;;;;;;;;;;;;;;;;;;;;;;;;;;;",
";;;;;;;;;;;;;;;;;;;;;;;;;;;;;;;;;;;;;;;;;;;;;;;;;;;;;;;;;;;;;;;;",
";;;;;;;;;;;;;;;;;;;;;;;;;;;;;;;;;;;;;;;;;;;;;;;;;;;;;;;;;;;;;;;;",
";;;;;;;;;;;;;;;;;;;;;;;;;;;;;;;;;;;;;;;;;;;;;;;;;;;;;;;;;;;;;;;;",
";;;;;;;;;;;;;;;;;;;;;;;;;;;;;;;;;;;;;;;;;;;;;;;;;;;;;;;;;;;;;;;;",
";;;;;;;;;;;;;;;;;;;;;;;;;;;;;;;;;;;;;;;;;;;;;;;;;;;;;;;;;;;;;;;;",
";;;;;;;;;;;;;;;;;;;;;;;;              ;;;;;;;;;;;;;;;;;;;;;;;;;;",
";;;;;;;;;;;;;;;;;;;;;;;;              ;;;;;;;;;;;;;;;;;;;;;;;;;;",
";;;;;;;;;;;;;;;;;;;;;;  $$==========$$  ;;;;;;;;;;;;;;;;;;;;;;;;",
";;;;;;;;;;;;;;;;;;;;;;  $$==========$$  ;;;;;;;;;;;;;;;;;;;;;;;;",
";;;;;;;;;;;;;;;;;;;;  $$==============$$  ;;;;;;;;;;;;;;;;;;;;;;",
";;;;;;;;;;;;;;;;;;;;  $$==============$$  ;;;;;;;;;;;;;;;;;;;;;;",
";;;;;;;;;;;;;;;;;;  OO$$$$==========$$$$OO  ;;;;;;;;;;;;;;;;;;;;",
";;;;;;;;;;;;;;;;;;  OO$$$$==========$$$$OO  ;;;;;;;;;;;;;;;;;;;;",
";;;;;;;;;;;;;;;;  $$OO##$$$$$$$$$$$$$$##OO$$  ;;;;;;;;;;;;;;;;;;",
";;;;;;;;;;;;;;;;  $$OO##$$$$$$$$$$$$$$##OO$$  ;;;;;;;;;;;;;;;;;;",
";;;;;;;;;;;;;;  $$==$$####%%%%%%%%%%####$$==$$  ;;;;;;;;;;;;;;;;",
";;;;;;;;;;;;;;  $$==$$####%%%%%%%%%%####$$==$$  ;;;;;;;;;;;;;;;;",
";;;;;;;;;;;;;;  ======$$##%%%%%%%%%%##$$======  ;;;;;;;;;;;;;;;;",
";;;;;;;;;;;;;;  ======$$##%%%%%%%%%%##$$======  ;;;;;;;;;;;;;;;;",
";;;;;;;;;;;;;;;;  ==========$$$$$$==========  ;;;;;;;;;;;;;;;;;;",
";;;;;;;;;;;;;;;;  ==========$$$$$$==========  ;;;;;;;;;;;;;;;;;;",
";;;;;;;;;;        OO$$==================$$OO        ;;;;;;;;;;;;",
";;;;;;;;;;        OO$$==================$$OO        ;;;;;;;;;;;;",
";;;;;;;;  $$==  **XX**OOOO$$======$$OOOO**XX**  ==$$  ;;;;;;;;;;",
";;;;;;;;  $$==  **XX**OOOO$$======$$OOOO**XX**  ==$$  ;;;;;;;;;;",
";;;;;;;;  $$==  **XX******OOOOOOOOOO******XX**  ==$$  ;;;;;;;;;;",
";;;;;;;;  $$==  **XX******OOOOOOOOOO******XX**  ==$$  ;;;;;;;;;;",
";;;;;;;;  ++$$$$  XX****    ------    ****XX  $$$$++  ;;;;;;;;;;",
";;;;;;;;  ++$$$$  XX****    ------    ****XX  $$$$++  ;;;;;;;;;;",
";;;;;;;;  ++++++  XX@@**--------------**@@XX  ++++++  ;;;;;;;;;;",
";;;;;;;;  ++++++  XX@@**--------------**@@XX  ++++++  ;;;;;;;;;;",
";;;;;;;;  ++++++@@  XXXX**--XX@@XX--**XXXX  oo  ++++  ;;;;;;;;;;",
";;;;;;;;  ++++++@@  XXXX**--XX@@XX--**XXXX  oo  ++++  ;;;;;;;;;;",
";;;;;;;;  ++++++@@oo  XXXX@@@@**@@@@XXXX  oooo@@  ++  ;;;;;;;;;;",
";;;;;;;;  ++++++@@oo  XXXX@@@@**@@@@XXXX  oooo@@  ++  ;;;;;;;;;;",
";;;;;;;;;;      ##oooo    XX******XX    $$oo@@@@    ;;;;;;;;;;;;",
";;;;;;;;;;      ##oooo    XX******XX    $$oo@@@@    ;;;;;;;;;;;;",
";;;;;;;;;;;;;;  ####oo$$$$          $$$$$$  @@@@**  ;;;;;;;;;;;;",
";;;;;;;;;;;;;;  ####oo$$$$          $$$$$$  @@@@**  ;;;;;;;;;;;;",
";;;;;;;;;;;;  @@@@@@  $$$$++######++$$$$$$    ****  ;;;;;;;;;;;;",
";;;;;;;;;;;;  @@@@@@  $$$$++######++$$$$$$    ****  ;;;;;;;;;;;;",
";;;;;;;;;;;;  ----**  $$$$$$++++++$$$$$$++$$      ;;;;;;;;;;;;;;",
";;;;;;;;;;;;  ----**  $$$$$$++++++$$$$$$++$$      ;;;;;;;;;;;;;;",
";;;;;;;;;;;;  ****  $$++++++$$$$$$++++++$$++  ;;;;;;;;;;;;;;;;;;",
";;;;;;;;;;;;  ****  $$++++++$$$$$$++++++$$++  ;;;;;;;;;;;;;;;;;;",
";;;;;;;;;;;;;;      ++$$$$$$======$$$$$$++..  ;;;;;;;;;;;;;;;;;;",
";;;;;;;;;;;;;;      ++$$$$$$======$$$$$$++..  ;;;;;;;;;;;;;;;;;;",
";;;;;;;;;;;;;;;;;;;;  ++++$$$$==$$$$++++OOOO  ;;;;;;;;;;;;;;;;;;",
";;;;;;;;;;;;;;;;;;;;  ++++$$$$==$$$$++++OOOO  ;;;;;;;;;;;;;;;;;;",
";;;;;;;;;;;;;;;;;;;;;&&&        ++++OOOOOO..  ;;;;;;;;;;;;;;;;;;",
";;;;;;;;;;;;;;;;;;;&&&&&        ++++OOOOOO..  ;;;;;;;;;;;;;;;;;;",
";;;;;;;;;;;;;;;;;&&&&&&&&&&&&&&&    ......  &&&;;;;;;;;;;;;;;;;;",
";;;;;;;;;;;;;;;;&&&&&&&&&&&&&&&&    ......  &&&&;;;;;;;;;;;;;;;;",
";;;;;;;;;;;;;;;;&&&&&&&&&&&&&&&&&&    @@%%  &&&&;;;;;;;;;;;;;;;;",
";;;;;;;;;;;;;;;;&&&&&&&&&&&&&&&&&&    @@%%  &&&&;;;;;;;;;;;;;;;;",
";;;;;;;;;;;;;;;;&&&&&&&&&&&&&&&&&&  %%%%@@  &&&&;;;;;;;;;;;;;;;;",
";;;;;;;;;;;;;;;;&&&&&&&&&&&&&&&&&&  %%%%@@  &&&&;;;;;;;;;;;;;;;;",
";;;;;;;;;;;;;;;;;&&&&&&&&&&&&&&&&&&&      &&&&&;;;;;;;;;;;;;;;;;",
";;;;;;;;;;;;;;;;;;;&&&&&&&&&&&&&&&&&      &&&;;;;;;;;;;;;;;;;;;;",
";;;;;;;;;;;;;;;;;;;;;&&&&&&&&&&&&&&&&&&&&&&;;;;;;;;;;;;;;;;;;;;;",
";;;;;;;;;;;;;;;;;;;;;;;;;&&&&&&&&&&&&&&;;;;;;;;;;;;;;;;;;;;;;;;;"
};
