/* XPM */
static char *result[] = {
/* columns rows colors chars-per-pixel */
"64 64 18 1 ",
"  c black",
". c #503038",
"X c #385038",
"o c #504810",
"O c #4B432B",
"+ c #686030",
"@ c #784040",
"# c #904000",
"$ c #89502F",
"% c #907028",
"& c #C86000",
"* c #408040",
"= c #A9000000",
"- c #D09870",
"; c #D89870",
": c #C8A860",
"> c #F5D0BA",
", c None",
/* pixels */
",,,,,,,,,,,,,,,,,,,,,,,,,,,,,,,,,,,,,,,,,,,,,,,,,,,,,,,,,,,,,,,,",
",,,,,,,,,,,,,,,,,,,,,,,,,,,,,,,,,,,,,,,,,,,,,,,,,,,,,,,,,,,,,,,,",
",,,,,,,,,,,,,,,,,,,,,,,,,,,,,,,,,,,,,,,,,,,,,,,,,,,,,,,,,,,,,,,,",
",,,,,,,,,,,,,,,,,,,,,,,,,,,,,,,,,,,,,,,,,,,,,,,,,,,,,,,,,,,,,,,,",
",,,,,,,,,,,,,,,,,,,,,,,,,,,,,,,,,,,,,,,,,,,,,,,,,,,,,,,,,,,,,,,,",
",,,,,,,,,,,,,,,,,,,,,,,,,,,,,,,,,,,,,,,,,,,,,,,,,,,,,,,,,,,,,,,,",
",,,,,,,,,,,,,,,,,,,,,,,,,,,,,,,,,,,,,,,,,,,,,,,,,,,,,,,,,,,,,,,,",
",,,,,,,,,,,,,,,,,,,,,,,,,,,,,,,,,,,,,,,,,,,,,,,,,,,,,,,,,,,,,,,,",
",,,,,,,,,,,,,,,,,,,,,,,,,,              ,,,,,,,,,,,,,,,,,,,,,,,,",
",,,,,,,,,,,,,,,,,,,,,,,,,,              ,,,,,,,,,,,,,,,,,,,,,,,,",
",,,,,,,,,,,,,,,,,,,,,,,,  %%::::::::::%%  ,,,,,,,,,,,,,,,,,,,,,,",
",,,,,,,,,,,,,,,,,,,,,,,,  %%::::::::::%%  ,,,,,,,,,,,,,,,,,,,,,,",
",,,,,,,,,,,,,,,,,,,,,,  %%::::::::::::::%%  ,,,,,,,,,,,,,,,,,,,,",
",,,,,,,,,,,,,,,,,,,,,,  %%::::::::::::::%%  ,,,,,,,,,,,,,,,,,,,,",
",,,,,,,,,,,,,,,,,,,,  oo%%%%::::::::::%%%%oo  ,,,,,,,,,,,,,,,,,,",
",,,,,,,,,,,,,,,,,,,,  oo%%%%::::::::::%%%%oo  ,,,,,,,,,,,,,,,,,,",
",,,,,,,,,,,,,,,,,,  %%oo##%%%%%%%%%%%%%%##oo%%  ,,,,,,,,,,,,,,,,",
",,,,,,,,,,,,,,,,,,  %%oo##%%%%%%%%%%%%%%##oo%%  ,,,,,,,,,,,,,,,,",
",,,,,,,,,,,,,,,,  %%::%%####&&&&&&&&&&####%%::%%  ,,,,,,,,,,,,,,",
",,,,,,,,,,,,,,,,  %%::%%####&&&&&&&&&&####%%::%%  ,,,,,,,,,,,,,,",
",,,,,,,,,,,,,,,,  ::::::%%##&&&&&&&&&&##%%::::::  ,,,,,,,,,,,,,,",
",,,,,,,,,,,,,,,,  ::::::%%##&&&&&&&&&&##%%::::::  ,,,,,,,,,,,,,,",
",,,,,,,,,,,,,,,,,,  ::::::::::%%%%%%::::::::::  ,,,,,,,,,,,,,,,,",
",,,,,,,,,,,,,,,,,,  ::::::::::%%%%%%::::::::::  ,,,,,,,,,,,,,,,,",
",,,,,,,,,,,,,,,,,,,,oo%%::::::::::::::::::%%oo  ,,,,,,,,,,,,,,,,",
",,,,,,,,,,,,,,,,,,,,oo%%::::::::::::::::::%%oo  ,,,,,,,,,,,,,,,,",
",,,,,,,,,,,,,,,,,,,,..;;oooo%%::::::%%oooo;;;;  ,,,,,,,,,,,,,,,,",
",,,,,,,,,,,,,,,,,,,,..;;oooo%%::::::%%oooo;;;;  ,,,,,,,,,,,,,,,,",
",,,,,,,,,,,,,,,,,,,,..;;;;;;oooooooooo;;;;;;;;  ,,,,,,,,,,,,,,,,",
",,,,,,,,,,,,,,,,,,,,..;;;;;;oooooooooo;;;;;;;;  ,,,,,,,,,,,,,,,,",
",,,,,,,,,,,,,,,,,,,,  >>    ;;;;@@;;;;..;;;;@@  ,,,,,,,,,,,,,,,,",
",,,,,,,,,,,,,,,,,,,,  >>    ;;;;@@;;;;..;;;;@@  ,,,,,,,,,,,,,,,,",
",,,,,,,,,,,,,,,,,,  @@..>>>>>>;;..;;;;..;;;;  OO  ,,,,,,,,,,,,,,",
",,,,,,,,,,,,,,,,,,  @@..>>>>>>;;..;;;;..;;;;  OO  ,,,,,,,,,,,,,,",
",,,,,,,,,,,,,,,,,,  --@@@@>>>>@@......;;;;@@  XX  ,,,,,,,,,,,,,,",
",,,,,,,,,,,,,,,,,,  --@@@@>>>>@@......;;;;@@  XX  ,,,,,,,,,,,,,,",
",,,,,,,,,,,,,,,,,,,,  --............;;;;@@  %%++  ,,,,,,,,,,,,,,",
",,,,,,,,,,,,,,,,,,,,  --............;;;;@@  %%++  ,,,,,,,,,,,,,,",
",,,,,,,,,,,,,,,,,,,,,,    ......@@@@@@@@  %%**++  ,,,,,,,,,,,,,,",
",,,,,,,,,,,,,,,,,,,,,,    ......@@@@@@@@  %%**++  ,,,,,,,,,,,,,,",
",,,,,,,,,,,,,,,,,,,,,,  $$    %%XX  XX%%++++%%XX  ,,,,,,,,,,,,,,",
",,,,,,,,,,,,,,,,,,,,,,  $$    %%XX  XX%%++++%%XX  ,,,,,,,,,,,,,,",
",,,,,,,,,,,,,,,,,,,,  $$++%%%%XX##&&  ++OOOO++++  ,,,,,,,,,,,,,,",
",,,,,,,,,,,,,,,,,,,,  $$++%%%%XX##&&  ++OOOO++++  ,,,,,,,,,,,,,,",
",,,,,,,,,,,,,,,,,,,,  ++%%%%::  &&&&&&  ++++OO++  ,,,,,,,,,,,,,,",
",,,,,,,,,,,,,,,,,,,,  ++%%%%::  &&&&&&  ++++OO++  ,,,,,,,,,,,,,,",
",,,,,,,,,,,,,,,,,,,,  %%++++::  &&####  OOOO++  XX  ,,,,,,,,,,,,",
",,,,,,,,,,,,,,,,,,,,  %%++++::  &&####  OOOO++  XX  ,,,,,,,,,,,,",
",,,,,,,,,,,,,,,,,,,,,,  %%%%....##;;;;;;++++  XXXX  ,,,,,,,,,,,,",
",,,,,,,,,,,,,,,,,,,,,,  %%%%....##;;;;;;++++  XXXX  ,,,,,,,,,,,,",
",,,,,,,,,,,,,,,,,,,,    ....oooo  ;;;;      XXXX  ,,,,,,,,,,,,,,",
",,,,,,,,,,,,,,,,,,,,    ....oooo  ;;;;      XXXX  ,,,,,,,,,,,,,,",
",,,,,,,,,,,,,,,,,,  &&  oooooooooo              ,,,,,,,,,,,,,,,,",
",,,,,,,,,,,,,,,,,,  &&  oooooooooo              ==,,,,,,,,,,,,,,",
",,,,,,,,,,,,,,,,,,  &&&&  oooooo    @@@@  =========,,,,,,,,,,,,,",
",,,,,,,,,,,,,,,,,,  &&&&  oooooo    @@@@  =========,,,,,,,,,,,,,",
",,,,,,,,,,,,,,,,,,,=  &&&&@@    ====    ===========,,,,,,,,,,,,,",
",,,,,,,,,,,,,,,,,,,=  &&&&@@    ====    ===========,,,,,,,,,,,,,",
",,,,,,,,,,,,,,,,,,,===      =======================,,,,,,,,,,,,,",
",,,,,,,,,,,,,,,,,,,,==      ======================,,,,,,,,,,,,,,",
",,,,,,,,,,,,,,,,,,,,,,==========================,,,,,,,,,,,,,,,,",
",,,,,,,,,,,,,,,,,,,,,,,,======================,,,,,,,,,,,,,,,,,,",
",,,,,,,,,,,,,,,,,,,,,,,,,,,,==============,,,,,,,,,,,,,,,,,,,,,,",
",,,,,,,,,,,,,,,,,,,,,,,,,,,,,,,,,,,,,,,,,,,,,,,,,,,,,,,,,,,,,,,,"
};
