/* XPM */
static char *result[] = {
/* columns rows colors chars-per-pixel */
"64 64 14 1 ",
"  c black",
". c #282018",
"X c #385038",
"o c #504810",
"O c #686030",
"+ c #784040",
"@ c #904000",
"# c #907028",
"$ c #C86000",
"% c #408040",
"& c #A9000000",
"* c #D89870",
"= c #C8A860",
"- c None",
/* pixels */
"----------------------------------------------------------------",
"----------------------------------------------------------------",
"----------------------------------------------------------------",
"----------------------------------------------------------------",
"----------------------------------------------------------------",
"----------------------------------------------------------------",
"----------------------------------------------------------------",
"----------------------------------------------------------------",
"------------------------              --------------------------",
"------------------------              --------------------------",
"----------------------  ##==========##  ------------------------",
"----------------------  ##==========##  ------------------------",
"--------------------  ##==============##  ----------------------",
"--------------------  ##==============##  ----------------------",
"------------------  oo##==============##oo  --------------------",
"------------------  oo##==============##oo  --------------------",
"----------------  ##oo####==========####oo##  ------------------",
"----------------  ##oo####==========####oo##  ------------------",
"--------------  ##==##@@##############@@##==##  ----------------",
"--------------  ##==##@@##############@@##==##  ----------------",
"--------------  ====##@@@@$$$$$$$$$$@@@@##====  ----------------",
"--------------  ====##@@@@$$$$$$$$$$@@@@##====  ----------------",
"--------------  ##====##@@$$$$$$$$$$@@##====##  ----------------",
"--------------  ##====##@@$$$$$$$$$$@@##====##  ----------------",
"----------------  ##========######========##  ------------------",
"----------------  ##========######========##  ------------------",
"--------------++**oooo##==============##oooo**++----------------",
"--------------++**oooo##==============##oooo**++----------------",
"--------------++**++**oooo##########oooo**++**++----------------",
"--------------++**++**oooo##########oooo**++**++----------------",
"----------        ++**    oooooooooo    **++        ------------",
"----------        ++**    oooooooooo    **++        ------------",
"--------  OO####OO    OOOO          OOOO    OO####OO  ----------",
"--------  OO####OO    OOOO          OOOO    OO####OO  ----------",
"--------  ########%%%%####OOOOOOOOOO####%%%%########  ----------",
"--------  ########%%%%####OOOOOOOOOO####%%%%########  ----------",
"--------  ########%%%%##################%%%%########  ----------",
"--------  ########%%%%##################%%%%########  ----------",
"--------  ########%%%%##################%%%%########  ----------",
"--------  ########%%%%##################%%%%########  ----------",
"--------  ######OOXXXXOO##############OOXXXXOO######  ----------",
"--------  ######OOXXXXOO##############OOXXXXOO######  ----------",
"--------  OOOOOOOOXXXXOOOOOOOOOOOOOOOOOOXXXXOOOOOOOO  ----------",
"--------  OOOOOOOOXXXXOOOOOOOOOOOOOOOOOOXXXXOOOOOOOO  ----------",
"--------  OOOOOOOO    OOOOOOOOOOOOOOOOOO    OOOOOOOO  ----------",
"--------  OOOOOOOO    OOOOOOOOOOOOOOOOOO    OOOOOOOO  ----------",
"----------        ..                      ..        ------------",
"----------        ..                      ..        ------------",
"----------------  oo  ooXXXXXXXXXXXXXXoo        ----------------",
"----------------  oo  ooXXXXXXXXXXXXXXoo        ----------------",
"----------------  oooo                    ----------------------",
"----------------  oooo                    ----------------------",
"----------------  ..oooooo....        &&&-----------------------",
"----------------  ..oooooo....        &&&&&---------------------",
"---------------&&&  oooo..    &&&&&&&&&&&&&&&-------------------",
"--------------&&&&  oooo..    &&&&&&&&&&&&&&&&------------------",
"--------------&&&&  ....    &&&&&&&&&&&&&&&&&&------------------",
"--------------&&&&  ....    &&&&&&&&&&&&&&&&&&------------------",
"--------------&&&&  ++$$$$  &&&&&&&&&&&&&&&&&&------------------",
"--------------&&&&  ++$$$$  &&&&&&&&&&&&&&&&&&------------------",
"---------------&&&&&      &&&&&&&&&&&&&&&&&&&-------------------",
"-----------------&&&      &&&&&&&&&&&&&&&&&---------------------",
"-------------------&&&&&&&&&&&&&&&&&&&&&&-----------------------",
"-----------------------&&&&&&&&&&&&&&---------------------------"
};
