/* XPM */
static char *result[] = {
/* columns rows colors chars-per-pixel */
"64 64 18 1 ",
"  c black",
". c #282018",
"X c #503038",
"o c #385038",
"O c #504810",
"+ c #4B432B",
"@ c #686030",
"# c #784040",
"$ c #904000",
"% c #907028",
"& c #C86000",
"* c #408040",
"= c #A9000000",
"- c #D09870",
"; c #D89870",
": c #C8A860",
"> c #F5D0BA",
", c None",
/* pixels */
",,,,,,,,,,,,,,,,,,,,,,,,,,,,,,,,,,,,,,,,,,,,,,,,,,,,,,,,,,,,,,,,",
",,,,,,,,,,,,,,,,,,,,,,,,,,,,,,,,,,,,,,,,,,,,,,,,,,,,,,,,,,,,,,,,",
",,,,,,,,,,,,,,,,,,,,,,,,,,,,,,,,,,,,,,,,,,,,,,,,,,,,,,,,,,,,,,,,",
",,,,,,,,,,,,,,,,,,,,,,,,,,,,,,,,,,,,,,,,,,,,,,,,,,,,,,,,,,,,,,,,",
",,,,,,,,,,,,,,,,,,,,,,,,,,,,,,,,,,,,,,,,,,,,,,,,,,,,,,,,,,,,,,,,",
",,,,,,,,,,,,,,,,,,,,,,,,,,,,,,,,,,,,,,,,,,,,,,,,,,,,,,,,,,,,,,,,",
",,,,,,,,,,,,,,,,,,,,,,,,,,,,,,,,,,,,,,,,,,,,,,,,,,,,,,,,,,,,,,,,",
",,,,,,,,,,,,,,,,,,,,,,,,,,,,,,,,,,,,,,,,,,,,,,,,,,,,,,,,,,,,,,,,",
",,,,,,,,,,,,,,,,,,,,,,,,              ,,,,,,,,,,,,,,,,,,,,,,,,,,",
",,,,,,,,,,,,,,,,,,,,,,,,              ,,,,,,,,,,,,,,,,,,,,,,,,,,",
",,,,,,,,,,,,,,,,,,,,,,  %%::::::::::%%  ,,,,,,,,,,,,,,,,,,,,,,,,",
",,,,,,,,,,,,,,,,,,,,,,  %%::::::::::%%  ,,,,,,,,,,,,,,,,,,,,,,,,",
",,,,,,,,,,,,,,,,,,,,  %%::::::::::::::%%  ,,,,,,,,,,,,,,,,,,,,,,",
",,,,,,,,,,,,,,,,,,,,  %%::::::::::::::%%  ,,,,,,,,,,,,,,,,,,,,,,",
",,,,,,,,,,,,,,,,,,  OO%%%%::::::::::%%%%OO  ,,,,,,,,,,,,,,,,,,,,",
",,,,,,,,,,,,,,,,,,  OO%%%%::::::::::%%%%OO  ,,,,,,,,,,,,,,,,,,,,",
",,,,,,,,,,,,,,,,  %%OO$$%%%%%%%%%%%%%%$$OO%%  ,,,,,,,,,,,,,,,,,,",
",,,,,,,,,,,,,,,,  %%OO$$%%%%%%%%%%%%%%$$OO%%  ,,,,,,,,,,,,,,,,,,",
",,,,,,,,,,,,,,  %%::%%$$$$&&&&&&&&&&$$$$%%::%%  ,,,,,,,,,,,,,,,,",
",,,,,,,,,,,,,,  %%::%%$$$$&&&&&&&&&&$$$$%%::%%  ,,,,,,,,,,,,,,,,",
",,,,,,,,,,,,,,  ::::::%%$$&&&&&&&&&&$$%%::::::  ,,,,,,,,,,,,,,,,",
",,,,,,,,,,,,,,  ::::::%%$$&&&&&&&&&&$$%%::::::  ,,,,,,,,,,,,,,,,",
",,,,,,,,,,,,,,,,  ::::::::::%%%%%%::::::::::  ,,,,,,,,,,,,,,,,,,",
",,,,,,,,,,,,,,,,  ::::::::::%%%%%%::::::::::  ,,,,,,,,,,,,,,,,,,",
",,,,,,,,,,,,,,,,  OO%%::::::::::::::::::%%OO,,,,,,,,,,,,,,,,,,,,",
",,,,,,,,,,,,,,,,  OO%%::::::::::::::::::%%OO,,,,,,,,,,,,,,,,,,,,",
",,,,,,,,,,,,,,,,  ;;;;OOOO%%::::::%%OOOO;;XX,,,,,,,,,,,,,,,,,,,,",
",,,,,,,,,,,,,,,,  ;;;;OOOO%%::::::%%OOOO;;XX,,,,,,,,,,,,,,,,,,,,",
",,,,,,,,,,,,,,,,  ;;;;;;;;OOOOOOOOOO;;;;;;XX,,,,,,,,,,,,,,,,,,,,",
",,,,,,,,,,,,,,,,  ;;;;;;;;OOOOOOOOOO;;;;;;XX,,,,,,,,,,,,,,,,,,,,",
",,,,,,,,,,,,,,,,  ##;;;;XX;;;;##;;;;    >>  ,,,,,,,,,,,,,,,,,,,,",
",,,,,,,,,,,,,,,,  ##;;;;XX;;;;##;;;;    >>  ,,,,,,,,,,,,,,,,,,,,",
",,,,,,,,,,,,,,  ++  ;;;;XX;;;;XX;;>>>>>>XX##  ,,,,,,,,,,,,,,,,,,",
",,,,,,,,,,,,,,  ++  ;;;;XX;;;;XX;;>>>>>>XX##  ,,,,,,,,,,,,,,,,,,",
",,,,,,,,,,,,,,  oo  ##;;;;XXXXXX##>>>>####--  ,,,,,,,,,,,,,,,,,,",
",,,,,,,,,,,,,,  oo  ##;;;;XXXXXX##>>>>####--  ,,,,,,,,,,,,,,,,,,",
",,,,,,,,,,,,,,  @@%%  ##;;;;XXXXXXXXXXXX--  ,,,,,,,,,,,,,,,,,,,,",
",,,,,,,,,,,,,,  @@%%  ##;;;;XXXXXXXXXXXX--  ,,,,,,,,,,,,,,,,,,,,",
",,,,,,,,,,,,,,  @@**%%  ########XXXXXX    ,,,,,,,,,,,,,,,,,,,,,,",
",,,,,,,,,,,,,,  @@**%%  ########XXXXXX    ,,,,,,,,,,,,,,,,,,,,,,",
",,,,,,,,,,,,,,  oo%%@@@@%%oooo  oooo  $$  ,,,,,,,,,,,,,,,,,,,,,,",
",,,,,,,,,,,,,,  oo%%@@@@%%oooo  oooo  $$  ,,,,,,,,,,,,,,,,,,,,,,",
",,,,,,,,,,,,,,  @@@@++++@@    $$&&$$oo@@$$  ,,,,,,,,,,,,,,,,,,,,",
",,,,,,,,,,,,,,  @@@@++++@@    $$&&$$oo@@$$  ,,,,,,,,,,,,,,,,,,,,",
",,,,,,,,,,,,,,  @@++@@@@++    &&&&&&  %%@@  ,,,,,,,,,,,,,,,,,,,,",
",,,,,,,,,,,,,,  @@++@@@@++    &&&&&&  %%@@  ,,,,,,,,,,,,,,,,,,,,",
",,,,,,,,,,,,  oo  @@++++@@    &&&&$$  @@%%  ,,,,,,,,,,,,,,,,,,,,",
",,,,,,,,,,,,  oo  @@++++@@    &&&&$$  @@%%  ,,,,,,,,,,,,,,,,,,,,",
",,,,,,,,,,,,  oooo  @@@@  OO  $$$$;;;;  XX  ,,,,,,,,,,,,,,,,,,,,",
",,,,,,,,,,,,  oooo  @@@@  OO  $$$$;;;;  XX  ,,,,,,,,,,,,,,,,,,,,",
",,,,,,,,,,,,,,  oooo    OOOOOO  ;;;;  ..  ##  ,,,,,,,,,,,,,,,,,,",
",,,,,,,,,,,,,,  oooo    OOOOOO  ;;;;  ..  ##  ,,,,,,,,,,,,,,,,,,",
",,,,,,,,,,,,,,,,    ##  OOOOOOOO    ..  ####  ,,,,,,,,,,,,,,,,,,",
",,,,,,,,,,,,,,,=    ##  OOOOOOOO    ..  ####  ,,,,,,,,,,,,,,,,,,",
",,,,,,,,,,,,,=====  &&&&  OO..      ######  ,,,,,,,,,,,,,,,,,,,,",
",,,,,,,,,,,,======  &&&&  OO..      ######  ,,,,,,,,,,,,,,,,,,,,",
",,,,,,,,,,,,========  &&&&    ========    ==,,,,,,,,,,,,,,,,,,,,",
",,,,,,,,,,,,========  &&&&    ========    ==,,,,,,,,,,,,,,,,,,,,",
",,,,,,,,,,,,==========    ==================,,,,,,,,,,,,,,,,,,,,",
",,,,,,,,,,,,==========    ==================,,,,,,,,,,,,,,,,,,,,",
",,,,,,,,,,,,,==============================,,,,,,,,,,,,,,,,,,,,,",
",,,,,,,,,,,,,,,==========================,,,,,,,,,,,,,,,,,,,,,,,",
",,,,,,,,,,,,,,,,,======================,,,,,,,,,,,,,,,,,,,,,,,,,",
",,,,,,,,,,,,,,,,,,,,,==============,,,,,,,,,,,,,,,,,,,,,,,,,,,,,"
};
