/* XPM */
static char *result[] = {
/* columns rows colors chars-per-pixel */
"22 54 3 1 ",
"  c #58B8C0",
". c #201808",
"X c #208088",
/* pixels */
"       ........       ",
"       ........       ",
"       ........       ",
"       ........       ",
"       ........       ",
"       ........       ",
"       ........       ",
"       ........       ",
"       ........       ",
"       ........       ",
"       ........       ",
"       ........       ",
"       ........       ",
"       ........       ",
"       ........       ",
"       ........       ",
"       ........       ",
"       ........       ",
"       ........       ",
"       ........       ",
"       ........       ",
"       ........       ",
"       ........       ",
"       ........       ",
"       ........       ",
"       ........       ",
"       ........       ",
"       ........       ",
"       ........       ",
"       ........       ",
"       ........       ",
"       ........       ",
"       ........       ",
"       ........       ",
"       ........       ",
"       ........       ",
"       ........       ",
"       ........       ",
"       ........       ",
"       ........       ",
"       ........       ",
"       ........       ",
"       ........       ",
"       ........       ",
"       ........       ",
"       ........       ",
"       ........       ",
"       ........       ",
"       ........       ",
"       ........       ",
"       XXXXXXXX       ",
"       XXXXXXXX       ",
"       XXXXXXXX       ",
"       XXXXXXXX       "
};
