/* XPM */
static char *result[] = {
/* columns rows colors chars-per-pixel */
"22 54 3 1 ",
"  c #201808",
". c #58B8C0",
"X c #208088",
/* pixels */
"       ....       ....",
"       ....       ....",
"       ....       ....",
"       ....       ....",
"       ....       ....",
"       ....       ....",
"       ....       ....",
"       ....       ....",
"       ....       ....",
"       ....       ....",
"       ....       ....",
"       ....       ....",
"       ....       ....",
"       ....       ....",
"       ....       ....",
"       ....       ....",
"       ....       ....",
"       ....       ....",
"       ....       ....",
"       ....       ....",
"       ....       ....",
"       ....       ....",
"       ....       ....",
"       ....       ....",
"       ....       ....",
"       ....       ....",
"       ....       ....",
"       ....       ....",
"       ....       ....",
"                      ",
"                      ",
"                      ",
"                      ",
"                      ",
"                      ",
"                      ",
"XXXXXXXXXXX       XXXX",
"XXXXXXXXXXX       XXXX",
"XXXXXXXXXXX       XXXX",
"XXXXXXXXXXX       XXXX",
"...........       ....",
"...........       ....",
"...........       ....",
"...........       ....",
"...........       ....",
"...........       ....",
"...........       ....",
"...........       ....",
"...........       ....",
"...........       ....",
"...........XXXXXXX....",
"...........XXXXXXX....",
"...........XXXXXXX....",
"...........XXXXXXX...."
};
