/* XPM */
static char *result[] = {
/* columns rows colors chars-per-pixel */
"22 54 3 1 ",
"  c #201808",
". c #208088",
"X c #58B8C0",
/* pixels */
"                      ",
"                      ",
"                      ",
"                      ",
"                      ",
"                      ",
"                      ",
"       ...............",
"       ...............",
"       ...............",
"       ...............",
"       XXXXXXXXXXXXXXX",
"       XXXXXXXXXXXXXXX",
"       XXXXXXXXXXXXXXX",
"       XXXXXXXXXXXXXXX",
"       XXXXXXXXXXXXXXX",
"       XXXXXXXXXXXXXXX",
"       XXXXXXXXXXXXXXX",
"       XXXXXXXXXXXXXXX",
"       XXXXXXXXXXXXXXX",
"       XXXXXXXXXXXXXXX",
"       XXXXXXXXXXXXXXX",
"                      ",
"                      ",
"                      ",
"                      ",
"                      ",
"                      ",
"                      ",
"...............       ",
"...............       ",
"...............       ",
"XXXXXXXXXXXXXXX       ",
"XXXXXXXXXXXXXXX       ",
"XXXXXXXXXXXXXXX       ",
"XXXXXXXXXXXXXXX       ",
"XXXXXXXXXXXXXXX       ",
"XXXXXXXXXXXXXXX       ",
"XXXXXXXXXXXXXXX       ",
"XXXXXXXXXXXXXXX       ",
"XXXXXXXXXXXXXXX       ",
"XXXXXXXXXXXXXXX       ",
"XXXXXXXXXXXXXXX       ",
"                      ",
"                      ",
"                      ",
"                      ",
"                      ",
"                      ",
"                      ",
"......................",
"......................",
"......................",
"......................"
};
