/* XPM */
static char *result[] = {
/* columns rows colors chars-per-pixel */
"64 64 17 1 ",
"  c black",
". c #683728",
"X c #801010",
"o c #F03729",
"O c #B86011",
"+ c #805028",
"@ c #A0584F",
"# c #D05040",
"$ c #A9000000",
"% c #F08010",
"& c #F8C001",
"* c #C09049",
"= c #D8B870",
"- c #F8E8A8",
"; c #C0C0C0",
": c #E8E8F8",
"> c None",
/* pixels */
">>>>>>>>>>>>>>>>>>>>>>>>>>>>>>>>>>>>>>>>>>>>>>>>>>>>>>>>>>>>>>>>",
">>>>>>>>>>>>>>>>>>>>>>>>>>>>>>>>>>>>>>>>>>>>>>>>>>>>>>>>>>>>>>>>",
">>>>>>>>>>>>>>>>>>>>>>>>>>>>>>>>>>>>>>>>>>>>>>>>>>>>>>>>>>>>>>>>",
">>>>>>>>>>>>>>>>>>>>>>>>>>>>>>>>>>>>>>>>>>>>>>>>>>>>>>>>>>>>>>>>",
">>>>>>>>>>>>>>>>>>>>>>>>>>>>>>>>>>>>>>>>>>>>>>>>>>>>>>>>>>>>>>>>",
">>>>>>>>>>>>>>>>>>>>>>>>>>>>>>>>>>>>>>>>>>>>>>>>>>>>>>>>>>>>>>>>",
">>>>>>>>>>>>>>>>>>>>>>>>>>>>>>>>>>>>>>>>>>>>>>>>>>>>>>>>>>>>>>>>",
">>>>>>>>>>>>>>>>>>>>>>>>>>>>>>>>>>>>>>>>>>>>>>>>>>>>>>>>>>>>>>>>",
">>>>>>>>>>>>>>>>>>>>>>>>>>>>>>>>>>>>>>>>>>>>>>>>>>>>>>>>>>>>>>>>",
">>>>>>>>>>>>>>>>>>>>>>>>>>>>>>>>>>>>>>>>>>>>>>>>>>>>>>>>>>>>>>>>",
">>>>>>>>>>>>>>>>>>>>>>>>>>>>>>>>>>>>>>>>>>>>>>>>>>>>>>>>>>>>>>>>",
">>>>>>>>>>>>>>>>>>>>>>>>>>>>>>>>>>>>>>>>>>>>>>>>>>>>>>>>>>>>>>>>",
">>>>>>>>>>>>>>>>>>>>>>>>>>>>>>>>>>>>>>>>>>>>>>>>>>>>>>>>>>>>>>>>",
">>>>>>>>>>>>>>>>>>>>>>>>>>>>>>>>>>>>>>>>>>>>>>>>>>>>>>>>>>>>>>>>",
">>>>>>>>>>>>>>>>>>>>>>>>>>>>>>>>>>>>>>>>>>>>>>>>>>>>>>>>>>>>>>>>",
">>>>>>>>>>>>>>>>>>>>>>>>>>>>>>>>>>>>>>>>>>>>>>>>>>>>>>>>>>>>>>>>",
">>>>>>>>>>>>>>>>>>>>>>>>>>>>>>>>>>>>>>>>>>>>>>>>>>>>>>>>>>>>>>>>",
">>>>>>>>>>>>>>>>>>>>>>>>>>>>>>>>>>>>>>>>>>>>>>>>>>>>>>>>>>>>>>>>",
">>>>>>>>>>>>>>>>>>>>>>>>>>>>>>>>>>>>>>>>>>>>>>>>>>>>>>>>>>>>>>>>",
">>>>>>>>>>>>>>>>>>>>>>>>>>>>>>>>>>>>>>>>>>>>>>>>>>>>>>>>>>>>>>>>",
">>>>>>>>>>>>>>>>>>>>>>>>>>>>>>>>>>>>>>>>>>>>>>>>>>>>>>>>>>>>>>>>",
">>>>>>>>>>>>>>>>>>>>>>>>>>>>>>>>>>>>>>>>>>>>>>>>>>>>>>>>>>>>>>>>",
">>>>>>>>>>>>>>>>>>>>>>>>>>>>>>>>....>>>>>>>>>>>>>>>>>>>>>>>>>>>>",
">>>>>>>>>>>>>>>>>>>>>>>>>>>>>>>>....>>>>>>>>>>>>>>>>>>>>>>>>>>>>",
">>>>>>>>>>>>>>>>>>>>>>>>>>>>>>>>..%%..>>>>>>>>>>>>>>>>>>>>>>>>>>",
">>>>>>>>>>>>>>>>>>>>>>>>>>>>>>>>..%%..>>>>>>>>>>>>>>>>>>>>>>>>>>",
">>>>>>>>>>>>>>>>>>>>>>>>>>>>....OO%%..>>>>>>>>>>>>>>>>>>>>>>>>>>",
">>>>>>>>>>>>>>>>>>>>>>>>>>>>....OO%%..>>>>>>>>>>>>>>>>>>>>>>>>>>",
">>>>>>>>>>>>>>>>>>>>>>>>  ..%%OO%%%%%%..>>>>>>>>>>>>>>>>>>>>>>>>",
">>>>>>>>>>>>>>>>>>>>>>>>  ..%%OO%%%%%%..>>>>>>>>>>>>>>>>>>>>>>>>",
">>>>>>>>>>>>>>>>>>>>>>  %%%%%%OO%%%%OO..>>>>>>>>>>>>>>>>>>>>>>>>",
">>>>>>>>>>>>>>>>>>>>>>  %%%%%%OO%%%%OO..>>>>>>>>>>>>>>>>>>>>>>>>",
">>>>>>>>>>>>>>>>>>>>  %%%%%%%%%%OOOO..OO..>>>>>>>>>>>>>>>>>>>>>>",
">>>>>>>>>>>>>>>>>>>>  %%%%%%%%%%OOOO..OO..>>>>>>>>>>>>>>>>>>>>>>",
">>>>>>>>>>>>>>>>>>>>..%%%%%%%%%%%%%%%%OO..>>>>>>>>>>>>>>>>>>>>>>",
">>>>>>>>>>>>>>>>>>>>..%%%%%%%%%%%%%%%%OO..>>>>>>>>>>>>>>>>>>>>>>",
">>>>>>>>>>>>>>>>>>..%%%%--%%%%%%%%%%%%%%..>>>>>>>>>>>>>>>>>>>>>>",
">>>>>>>>>>>>>>>>>>..%%%%--%%%%%%%%%%%%%%..>>>>>>>>>>>>>>>>>>>>>>",
">>>>>>>>>>>>>>>>>>..%%------%%OO    %%%%..>>>>>>>>>>>>>>>>>>>>>>",
">>>>>>>>>>>>>>>>>>..%%------%%OO    %%%%..>>>>>>>>>>>>>>>>>>>>>>",
">>>>>>>>>>>>>>>>>>  ----##@@--  ----  %%..>>>>>>>>>>>>>>>>>>>>>>",
">>>>>>>>>>>>>>>>>>  ----##@@--  ----  %%..>>>>>>>>>>>>>>>>>>>>>>",
">>>>>>>>>>>>>>>>>>  --==@@;;**--##==..OO..>>>>>>>>>>>>>>>>>>>>>>",
">>>>>>>>>>>>>>>>>>  --==@@;;**--##==..OO..>>>>>>>>>>>>>>>>>>>>>>",
">>>>>>>>>>>>>>>>>>  ====  ::==####==....>>>>>>>>>>>>>>>>>>>>>>>>",
">>>>>>>>>>>>>>>>>>  ====  ::==####==....>>>>>>>>>>>>>>>>>>>>>>>>",
">>>>>>>>>>>>>>>>>>>>  ..====**##==  ..>>>>XXXX>>>>>>>>>>>>>>>>>>",
">>>>>>>>>>>>>>>>>>>>  ..====**##==  ..>>>>XXXX>>>>>>>>>>>>>>>>>>",
">>>>>>>>>>>>>>>>>>>>>>>>    ..**  ..>>XXXX&&XX>>>>>>>>>>>>>>>>>>",
">>>>>>>>>>>>>>>>>>>>>>>>    ..**  ..>>XXXX&&XX>>>>>>>>>>>>>>>>>>",
">>>>>>>>>>>>>>>>>>>>>>>>>>..OO%%OO..XX&&&&ooXX>>>>>>>>>>>>>>>>>>",
">>>>>>>>>>>>>>>>>>>>>>>>>>..OO%%OO..XX&&&&ooXX>>>>>>>>>>>>>>>>>>",
">>>>>>>>>>>>>>>>>>>>>>>>>>  **==..OOXX&&ooXX>>>>>>>>>>>>>>>>>>>>",
">>>>>>>>>>>>>>>>>>>>>>>>>>  **==..OOXX&&ooXX>>>>>>>>>>>>>>>>>>>>",
">>>>>>>>>>>>>>>>>>>>>>$$$$..    OOOOooooooXX>>>>>>>>>>>>>>>>>>>>",
">>>>>>>>>>>>>>>>>>>>$$$$$$..    OOOOooooooXX$$>>>>>>>>>>>>>>>>>>",
">>>>>>>>>>>>>>>>>>>$$$$$$$  ****OO  ..XXXX$$$$$>>>>>>>>>>>>>>>>>",
">>>>>>>>>>>>>>>>>>>$$$$$$$  ****OO  ..XXXX$$$$$>>>>>>>>>>>>>>>>>",
">>>>>>>>>>>>>>>>>>>$$$$$$$$$    ..++$$$$$$$$$$$>>>>>>>>>>>>>>>>>",
">>>>>>>>>>>>>>>>>>>>$$$$$$$$    ..++$$$$$$$$$$>>>>>>>>>>>>>>>>>>",
">>>>>>>>>>>>>>>>>>>>>$$$$$$$$$$$$$$$$$$$$$$$$>>>>>>>>>>>>>>>>>>>",
">>>>>>>>>>>>>>>>>>>>>>>>$$$$$$$$$$$$$$$$$$>>>>>>>>>>>>>>>>>>>>>>",
">>>>>>>>>>>>>>>>>>>>>>>>>>>>>>$$$$$$>>>>>>>>>>>>>>>>>>>>>>>>>>>>",
">>>>>>>>>>>>>>>>>>>>>>>>>>>>>>>>>>>>>>>>>>>>>>>>>>>>>>>>>>>>>>>>"
};
