/* XPM */
static char *result[] = {
/* columns rows colors chars-per-pixel */
"64 64 16 1 ",
"  c black",
". c #683728",
"X c #801010",
"o c #F03729",
"O c #B86011",
"+ c #A0584F",
"@ c #D05040",
"# c #A9000000",
"$ c #F08010",
"% c #F8C001",
"& c #C09049",
"* c #D8B870",
"= c #F8E8A8",
"- c #C0C0C0",
"; c #E8E8F8",
": c None",
/* pixels */
"::::::::::::::::::::::::::::::::::::::::::::::::::::::::::::::::",
"::::::::::::::::::::::::::::::::::::::::::::::::::::::::::::::::",
"::::::::::::::::::::::::::::::::::::::::::::::::::::::::::::::::",
"::::::::::::::::::::::::::::::::::::::::::::::::::::::::::::::::",
"::::::::::::::::::::::::::::::::::::::::::::::::::::::::::::::::",
"::::::::::::::::::::::::::::::::::::::::::::::::::::::::::::::::",
"::::::::::::::::::::::::::::::::::::::::::::::::::::::::::::::::",
"::::::::::::::::::::::::::::::::::::::::::::::::::::::::::::::::",
"::::::::::::::::::::::::::::::::::::::::::::::::::::::::::::::::",
"::::::::::::::::::::::::::::::::::::::::::::::::::::::::::::::::",
"::::::::::::::::::::::::::::::::::::::::::::::::::::::::::::::::",
"::::::::::::::::::::::::::::::::::::::::::::::::::::::::::::::::",
"::::::::::::::::::::::::::::::::::::::::::::::::::::::::::::::::",
"::::::::::::::::::::::::::::::::::::::::::::::::::::::::::::::::",
"::::::::::::::::::::::::::::::::::::::::::::::::::::::::::::::::",
"::::::::::::::::::::::::::::::::::::::::::::::::::::::::::::::::",
"::::::::::::::::::::::::::::::::::::::::::::::::::::::::::::::::",
"::::::::::::::::::::::::::::::::::::::::::::::::::::::::::::::::",
"::::::::::::::::::::::::::::::::::::::::::::::::::::::::::::::::",
"::::::::::::::::::::::::::::::::::::::::::::::::::::::::::::::::",
"::::::::::::::::::::::::::::::::::::::::::::::::::::::::::::::::",
"::::::::::::::::::::::::::::::::::::::::::::::::::::::::::::::::",
"::::::::::::::::::::::::::::::::....::::::::::::::::::::::::::::",
"::::::::::::::::::::::::::::::::....::::::::::::::::::::::::::::",
"::::::::::::::::::::::::::::::::..$$..::::::::::::::::::::::::::",
"::::::::::::::::::::::::::::::::..$$..::::::::::::::::::::::::::",
"::::::::::::::::::::::::::::....OO$$..::::::::::::::::::::::::::",
"::::::::::::::::::::::::::::....OO$$..::::::::::::::::::::::::::",
"::::::::::::::::::::::::  ..$$OO$$$$$$..::::::::::::::::::::::::",
"::::::::::::::::::::::::  ..$$OO$$$$$$..::::::::::::::::::::::::",
"::::::::::::::::::::::  $$$$$$OO$$$$OO..::::::::::::::::::::::::",
"::::::::::::::::::::::  $$$$$$OO$$$$OO..::::::::::::::::::::::::",
"::::::::::::::::::::  $$$$$$$$$$OOOO..OO..::::::::::::::::::::::",
"::::::::::::::::::::  $$$$$$$$$$OOOO..OO..::::::::::::::::::::::",
"::::::::::::::::::::..$$$$$$$$$$$$$$$$OO..::::::::::::::::::::::",
"::::::::::::::::::::..$$$$$$$$$$$$$$$$OO..::::::::::::::::::::::",
"::::::::::::::::::..$$$$==$$$$$$$$$$$$$$..::::::::::::::::::::::",
"::::::::::::::::::..$$$$==$$$$$$$$$$$$$$..::::::::::::::::::::::",
"::::::::::::::::::..$$======$$OO    $$$$..::::::::::::::::::::::",
"::::::::::::::::::..$$======$$OO    $$$$..::::::::::::::::::::::",
"::::::::::::::::::  ====@@++==  ====  $$..::::::::::::::::::::::",
"::::::::::::::::::  ====@@++==  ====  $$..::::::::::::::::::::::",
"::::::::::::::::::  ==**++--&&==@@**..OO..::::::::::::::::::::::",
"::::::::::::::::::  ==**++--&&==@@**..OO..::::::::::::::::::::::",
"::::::::::::::::::  ****  ;;**@@@@**....::::::::::::::::::::::::",
"::::::::::::::::::  ****  ;;**@@@@**....::::::::::::::::::::::::",
"::::::::::::::::::::  ..****&&@@**  ..::::::::::::::::::::::::::",
"::::::::::::::::::::  ..****&&@@**  ..::::::::::::::::::::::::::",
"::::::::::::::::::::::::    ..&&  ..::XXXXXXXXXX::::::::::::::::",
"::::::::::::::::::::::::    ..&&  ..::XXXXXXXXXX::::::::::::::::",
"::::::::::::::::::::::::::..OO$$OO..XX%%%%oo%%XX::::::::::::::::",
"::::::::::::::::::::::::::..OO$$OO..XX%%%%oo%%XX::::::::::::::::",
"::::::::::::::::::::::::..**&&....OOXX%%ooooXX::::::::::::::::::",
"::::::::::::::::::::::::..**&&....OOXX%%ooooXX::::::::::::::::::",
"::::::::::::::::::::::##..    OOOOOOOOooooXX::::::::::::::::::::",
"::::::::::::::::::::####..    OOOOOOOOooooXX##::::::::::::::::::",
":::::::::::::::::::#########..  &&&&  XXXX#####:::::::::::::::::",
":::::::::::::::::::#########..  &&&&  XXXX#####:::::::::::::::::",
":::::::::::::::::::#############    ###########:::::::::::::::::",
"::::::::::::::::::::############    ##########::::::::::::::::::",
":::::::::::::::::::::########################:::::::::::::::::::",
"::::::::::::::::::::::::##################::::::::::::::::::::::",
"::::::::::::::::::::::::::::::######::::::::::::::::::::::::::::",
"::::::::::::::::::::::::::::::::::::::::::::::::::::::::::::::::"
};
