/* XPM */
static char *result[] = {
/* columns rows colors chars-per-pixel */
"64 64 13 1 ",
"  c black",
". c #683728",
"X c #B86011",
"o c #805028",
"O c #D05040",
"+ c #A9000000",
"@ c #F08010",
"# c #C09049",
"$ c #D8B870",
"% c #F8E8A8",
"& c #C0C0C0",
"* c #E8E8F8",
"= c None",
/* pixels */
"================================================================",
"================================================================",
"================================================================",
"================================================================",
"================================================================",
"================================================================",
"================================================================",
"================================================================",
"================================================================",
"================================================================",
"================================================================",
"================================================================",
"================================================================",
"================================================================",
"================================================================",
"================================================================",
"================================================================",
"================================================================",
"================================================================",
"================================================================",
"================================================================",
"================================================================",
"============================....================================",
"============================....================================",
"============================..@@..==============================",
"============================..@@..==============================",
"==========================..XX@@@@..============================",
"==========================..XX@@@@..============================",
"========================....@@@@XX....==========================",
"========================....@@@@XX....==========================",
"======================..@@XX@@@@XX@@@@..========================",
"======================..@@XX@@@@XX@@@@..========================",
"====================..@@@@@@XXXX@@@@@@@@..======================",
"====================..@@@@@@XXXX@@@@@@@@..======================",
"==================    XX@@@@@@@@@@@@@@XX    ====================",
"==================    XX@@@@@@@@@@@@@@XX    ====================",
"================  %%%%  @@@@@@@@@@@@@@  %%%%  ==================",
"================  %%%%  @@@@@@@@@@@@@@  %%%%  ==================",
"================..$$OOXX$$%%@@@@%%@@$$XXOO$$..==================",
"================..$$OOXX$$%%@@@@%%@@$$XXOO$$..==================",
"================..$$OO%%..OO%%@@%%OO..%%OO$$..==================",
"================..$$OO%%..OO%%@@%%OO..%%OO$$..==================",
"==================..OO$$&&..%%%%%%..&&$$OO..====================",
"==================..OO$$&&..%%%%%%..&&$$OO..====================",
"====================  @@**  %%%%%%  **@@  ======================",
"====================  @@**  %%%%%%  **@@  ======================",
"======================  $$$$$$$$$$$$$$  ========================",
"======================  $$$$$$$$$$$$$$  ========================",
"====================..oo    ##$$##    oo========================",
"====================..oo    ##$$##    oo========================",
"====================  ##XXXX      ..@@##..======================",
"====================  ##XXXX      ..@@##..======================",
"======================  ..@@$$%%$$@@oo$$..======================",
"======================  ..@@$$%%$$@@oo$$..======================",
"====================++..XXXX##$$##XX    ++======================",
"==================++++..XXXX##$$##XX    ++++====================",
"=================+++++..##$$      ....+++++++===================",
"=================+++++..##$$      ....+++++++===================",
"=================+++++++    +++++++++++++++++===================",
"==================++++++    ++++++++++++++++====================",
"===================++++++++++++++++++++++++=====================",
"=====================++++++++++++++++++++=======================",
"============================++++++==============================",
"================================================================"
};
