/* XPM */
static char *result[] = {
/* columns rows colors chars-per-pixel */
"64 64 13 1 ",
"  c black",
". c #683728",
"X c #801010",
"o c #F03729",
"O c #B86011",
"+ c #805028",
"@ c #A9000000",
"# c #F08010",
"$ c #F8C001",
"% c #C09049",
"& c #D8B870",
"* c #F8E8A8",
"= c None",
/* pixels */
"================================================================",
"================================================================",
"================================================================",
"================================================================",
"================================================================",
"================================================================",
"================================================================",
"================================================================",
"================================================================",
"================================================================",
"================================================================",
"================================================================",
"================================================================",
"================================================================",
"================================================================",
"================================================================",
"================================================================",
"================================================================",
"================================================================",
"================================================================",
"================================================================",
"================================================================",
"==============================....==============================",
"==============================....==============================",
"============================..##..==============================",
"============================..##..==============================",
"==========================..####OO..============================",
"==========================..####OO..============================",
"========================  ..OO####..  ==========================",
"========================  ..OO####..  ==========================",
"======================  ####OO####OO##  ========================",
"======================  ####OO####OO##  ========================",
"====================..########OOOO######..======================",
"====================..########OOOO######..======================",
"==================  ..##################..  ====================",
"==================  ..##################..  ====================",
"================  **..##################..**  ==================",
"================  **..##################..**  ==================",
"================  **++OO##############OO++**  ==================",
"================  **++OO##############OO++**  ==================",
"================..&&%%OOOOOO######OOOOOO%%&&..==================",
"================..&&%%OOOOOO######OOOOOO%%&&..==================",
"==================..&&%%OOOOOOOOOOOOOO%%&&..====================",
"==================..&&%%OOOOOOOOOOOOOO%%&&..====================",
"====================  %%%%OOXXXXOOOO%%%%  ======================",
"====================  %%%%OOXXXXOOOO%%%%  ======================",
"======================    %%ooXX%%%%    ========================",
"======================    %%ooXX%%%%    ========================",
"======================....  oo$$XX  ..OO..======================",
"======================....  oo$$XX  ..OO..======================",
"====================..OO##XXoo$$$$OO##++  ======================",
"====================..OO##XXoo$$$$OO##++  ======================",
"====================  ++OOXXoooo$$XX##  ========================",
"====================  ++OOXXoooo$$XX##  ========================",
"====================@@  OO++XXooooXXOO  @@======================",
"==================@@@@  OO++XXooooXXOO  @@@@====================",
"=================@@@@@@@......XXXX%%%%..@@@@@===================",
"=================@@@@@@@......XXXX%%%%..@@@@@===================",
"=================@@@@@@@@@@@@@@@@@    @@@@@@@===================",
"==================@@@@@@@@@@@@@@@@    @@@@@@====================",
"===================@@@@@@@@@@@@@@@@@@@@@@@@=====================",
"======================@@@@@@@@@@@@@@@@@@========================",
"============================@@@@@@==============================",
"================================================================"
};
