/* XPM */
static char *result[] = {
/* columns rows colors chars-per-pixel */
"64 65 14 1 ",
"  c black",
". c #384050",
"X c #784040",
"o c #B83848",
"O c #D86878",
"+ c #A9000000",
"@ c #D8A078",
"# c #386088",
"$ c #6070B8",
"% c #5880E0",
"& c #A8A0C8",
"* c #C8C8D8",
"= c #E8E8F8",
"- c None",
/* pixels */
"----------------------------------------------------------------",
"----------------------------------------------------------------",
"----------------------------------------------------------------",
"----------------------------------------------------------------",
"----------------------------------------------------------------",
"----------------------------------------------------------------",
"----------------------------------------------------------------",
"----------------------------------------------------------------",
"----------------------------------------------------------------",
"----------------------------------------------------------------",
"----------------------------------------------------------------",
"----------------------------------------------------------------",
"----------------------------------------------------------------",
"----------------------------------------------------------------",
"----------------------------------------------------------------",
"----------------------------------------------------------------",
"----------------------------------------------------------------",
"-------------------------oooooooooooooo-------------------------",
"-------------------------oooooooooooooo-------------------------",
"---------------------ooooOOOOOOOOOOOOOOoooo---------------------",
"---------------------ooooOOOOOOOOOOOOOOoooo---------------------",
"-------------------XXOOOOOOOOOOOOOOOOOOOOOOXX-------------------",
"-------------------XXOOOOOOOOOOOOOOOOOOOOOOXX-------------------",
"-----------------  OOOOOOOOOOOOOOOOOOOOOOOOOO  -----------------",
"-----------------  OOOOOOOOOOOOOOOOOOOOOOOOOO  -----------------",
"---------------  ooOOOOOOooooooooooooooOOOOOOoo  ---------------",
"---------------  ooOOOOOOooooooooooooooOOOOOOoo  ---------------",
"---------------  ooooooooOOOOOOOOOOOOOOoooooooo  ---------------",
"---------------  ooooooooOOOOOOOOOOOOOOoooooooo  ---------------",
"---------------  ooOOOOOOOOOOOOOOOOOOOOOOOOOOoo  ---------------",
"---------------  ooOOOOOOOOOOOOOOOOOOOOOOOOOOoo  ---------------",
"-----------------  ooooOOOOOOOOOOOOOOOOOOoooo  -----------------",
"-----------------  ooooOOOOOOOOOOOOOOOOOOoooo  -----------------",
"-----------------  oooooooooooooooooooooooooo  -----------------",
"-----------------  oooooooooooooooooooooooooo  -----------------",
"---------------  @@XXooooooooooooooooooooooXX@@  ---------------",
"---------------  @@XXooooooooooooooooooooooXX@@  ---------------",
"---------------  @@XX..XXooooooooooooooXX..XX@@  ---------------",
"---------------  @@XX..XXooooooooooooooXX..XX@@  ---------------",
"-----------------    ##..................##    -----------------",
"-----------------    ##..................##    -----------------",
"-------------------  @@####..........####@@  -------------------",
"-------------------  @@####..........####@@  -------------------",
"---------------------  ..&&          &&..  ---------------------",
"---------------------  ..&&          &&..  ---------------------",
"---------------------  %%##====%%====##%%  ---------------------",
"---------------------  %%##====%%====##%%  ---------------------",
"-------------------  %%%%**==%%**%%==**..%%  -------------------",
"-------------------  %%%%**==%%**%%==**..%%  -------------------",
"-----------------  @@XX..****%%**%%****..XX@@  -----------------",
"-----------------  @@XX..****%%**%%****..XX@@  -----------------",
"-----------------  @@  ..****%%%%%%****    @@  -----------------",
"-----------------  @@  ..****%%%%%%****    @@  -----------------",
"-------------------  ....  **********  ....  -------------------",
"-------------------  ....  **********  ....  -------------------",
"------------------+  ..$$**$$      $$**$$..  +------------------",
"-----------------++  ..$$**$$      $$**$$..  ++-----------------",
"-----------------++++  $$****      ****$$  +++++----------------",
"-----------------++++  $$****      ****$$  +++++----------------",
"-----------------++++++++    ++++++    ++++++++-----------------",
"------------------+++++++    ++++++    +++++++------------------",
"--------------------+++++++++++++++++++++++++-------------------",
"----------------------+++++++++++++++++++++---------------------",
"-------------------------++++++++++++++-------------------------",
"----------------------------------------------------------------"
};
