/* XPM */
static char *result[] = {
/* columns rows colors chars-per-pixel */
"64 64 11 1 ",
"  c black",
". c #282828",
"X c #605020",
"o c #383860",
"O c #A9000000",
"+ c #D08818",
"@ c #F8C858",
"# c #404890",
"$ c #5080A0",
"% c #78C0F0",
"& c None",
/* pixels */
"&&&&&&&&&&&&&&&&&&&&&&&&&&&&&&&&&&&&&&&&&&&&&&&&&&&&&&&&&&&&&&&&",
"&&&&&&&&&&&&&&&&&&&&&&&&&&&&&&&&&&&&&&&&&&&&&&&&&&&&&&&&&&&&&&&&",
"&&&&&&&&&&&&&&&&&&&&&&&&&&&&&&&&&&&&&&&&&&&&&&&&&&&&&&&&&&&&&&&&",
"&&&&&&&&&&&&&&&&&&&&&&&&&&&&&&&&&&&&&&&&&&&&&&&&&&&&&&&&&&&&&&&&",
"&&&&&&&&&&&&&&&&&&&&&&&&&&&&&&&&&&&&&&&&&&&&&&&&&&&&&&&&&&&&&&&&",
"&&&&&&&&&&&&&&&&&&&&&&&&&&&&&&&&&&&&&&&&&&&&&&&&&&&&&&&&&&&&&&&&",
"&&&&&&&&&&&&&&&&&&&&&&&&&&&&&&&&&&&&&&&&&&&&&&&&&&&&&&&&&&&&&&&&",
"&&&&&&&&&&&&&&&&&&&&&&&&&&&&&&&&&&&&&&&&&&&&&&&&&&&&&&&&&&&&&&&&",
"&&&&&&&&&&&&&&&&&&&&&&&&&&&&&&&&&&&&&&&&&&&&&&&&&&&&&&&&&&&&&&&&",
"&&&&&&&&&&&&&&&&&&&&&&&&&&&&&&&&&&&&&&&&&&&&&&&&&&&&&&&&&&&&&&&&",
"&&&&&&&&&&&&&&&&&&&&&&&&&&&&&&&&&&&&&&&&&&&&&&&&&&&&&&&&&&&&&&&&",
"&&&&&&&&&&&&&&&&&&&&&&&&&&&&&&&&&&&&&&&&&&&&&&&&&&&&&&&&&&&&&&&&",
"&&&&&&&&&&&&&&&&&&&&&&&&&&&&&&&&&&&&&&&&&&&&&&&&&&&&&&&&&&&&&&&&",
"&&&&&&&&&&&&&&&&&&&&&&&&&&&&&&  &&&&&&&&&&&&&&&&&&&&&&&&&&&&&&&&",
"&&&&&&&&&&&&&&&&&&&&&&&&&&&&&&  &&&&&&&&&&&&&&&&&&&&&&&&&&&&&&&&",
"&&&&&&&&&&&&&&&&&&&&&&&&&&&&  @@  &&&&&&&&&&&&&&&&&&&&&&&&&&&&&&",
"&&&&&&&&&&&&&&&&&&&&&&&&&&&&  @@  &&&&&&&&&&&&&&&&&&&&&&&&&&&&&&",
"&&&&&&&&&&&&&&&&&&&&&&  &&&&XX@@XX&&&&  &&&&&&&&&&&&&&&&&&&&&&&&",
"&&&&&&&&&&&&&&&&&&&&&&  &&&&XX@@XX&&&&  &&&&&&&&&&&&&&&&&&&&&&&&",
"&&&&&&&&&&&&&&&&&&&&  @@  XX++@@++XX  @@  &&&&&&&&&&&&&&&&&&&&&&",
"&&&&&&&&&&&&&&&&&&&&  @@  XX++@@++XX  @@  &&&&&&&&&&&&&&&&&&&&&&",
"&&&&&&&&&&&&&&&&&&&&  @@@@          @@@@  &&&&&&&&&&&&&&&&&&&&&&",
"&&&&&&&&&&&&&&&&&&&&  @@@@          @@@@  &&&&&&&&&&&&&&&&&&&&&&",
"&&&&&&&&&&&&&&&&&&&&  ++  ##########  ++  &&&&&&&&&&&&&&&&&&&&&&",
"&&&&&&&&&&&&&&&&&&&&  ++  ##########  ++  &&&&&&&&&&&&&&&&&&&&&&",
"&&&&&&&&&&&&&&&&&&&&..  ##############  ..&&&&&&&&&&&&&&&&&&&&&&",
"&&&&&&&&&&&&&&&&&&&&..  ##############  ..&&&&&&&&&&&&&&&&&&&&&&",
"&&&&&&&&&&&&&&&&    ..  ##############  ..    &&&&&&&&&&&&&&&&&&",
"&&&&&&&&&&&&&&&&    ..  ##############  ..    &&&&&&&&&&&&&&&&&&",
"&&&&&&&&&&&&&&&&  %%  ##################  %%  &&&&&&&&&&&&&&&&&&",
"&&&&&&&&&&&&&&&&  %%  ##################  %%  &&&&&&&&&&&&&&&&&&",
"&&&&&&&&&&&&&&&&  $$  ##################  $$  &&&&&&&&&&&&&&&&&&",
"&&&&&&&&&&&&&&&&  $$  ##################  $$  &&&&&&&&&&&&&&&&&&",
"&&&&&&&&&&&&&&&&&&....##################....&&&&&&&&&&&&&&&&&&&&",
"&&&&&&&&&&&&&&&&&&....##################....&&&&&&&&&&&&&&&&&&&&",
"&&&&&&&&&&&&&&&&..##########################..&&&&&&&&&&&&&&&&&&",
"&&&&&&&&&&&&&&&&..##########################..&&&&&&&&&&&&&&&&&&",
"&&&&&&&&&&&&&&..########++##########++########..&&&&&&&&&&&&&&&&",
"&&&&&&&&&&&&&&..########++##########++########..&&&&&&&&&&&&&&&&",
"&&&&&&&&&&&&&&..####..++@@XX##..##XX@@++..####..&&&&&&&&&&&&&&&&",
"&&&&&&&&&&&&&&..####..++@@XX##..##XX@@++..####..&&&&&&&&&&&&&&&&",
"&&&&&&&&&&&&  ######..++@@XX..%%..XX@@++..######  &&&&&&&&&&&&&&",
"&&&&&&&&&&&&  ######..++@@XX..%%..XX@@++..######  &&&&&&&&&&&&&&",
"&&&&&&&&&&&&  ####  ##XX++##..%%..##++XX##  ####  &&&&&&&&&&&&&&",
"&&&&&&&&&&&&  ####  ##XX++##..%%..##++XX##  ####  &&&&&&&&&&&&&&",
"&&&&&&&&&&  ####%%  ########..$$..########  %%####  &&&&&&&&&&&&",
"&&&&&&&&&&  ####%%  ########..$$..########  %%####  &&&&&&&&&&&&",
"&&&&&&&&&&  ##%%%%..oo######..%%..######oo..%%%%##  &&&&&&&&&&&&",
"&&&&&&&&&&  ##%%%%..oo######..%%..######oo..%%%%##  &&&&&&&&&&&&",
"&&&&&&&&&&  ##%%  oooooooo  ..%%..  oooooooo  %%##  &&&&&&&&&&&&",
"&&&&&&&&&&  ##%%  oooooooo  ..%%..  oooooooo  %%##  &&&&&&&&&&&&",
"&&&&&&&&&&  $$  &&  oooooo  $$%%$$  oooooo  &&  $$  &&&&&&&&&&&&",
"&&&&&&&&&&  $$  &&  oooooo  $$%%$$  oooooo  &&  $$  &&&&&&&&&&&&",
"&&&&&&&&&&    &&&&&&..oooo  $$$$$$  oooo..  &&&&    &&&&&&&&&&&&",
"&&&&&&&&&&    &&&&&&..oooo  $$$$$$  oooo..  &&&&    &&&&&&&&&&&&",
"&&&&&&&&&&&&&&&&&&&&&&&&....  $$  oooo..  &&&&&&&&&&&&&&&&&&&&&&",
"&&&&&&&&&&&&&&&&&&&&&&&&....  $$  oooo..  &&&&&&&&&&&&&&&&&&&&&&",
"&&&&&&&&&&&&&&&&&&&&&OOOOOOOOO  ....++++  &&&&&&&&&&&&&&&&&&&&&&",
"&&&&&&&&&&&&&&&&&&&&OOOOOOOOOO  ....++++  O&&&&&&&&&&&&&&&&&&&&&",
"&&&&&&&&&&&&&&&&&&&OOOOOOOOOOOOOOO..    OOOO&&&&&&&&&&&&&&&&&&&&",
"&&&&&&&&&&&&&&&&&&&OOOOOOOOOOOOOOO..    OOOO&&&&&&&&&&&&&&&&&&&&",
"&&&&&&&&&&&&&&&&&&&OOOOOOOOOOOOOOOOOOOOOOOOO&&&&&&&&&&&&&&&&&&&&",
"&&&&&&&&&&&&&&&&&&&&OOOOOOOOOOOOOOOOOOOOOOO&&&&&&&&&&&&&&&&&&&&&",
"&&&&&&&&&&&&&&&&&&&&&OOOOOOOOOOOOOOOOOOOOO&&&&&&&&&&&&&&&&&&&&&&"
};
