/* XPM */
static char *result[] = {
/* columns rows colors chars-per-pixel */
"64 64 13 1 ",
"  c black",
". c #282828",
"X c #605020",
"o c #383860",
"O c #A9000000",
"+ c #D08818",
"@ c #F8C858",
"# c #404890",
"$ c #5080A0",
"% c #78C0F0",
"& c #B8C0F8",
"* c #E8E8F8",
"= c None",
/* pixels */
"================================================================",
"================================================================",
"================================================================",
"================================================================",
"================================================================",
"================================================================",
"================================================================",
"================================================================",
"================================================================",
"================================================================",
"================================================================",
"==========================XXXX==================================",
"==========================XXXX==================================",
"====================  ==XX++XX==================================",
"====================  ==XX++XX==================================",
"==================..@@  XX++XX==================================",
"==================..@@  XX++XX==================================",
"==================..@@    ++    ================================",
"==================..@@    ++    ================================",
"==================..@@@@..  @@  ================================",
"==================..@@@@..  @@  ================================",
"==================..@@..##@@@@  ..==============================",
"==================..@@..##@@@@  ..==============================",
"================..@@++..##++@@  ##..============================",
"================..@@++..##++@@  ##..============================",
"================..@@..####@@++  ##..============================",
"================..@@..####@@++  ##..============================",
"==============..XX++..####@@  ##..  ..==========================",
"==============..XX++..####@@  ##..  ..==========================",
"==============..@@XX..**++@@  ..%%  ..==========================",
"==============..@@XX..**++@@  ..%%  ..==========================",
"==============XX@@..##**@@++  %%%%  ##  ========================",
"==============XX@@..##**@@++  %%%%  ##  ========================",
"================..@@@@@@++  %%$$$$  ##..========================",
"================..@@@@@@++  %%$$$$  ##..========================",
"================  $$$$$$%%%%      ..##..  ======================",
"================  $$$$$$%%%%      ..##..  ======================",
"================..$$%%%%....####..++..##  ======================",
"================..$$%%%%....####..++..##  ======================",
"==============..%%%%....oo######  ++XX..  ======================",
"==============..%%%%....oo######  ++XX..  ======================",
"==============..%%..&&oooo########  XX..  ..====================",
"==============..%%..&&oooo########  XX..  ..====================",
"============..%%%%$$oooo  ########  ....$$%%..==================",
"============..%%%%$$oooo  ########  ....$$%%..==================",
"============..%%$$&&oo  %%##########  oo$$$$%%..================",
"============..%%$$&&oo  %%##########  oo$$$$%%..================",
"==============..$$&&&&  %%%%########  oo$$$$$$%%..==============",
"==============..$$&&&&  %%%%########  oo$$$$$$%%..==============",
"================..&&##&&  %%######%%  oo$$$$......==============",
"================..&&##&&  %%######%%  oo$$$$......==============",
"==================..&&..oo  %%##%%  oo$$....====================",
"==================..&&..oo  %%##%%  oo$$....====================",
"==================..  oooooo  %%  oo....========================",
"==================..  oooooo  %%  oo....========================",
"===================O....oooooo  ....OOO=========================",
"==================OO....oooooo  ....OOOOO=======================",
"=================OOOOO..++++  ..OOOOOOOOO=======================",
"=================OOOOO..++++  ..OOOOOOOOOO======================",
"=================OOOOOOO    OOOOOOOOOOOOO=======================",
"==================OOOOOO    OOOOOOOOOOOOO=======================",
"===================OOOOOOOOOOOOOOOOOOOO=========================",
"======================OOOOOOOOOOOOOOO===========================",
"===========================OOOO================================="
};
