/* XPM */
static char *result[] = {
/* columns rows colors chars-per-pixel */
"64 64 15 1 ",
"  c black",
". c #605020",
"X c #303860",
"o c gray47",
"O c #A9000000",
"+ c #C89800",
"@ c #F8C018",
"# c #2858A8",
"$ c #3870B0",
"% c #4070C8",
"& c #7098B8",
"* c #78C8F0",
"= c #A8B0C8",
"- c #E8E8F8",
"; c None",
/* pixels */
";;;;;;;;;;;;;;;;;;;;;;;;;;;;;;;;;;;;;;;;;;;;;;;;;;;;;;;;;;;;;;;;",
";;;;;;;;;;;;;;;;;;;;;;;;;;;;;;;;;;;;;;;;;;;;;;;;;;;;;;;;;;;;;;;;",
";;;;;;;;;;;;;;;;;;;;;;;;;;;;;;;;;;;;;;;;;;;;;;;;;;;;;;;;;;;;;;;;",
";;;;;;;;;;;;;;;;;;;;;;;;;;;;;;;;;;;;;;;;;;;;;;;;;;;;;;;;;;;;;;;;",
";;;;;;;;;;;;;;;;;;;;;;;;;;;;;;;;;;;;;;;;;;;;;;;;;;;;;;;;;;;;;;;;",
";;;;;;;;;;;;;;;;;;;;;;;;;;;;;;;;;;;;;;;;;;;;;;;;;;;;;;;;;;;;;;;;",
";;;;;;;;;;;;;;;;;;;;;;;;;;;;;;;;;;;;;;;;;;;;;;;;;;;;;;;;;;;;;;;;",
";;;;;;;;;;;;;;;;;;;;;;;;;;;;;;;;;;;;;;;;;;;;;;;;;;;;;;;;;;;;;;;;",
";;;;;;;;;;;;;;;;;;;;;;;;;;;;;;;;;;;;;;;;;;;;;;;;;;;;;;;;;;;;;;;;",
";;;;;;;;;;;;;;;;;;;;;;;;;;;;;;;;;;;;;;;;;;;;;;;;;;;;;;;;;;;;;;;;",
";;;;;;;;;;;;;;;;;;;;;;;;;;;;;;;;;;;;;;;;;;;;;;;;;;;;;;;;;;;;;;;;",
";;;;;;;;;;;;;;;;;;;;;;;;;;;;;;;;;;;;;;;;;;;;;;;;;;;;;;;;;;;;;;;;",
";;;;;;;;;;;;;;;;;;;;;;;;;;;;;;;;;;;;;;;;;;;;;;;;;;;;;;;;;;;;;;;;",
";;;;;;;;;;;;;;;;;;;;;;;;;;;;;;;;;;;;;;;;;;;;;;;;;;;;;;;;;;;;;;;;",
";;;;;;;;;;;;;;;;;;;;;;;;;;;;;;;;;;;;;;;;;;;;;;;;;;;;;;;;;;;;;;;;",
";;;;;;;;;;;;;;;;;;;;;;;;;;;;;;;;;;;;;;;;;;;;;;;;;;;;;;;;;;;;;;;;",
";;;;;;;;;;;;;;;;;;;;;;;;;;;;;;;;;;;;;;;;;;;;;;;;;;;;;;;;;;;;;;;;",
";;;;;;;;;;;;;;;;;;;;;;;;;;;;;;;;;;;;;;;;;;;;;;;;;;;;;;;;;;;;;;;;",
";;;;;;;;;;;;;;;;;;;;;;;;;;;;;;;;;;;;;;;;;;;;;;;;;;;;;;;;;;;;;;;;",
";;;;;;;;;;;;;;;;;;;;;;;;;;;;;;;;......;;;;;;;;;;;;;;;;;;;;;;;;;;",
";;;;;;;;;;;;;;;;;;;;;;;;;;;;;;;;......;;;;;;;;;;;;;;;;;;;;;;;;;;",
";;;;;;;;;;;;;;;;;;;;;;;;;;;;;;..@@@@@@..;;;;;;;;;;;;;;;;;;;;;;;;",
";;;;;;;;;;;;;;;;;;;;;;;;;;;;;;..@@@@@@..;;;;;;;;;;;;;;;;;;;;;;;;",
";;;;;;;;;;;;;;;;;;;;;;;;;;;;..++++++++@@..;;;;;;;;;;;;;;;;;;;;;;",
";;;;;;;;;;;;;;;;;;;;;;;;;;;;..++++++++@@..;;;;;;;;;;;;;;;;;;;;;;",
";;;;;;;;;;;;;;;;;;;;;;;;;;;;..        ++..;;;;;;;;;;;;;;;;;;;;;;",
";;;;;;;;;;;;;;;;;;;;;;;;;;;;..        ++..;;;;;;;;;;;;;;;;;;;;;;",
";;;;;;;;;;;;;;;;;;;;;;;;;;..  ++@@@@@@..++..;;;;;;;;;;;;;;;;;;;;",
";;;;;;;;;;;;;;;;;;;;;;;;;;..  ++@@@@@@..++..;;;;;;;;;;;;;;;;;;;;",
";;;;;;;;;;;;;;;;;;;;;;;;;;  ++@@@@@@@@@@%%..;;;;;;;;;;;;;;;;;;;;",
";;;;;;;;;;;;;;;;;;;;;;;;;;  ++@@@@@@@@@@%%..;;;;;;;;;;;;;;;;;;;;",
";;;;;;;;;;;;;;;;;;;;;;;;;;  @@........++@@**..;;;;;;;;;;;;;;;;;;",
";;;;;;;;;;;;;;;;;;;;;;;;;;  @@........++@@**..;;;;;;;;;;;;;;;;;;",
";;;;;;;;;;;;;;;;;;;;;;;;  ++..%%%%%%%%..++++..;;;;;;;;;;;;;;;;;;",
";;;;;;;;;;;;;;;;;;;;;;;;  ++..%%%%%%%%..++++..;;;;;;;;;;;;;;;;;;",
";;;;;;;;;;;;;;;;;;;;;;;;  ++%%%%%%%%**%%..++@@..;;;;;;;;;;;;;;;;",
";;;;;;;;;;;;;;;;;;;;;;;;  ++%%%%%%%%**%%..++@@..;;;;;;;;;;;;;;;;",
";;;;;;;;;;;;;;;;;;;;;;;;  %%%%%%%%****--oo@@..  ;;;;;;;;;;;;;;;;",
";;;;;;;;;;;;;;;;;;;;;;;;  %%%%%%%%****--oo@@..  ;;;;;;;;;;;;;;;;",
";;;;;;;;;;;;;;;;;;;;;;;;XX%%%%%%%%****--  ..XX;;;;;;;;;;;;;;;;;;",
";;;;;;;;;;;;;;;;;;;;;;;;XX%%%%%%%%****--  ..XX;;;;;;;;;;;;;;;;;;",
";;;;;;;;;;;;;;;;;;;;;;;;XX%%%%##%%%%******##XX;;;;;;;;;;;;;;;;;;",
";;;;;;;;;;;;;;;;;;;;;;;;XX%%%%##%%%%******##XX;;;;;;;;;;;;;;;;;;",
";;;;;;;;;;;;;;;;;;;;;;XX$$$$%%##%%%%%%##%%%%XX;;;;;;;;;;;;;;;;;;",
";;;;;;;;;;;;;;;;;;;;;;XX$$$$%%##%%%%%%##%%%%XX;;;;;;;;;;;;;;;;;;",
";;;;;;;;;;;;;;;;;;;;;;XX##$$XX%%%%%%%%XX**%%XX;;;;;;;;;;;;;;;;;;",
";;;;;;;;;;;;;;;;;;;;;;XX##$$XX%%%%%%%%XX**%%XX;;;;;;;;;;;;;;;;;;",
";;;;;;;;;;;;;;;;;;;;XX######XX**%%%%**  --**XX;;;;;;;;;;;;;;;;;;",
";;;;;;;;;;;;;;;;;;;;XX######XX**%%%%**  --**XX;;;;;;;;;;;;;;;;;;",
";;;;;;;;;;;;;;;;;;;;XX######  ******  ****&&XX;;;;;;;;;;;;;;;;;;",
";;;;;;;;;;;;;;;;;;;;XX######  ******  ****&&XX;;;;;;;;;;;;;;;;;;",
";;;;;;;;;;;;;;;;;;XX######XX&&    XX****==XX;;;;;;;;;;;;;;;;;;;;",
";;;;;;;;;;;;;;;;;;XX######XX&&    XX****==XX;;;;;;;;;;;;;;;;;;;;",
";;;;;;;;;;;;;;;;;;XXXXXXXX&&&&&&&&******&&XX;;;;;;;;;;;;;;;;;;;;",
";;;;;;;;;;;;;;;;;;XXXXXXXX&&&&&&&&******&&XX;;;;;;;;;;;;;;;;;;;;",
";;;;;;;;;;;;;;;;;;;;;;;;XXXX&&&&&&&&&&XXXXOO;;;;;;;;;;;;;;;;;;;;",
";;;;;;;;;;;;;;;;;;;;;;;OXXXX&&&&&&&&&&XXXXOOO;;;;;;;;;;;;;;;;;;;",
";;;;;;;;;;;;;;;;;;;;;;OOOOOO    ++++    OOOOOO;;;;;;;;;;;;;;;;;;",
";;;;;;;;;;;;;;;;;;;;;;OOOOOO    ++++    OOOOOO;;;;;;;;;;;;;;;;;;",
";;;;;;;;;;;;;;;;;;;;;;OOOOOOOOOO    OOOOOOOOOO;;;;;;;;;;;;;;;;;;",
";;;;;;;;;;;;;;;;;;;;;;OOOOOOOOOO    OOOOOOOOO;;;;;;;;;;;;;;;;;;;",
";;;;;;;;;;;;;;;;;;;;;;;;OOOOOOOOOOOOOOOOOOOO;;;;;;;;;;;;;;;;;;;;",
";;;;;;;;;;;;;;;;;;;;;;;;;;OOOOOOOOOOOOOOOO;;;;;;;;;;;;;;;;;;;;;;",
";;;;;;;;;;;;;;;;;;;;;;;;;;;;;;;OOOOOO;;;;;;;;;;;;;;;;;;;;;;;;;;;"
};
