/* XPM */
static char *result[] = {
/* columns rows colors chars-per-pixel */
"64 64 11 1 ",
"  c black",
". c #605020",
"X c #303860",
"o c #A9000000",
"O c #C89800",
"+ c #F8C018",
"@ c #2858A8",
"# c #3870B0",
"$ c #4070C8",
"% c #7098B8",
"& c None",
/* pixels */
"&&&&&&&&&&&&&&&&&&&&&&&&&&&&&&&&&&&&&&&&&&&&&&&&&&&&&&&&&&&&&&&&",
"&&&&&&&&&&&&&&&&&&&&&&&&&&&&&&&&&&&&&&&&&&&&&&&&&&&&&&&&&&&&&&&&",
"&&&&&&&&&&&&&&&&&&&&&&&&&&&&&&&&&&&&&&&&&&&&&&&&&&&&&&&&&&&&&&&&",
"&&&&&&&&&&&&&&&&&&&&&&&&&&&&&&&&&&&&&&&&&&&&&&&&&&&&&&&&&&&&&&&&",
"&&&&&&&&&&&&&&&&&&&&&&&&&&&&&&&&&&&&&&&&&&&&&&&&&&&&&&&&&&&&&&&&",
"&&&&&&&&&&&&&&&&&&&&&&&&&&&&&&&&&&&&&&&&&&&&&&&&&&&&&&&&&&&&&&&&",
"&&&&&&&&&&&&&&&&&&&&&&&&&&&&&&&&&&&&&&&&&&&&&&&&&&&&&&&&&&&&&&&&",
"&&&&&&&&&&&&&&&&&&&&&&&&&&&&&&&&&&&&&&&&&&&&&&&&&&&&&&&&&&&&&&&&",
"&&&&&&&&&&&&&&&&&&&&&&&&&&&&&&&&&&&&&&&&&&&&&&&&&&&&&&&&&&&&&&&&",
"&&&&&&&&&&&&&&&&&&&&&&&&&&&&&&&&&&&&&&&&&&&&&&&&&&&&&&&&&&&&&&&&",
"&&&&&&&&&&&&&&&&&&&&&&&&&&&&&&&&&&&&&&&&&&&&&&&&&&&&&&&&&&&&&&&&",
"&&&&&&&&&&&&&&&&&&&&&&&&&&&&&&&&&&&&&&&&&&&&&&&&&&&&&&&&&&&&&&&&",
"&&&&&&&&&&&&&&&&&&&&&&&&&&&&&&&&&&&&&&&&&&&&&&&&&&&&&&&&&&&&&&&&",
"&&&&&&&&&&&&&&&&&&&&&&&&&&&&&&&&&&&&&&&&&&&&&&&&&&&&&&&&&&&&&&&&",
"&&&&&&&&&&&&&&&&&&&&&&&&&&&&&&&&&&&&&&&&&&&&&&&&&&&&&&&&&&&&&&&&",
"&&&&&&&&&&&&&&&&&&&&&&&&&&&&&&&&&&&&&&&&&&&&&&&&&&&&&&&&&&&&&&&&",
"&&&&&&&&&&&&&&&&&&&&&&&&&&&&&&&&&&&&&&&&&&&&&&&&&&&&&&&&&&&&&&&&",
"&&&&&&&&&&&&&&&&&&&&&&&&&&&&&&&&&&&&&&&&&&&&&&&&&&&&&&&&&&&&&&&&",
"&&&&&&&&&&&&&&&&&&&&&&&&&&&&&&&&&&&&&&&&&&&&&&&&&&&&&&&&&&&&&&&&",
"&&&&&&&&&&&&&&&&&&&&&&&&&&&&&&&&&&&&&&&&&&&&&&&&&&&&&&&&&&&&&&&&",
"&&&&&&&&&&&&&&&&&&&&&&&&&&&&&&&&&&&&&&&&&&&&&&&&&&&&&&&&&&&&&&&&",
"&&&&&&&&&&&&&&&&&&&&......&&&&&&&&&&......&&&&&&&&&&&&&&&&&&&&&&",
"&&&&&&&&&&&&&&&&&&&&......&&&&&&&&&&......&&&&&&&&&&&&&&&&&&&&&&",
"&&&&&&&&&&&&&&&&&&&&..++OO..XXXXXX..OO++..&&&&&&&&&&&&&&&&&&&&&&",
"&&&&&&&&&&&&&&&&&&&&..++OO..XXXXXX..OO++..&&&&&&&&&&&&&&&&&&&&&&",
"&&&&&&&&&&&&&&&&&&  ++OO  XX$$$$$$XX  OO++  &&&&&&&&&&&&&&&&&&&&",
"&&&&&&&&&&&&&&&&&&  ++OO  XX$$$$$$XX  OO++  &&&&&&&&&&&&&&&&&&&&",
"&&&&&&&&&&&&&&&&&&  ++OO  $$$$$$$$$$  OO++  &&&&&&&&&&&&&&&&&&&&",
"&&&&&&&&&&&&&&&&&&  ++OO  $$$$$$$$$$  OO++  &&&&&&&&&&&&&&&&&&&&",
"&&&&&&&&&&&&&&&&&&&&  ++..$$$$$$$$$$..++  &&&&&&&&&&&&&&&&&&&&&&",
"&&&&&&&&&&&&&&&&&&&&  ++..$$$$$$$$$$..++  &&&&&&&&&&&&&&&&&&&&&&",
"&&&&&&&&&&&&&&&&&&&&  ++OO..$$$$$$..OO++  &&&&&&&&&&&&&&&&&&&&&&",
"&&&&&&&&&&&&&&&&&&&&  ++OO..$$$$$$..OO++  &&&&&&&&&&&&&&&&&&&&&&",
"&&&&&&&&&&&&&&&&&&&&XX..++..$$$$$$..++..XX&&&&&&&&&&&&&&&&&&&&&&",
"&&&&&&&&&&&&&&&&&&&&XX..++..$$$$$$..++..XX&&&&&&&&&&&&&&&&&&&&&&",
"&&&&&&&&&&&&&&&&&&&&  $$..++..$$..++..$$  &&&&&&&&&&&&&&&&&&&&&&",
"&&&&&&&&&&&&&&&&&&&&  $$..++..$$..++..$$  &&&&&&&&&&&&&&&&&&&&&&",
"&&&&&&&&&&&&&&&&&&&&  $$$$..OO..OO..$$$$  &&&&&&&&&&&&&&&&&&&&&&",
"&&&&&&&&&&&&&&&&&&&&  $$$$..OO..OO..$$$$  &&&&&&&&&&&&&&&&&&&&&&",
"&&&&&&&&&&&&&&&&&&XX$$$$$$$$..OO..$$$$$$$$XX&&&&&&&&&&&&&&&&&&&&",
"&&&&&&&&&&&&&&&&&&XX$$$$$$$$..OO..$$$$$$$$XX&&&&&&&&&&&&&&&&&&&&",
"&&&&&&&&&&&&&&&&XX$$$$$$$$$$$$..$$$$$$$$$$$$XX&&&&&&&&&&&&&&&&&&",
"&&&&&&&&&&&&&&&&XX$$$$$$$$$$$$..$$$$$$$$$$$$XX&&&&&&&&&&&&&&&&&&",
"&&&&&&&&&&&&&&&&XX$$$$@@$$$$$$$$$$$$$$@@$$$$XX&&&&&&&&&&&&&&&&&&",
"&&&&&&&&&&&&&&&&XX$$$$@@$$$$$$$$$$$$$$@@$$$$XX&&&&&&&&&&&&&&&&&&",
"&&&&&&&&&&&&&&XX$$$$$$XX@@$$$$$$$$$$@@XX$$$$$$XX&&&&&&&&&&&&&&&&",
"&&&&&&&&&&&&&&XX$$$$$$XX@@$$$$$$$$$$@@XX$$$$$$XX&&&&&&&&&&&&&&&&",
"&&&&&&&&&&&&&&XX$$$$  XX@@@@$$$$$$@@@@XX  $$$$XX&&&&&&&&&&&&&&&&",
"&&&&&&&&&&&&&&XX$$$$  XX@@@@$$$$$$@@@@XX  $$$$XX&&&&&&&&&&&&&&&&",
"&&&&&&&&&&&&XX%%$$  %%XX@@@@@@@@@@@@@@XX%%  $$%%XX&&&&&&&&&&&&&&",
"&&&&&&&&&&&&XX%%$$  %%XX@@@@@@@@@@@@@@XX%%  $$%%XX&&&&&&&&&&&&&&",
"&&&&&&&&&&&&XX%%  XX%%XX@@@@######@@@@XX%%XX  %%XX&&&&&&&&&&&&&&",
"&&&&&&&&&&&&XX%%  XX%%XX@@@@######@@@@XX%%XX  %%XX&&&&&&&&&&&&&&",
"&&&&&&&&&&&&    &&&&XX%%XX##########XX%%XX&&&&    &&&&&&&&&&&&&&",
"&&&&&&&&&&&&    &&&&XX%%XX##########XX%%XX&&&&    &&&&&&&&&&&&&&",
"&&&&&&&&&&&&&&&&&&&&&&XX%%XX########XXXX&&&&&&&&&&&&&&&&&&&&&&&&",
"&&&&&&&&&&&&&&&&&&&&&&XX%%XX########XXXXo&&&&&&&&&&&&&&&&&&&&&&&",
"&&&&&&&&&&&&&&&&&&&&oo  OOOOXX##XXXXooooooo&&&&&&&&&&&&&&&&&&&&&",
"&&&&&&&&&&&&&&&&&&&ooo  OOOOXX##XXXXoooooooo&&&&&&&&&&&&&&&&&&&&",
"&&&&&&&&&&&&&&&&&&&ooooo    ooXXXXoooooooooo&&&&&&&&&&&&&&&&&&&&",
"&&&&&&&&&&&&&&&&&&&ooooo    ooXXXXoooooooooo&&&&&&&&&&&&&&&&&&&&",
"&&&&&&&&&&&&&&&&&&&&ooooooooooooooooooooooo&&&&&&&&&&&&&&&&&&&&&",
"&&&&&&&&&&&&&&&&&&&&&ooooooooooooooooooooo&&&&&&&&&&&&&&&&&&&&&&",
"&&&&&&&&&&&&&&&&&&&&&&&&ooooooooooooooo&&&&&&&&&&&&&&&&&&&&&&&&&"
};
