/* XPM */
static char *result[] = {
/* columns rows colors chars-per-pixel */
"64 64 14 1 ",
"  c black",
". c #384050",
"X c #784040",
"o c #B83848",
"O c #D86878",
"+ c #A9000000",
"@ c #D8A078",
"# c #386088",
"$ c #6070B8",
"% c #F8D0B8",
"& c #A8A0C8",
"* c #C8C8D8",
"= c #E8E8F8",
"- c None",
/* pixels */
"----------------------------------------------------------------",
"----------------------------------------------------------------",
"----------------------------------------------------------------",
"----------------------------------------------------------------",
"----------------------------------------------------------------",
"----------------------------------------------------------------",
"----------------------------------------------------------------",
"----------------------------------------------------------------",
"----------------------------------------------------------------",
"----------------------------------------------------------------",
"----------------------------------------------------------------",
"----------------------------------------------------------------",
"----------------------------------------------------------------",
"----------------------------------------------------------------",
"----------------------------------------------------------------",
"----------------------------------------------------------------",
"----------------------------------------------------------------",
"----------------------------------------------------------------",
"----------------------oooooooooooooo----------------------------",
"----------------------oooooooooooooo----------------------------",
"--------------&&&&ooooOOOOOOOOOOOOOOoooo------------------------",
"--------------&&&&ooooOOOOOOOOOOOOOOoooo------------------------",
"--------------&&XXOOOOOOOOOOOOOOOOOOOOOOXX----------------------",
"--------------&&XXOOOOOOOOOOOOOOOOOOOOOOXX----------------------",
"--------------  OOOOOOOOOOOOOOOOOOOOOOOOOO  --------------------",
"--------------  OOOOOOOOOOOOOOOOOOOOOOOOOO  --------------------",
"--------------  OOOOOOOOOOOOOOOOOOOOOOOOOO  --------------------",
"--------------  OOOOOOOOOOOOOOOOOOOOOOOOOO  --------------------",
"------------  OOOOOOooooooooooooooooooOOOOOO  ------------------",
"------------  OOOOOOooooooooooooooooooOOOOOO  ------------------",
"------------  OO==ooOOOOOOOOOOOOOOOOOOoo==OO  ------------------",
"------------  OO==ooOOOOOOOOOOOOOOOOOOoo==OO  ------------------",
"------------  **==OOOOOOOOOOOOOOOOOOOOOO==**  ------------------",
"------------  **==OOOOOOOOOOOOOOOOOOOOOO==**  ------------------",
"--------------..**OOOOOOOOOOOOOOOOOOOOOO**..  ------------------",
"--------------..**OOOOOOOOOOOOOOOOOOOOOO**..  ------------------",
"------------XX  &&ooooOOOOOOOOOOOOOOoooo&&  XX------------------",
"------------XX  &&ooooOOOOOOOOOOOOOOoooo&&  XX------------------",
"------------  @@  ooooooOOOOOOOOOOoooooo  @@    ----------------",
"------------  @@  ooooooOOOOOOOOOOoooooo  @@    ----------------",
"------------  @@XX..XXooooooooooooooXX..XX@@      --------------",
"------------  @@XX..XXooooooooooooooXX..XX@@      --------------",
"--------------  XX@@..&&..XXXXXX..&&..@@XX    @@@@  ------------",
"--------------  XX@@..&&..XXXXXX..&&..@@XX    @@@@  ------------",
"----------------  @@@@==  @@@@@@  ==@@@@  --  @@@@  ------------",
"----------------  @@@@==  @@@@@@  ==@@@@  --  @@@@  ------------",
"----------------  XXXX%%%%%%%%%%%%%%XX  ------    --------------",
"----------------  XXXX%%%%%%%%%%%%%%XX  ------    --------------",
"----------------  ..$$..XX@@%%@@XX      ------------------------",
"----------------  ..$$..XX@@%%@@XX      ------------------------",
"----------------  ##    ..##&&&&&&..$$  ..----------------------",
"----------------  ##    ..##&&&&&&..$$  ..----------------------",
"------------------XX%%%%    ooXXoo..$$..  ----------------------",
"------------------XX%%%%    ooXXoo..$$..  ----------------------",
"------------------XX@@@@  ooooXXoooo....  ----------------------",
"------------------XX@@@@  ooooXXoooo....  ----------------------",
"-------------------+    ++      ##......  +---------------------",
"------------------++    ++      ##......  +---------------------",
"------------------++++++++++++++  ....  ++++--------------------",
"------------------++++++++++++++  ....  ++++--------------------",
"------------------++++++++++++++  $$$$  +++---------------------",
"--------------------++++++++++++  $$$$  ++----------------------",
"----------------------++++++++++++    ++------------------------",
"--------------------------++++++++    --------------------------"
};
