/* XPM */
static char *result[] = {
/* columns rows colors chars-per-pixel */
"67 64 16 1 ",
"  c black",
". c #384040",
"X c #784040",
"o c #486060",
"O c #C03838",
"+ c #F06848",
"@ c #A9000000",
"# c #C89838",
"$ c #D8A078",
"% c #F8D858",
"& c #6088D0",
"* c #F8D0B8",
"= c #A8A0C8",
"- c #C8C8D8",
"; c #E8E8F8",
": c None",
/* pixels */
":::::::::::::::::::::::::::::::::::::::::::::::::::::::::::::::::::",
":::::::::::::::::::::::::::::::::::::::::::::::::::::::::::::::::::",
":::::::::::::::::::::::::::::::::::::::::::::::::::::::::::::::::::",
":::::::::::::::::::::::::::::::::::::::::::::::::::::::::::::::::::",
":::::::::::::::::::::::::::::::::::::::::::::::::::::::::::::::::::",
":::::::::::::::::::::::::::::::::::::::::::::::::::::::::::::::::::",
":::::::::::::::::::::::::::::::::::::::::::::::::::::::::::::::::::",
":::::::::::::::::::::::::::::::::::::::::::::::::::::::::::::::::::",
":::::::::::::::::::::::::::::::::::::::::::::::::::::::::::::::::::",
":::::::::::::::::::::::::::::::::::::::::::::::::::::::::::::::::::",
":::::::::::::::::::::::::::::::::::::::::::::::::::::::::::::::::::",
":::::::::::::::::::::::::::::::::::::::::::::::::::::::::::::::::::",
":::::::::::::::::::::::::::::::::::::::::::::::::::::::::::::::::::",
":::::::::::::::::::::::::::::::::::::::::::::::::::::::::::::::::::",
":::::::::::::::::::::::::::::::::::::::::::::::::::::::::::::::::::",
":::::::::::::::::::::::::::::::::::::::::::::::::::::::::::::::::::",
":::::::::::::::::::::::::::::::::::::::::::::::::::::::::::::::::::",
"::::::::::::::::::::::::::::::::::::OOOOOOOOOO:::::::::::::::::::::",
"::::::::::::::::::::::::::::::::::::OOOOOOOOOO:::::::::::::::::::::",
"::::::::::::::::::::::::::::::::OOOO++++++++++    :::::::::::::::::",
"::::::::::::::::::::::::::::::::OOOO++++++++++    :::::::::::::::::",
"::::::::::::::::::::::::::::OOOO++++OO++++++++++++  :::::::::::::::",
"::::::::::::::::::::::::::OO++++++++OO++++++++++++  :::::::::::::::",
"::::::::::::::::::::::::::OO++++++++OO++++++++++++  :::::::::::::::",
"::::::::::::::::::::::::OO++++++++++OO++++++++++++OO  :::::::::::::",
"::::::::::::::::::::::::OO++++++++++OO++++++++++++OO  :::::::::::::",
":::::::::::::::::::::::O++++++++++++OO++++++++++++OO  :::::::::::::",
":::::::::::::::::::::::O++++++++++++OO++++++++++++OO  :::::::::::::",
":::::::::::::::::::::XX+++++++++++++OO++++++++++OOOO  :::::::::::::",
":::::::::::::::::::::XX+++++++++++++OO++++++++++OOOO  :::::::::::::",
":::::::::::::::::::::  +++++++++++;;;;;;++++OOOOOOOO  :::::::::::::",
":::::::::::::::::::::  +++++++++++;;;;;;++++OOOOOOOO  :::::::::::::",
":::::::::::::::::::::  O++++++++--oooooo--OOOOOOOOOO  :::::::::::::",
":::::::::::::::::::::  O++++++++--oooooo--OOOOOOOOOO  :::::::::::::",
"::::::::::::::::::::::: ======--oo------oo--OOOOOOXX  :::::::::::::",
"::::::::::::::::::::::: ======--oo------oo--OOOOOOXX  :::::::::::::",
"::::::::::::::::::::::::  XXXX==============XXXX..  :::::::::::::::",
"::::::::::::::::::::::::  XXXX==============XXXX..  :::::::::::::::",
"::::::::::::::::::::::::::XXXX  ==$$..$$..........  :::::::::::::::",
"::::::::::::::::::::::::::XXXX  ==$$..$$..........  :::::::::::::::",
"::::::::::::::::::::::::::XX$$  ;;$$..$$$$........  :::::::::::::::",
"::::::::::::::::::::::::::XX$$  ;;$$..$$$$........  :::::::::::::::",
"::::::::::::::::::::::::::$$********$$$$$$....    :::::::::::::::::",
"::::::::::::::::::::::::::$$********$$$$$$....    :::::::::::::::::",
"::::::::::::::::::::::::::::$$****$$$$$$XXXXXX##  :::::::::::::::::",
"::::::::::::::::::::::::::::$$****$$$$$$XXXXXX##  :::::::::::::::::",
"::::::::::::::::::::::::::::::XXXXXX    ......OOOOOOOOOO:::::::::::",
"::::::::::::::::::::::::::::::XXXXXX    ......OOOOOOOOOO:::::::::::",
"::::::::::::::::::::::::::::::::    OOOO++++++++++++++OO:::::::::::",
"::::::::::::::::::::::::::::::::    OOOO++++++++++++++OO:::::::::::",
"::::::::::::::::::::::::::::@@XX****  XX....##%%%%$$..@@:::::::::::",
"::::::::::::::::::::::::::::@@XX****  XX....##%%%%$$..@@:::::::::::",
"::::::::::::::::::::::::@@@@@@XX$$$$  ......######  @@@@@@@::::::::",
":::::::::::::::::::::::@@@@@@@      oooo......&&&&    @@@@@@@::::::",
":::::::::::::::::::::::@@@@@@@      oooo......&&&&    @@@@@@@::::::",
":::::::::::::::::::::::@@@@@@@  XX......&&&&&&&&&&&&OO  @@@@@::::::",
":::::::::::::::::::::::@@@@@@@  XX......&&&&&&&&&&&&OO  @@@@@::::::",
":::::::::::::::::::::::@@@@@@@@@    @@@@          OOOO  @@@@@::::::",
":::::::::::::::::::::::@@@@@@@@@    @@@@          OOOO  @@@@@::::::",
"::::::::::::::::::::::::::@@@@@@@@@@@@@@@@@@@@@@@@    @@@::::::::::",
"::::::::::::::::::::::::::@@@@@@@@@@@@@@@@@@@@@@@@    @@@::::::::::",
"::::::::::::::::::::::::::::::@@@@@@@@@@@@@@@@@@@@@@@@:::::::::::::",
"::::::::::::::::::::::::::::::@@@@@@@@@@@@@@@@@@@@@@@@:::::::::::::",
":::::::::::::::::::::::::::::::::::::::::::::::::::::::::::::::::::",
};
