/* XPM */
static char *result[] = {
/* columns rows colors chars-per-pixel */
"42 42 132 2 ",
"   c black",
".  c #010000",
"X  c #020000",
"o  c #030000",
"O  c #020202",
"+  c #040000",
"@  c #050000",
"#  c #060000",
"$  c #010402",
"%  c #010704",
"&  c #060606",
"*  c #070707",
"=  c #080000",
"-  c #090000",
";  c #0D0000",
":  c #090606",
">  c #010805",
",  c #101010",
"<  c #151212",
"1  c #3C0000",
"2  c #3F0000",
"3  c #202020",
"4  c #3F3F3F",
"5  c #450000",
"6  c #510000",
"7  c #520000",
"8  c #550000",
"9  c #550202",
"0  c #5C0000",
"q  c #6E0000",
"w  c #660C0C",
"e  c #660E0E",
"r  c #690A0A",
"t  c #6A0F0F",
"y  c #710000",
"u  c #6B1212",
"i  c #731111",
"p  c #563D3D",
"a  c #1F5340",
"s  c #3E7761",
"d  c gray27",
"f  c gray28",
"g  c #4E4E4E",
"h  c gray31",
"j  c #445F53",
"k  c #686868",
"l  c #727272",
"z  c gray45",
"x  c #7B7B7B",
"c  c #7C7C7C",
"v  c #800000",
"b  c #820000",
"n  c #850000",
"m  c #8D0000",
"M  c #800F0F",
"N  c #910000",
"B  c #950000",
"V  c #960000",
"C  c #980000",
"Z  c #9F0000",
"A  c #A80000",
"S  c #B00C0C",
"D  c #B10E0E",
"F  c #B20F0F",
"G  c #A51111",
"H  c #B41111",
"J  c #B41212",
"K  c #B81515",
"L  c #BE1B1A",
"P  c #BE1B1B",
"I  c #8F2B24",
"U  c #B92222",
"Y  c #B72B22",
"T  c #C62121",
"R  c #C72222",
"E  c #C82222",
"W  c #CA2424",
"Q  c #CC2525",
"!  c #CF2828",
"~  c #D02627",
"^  c #D02728",
"/  c #D02828",
"(  c #B14838",
")  c #D6463B",
"_  c #D74B3E",
"`  c #937070",
"'  c #C25340",
"]  c #D35444",
"[  c #D95445",
"{  c #DA5445",
"}  c #DC5A49",
"|  c #E5715B",
" . c #E5725B",
".. c #E37969",
"X. c #358266",
"o. c #368367",
"O. c #38876A",
"+. c #3E9474",
"@. c #409878",
"#. c #EE8469",
"$. c #EE8569",
"%. c #EA8F7E",
"&. c #F89777",
"*. c #F89878",
"=. c #808080",
"-. c #818181",
";. c gray51",
":. c #8B8B8B",
">. c gray56",
",. c #909090",
"<. c gray57",
"1. c gray67",
"2. c gray71",
"3. c gray72",
"4. c #F1A696",
"5. c #F8B4A2",
"6. c #F8B9A8",
"7. c #F3BBB1",
"8. c #C6C6C6",
"9. c gray79",
"0. c gray80",
"q. c #CDCDCD",
"w. c #D7D7D7",
"e. c #DDDDDD",
"r. c #F8CFC5",
"t. c #F8E3DE",
"y. c #E4E4E4",
"u. c #E6E6E6",
"i. c gray97",
"p. c #F8F8F8",
"a. c #F9F9F9",
"s. c None",
/* pixels */
"s.s.s.s.s.s.s.s.s.s.s.s.s.s.s.s.s.s.s.s.s.s.s.s.s.s.s.s.s.s.s.s.s.s.s.s.s.s.s.s.s.s.",
"s.s.s.s.s.s.s.s.s.s.s.s.s.s.s.s.s.s.s.s.s.s.s.s.s.s.s.s.s.s.s.s.s.s.s.s.s.s.s.s.s.s.",
"s.s.s.s.s.s.s.s.s.s.s.s.s.s.s.s.s.s.s.s.s.s.s.s.s.s.s.s.s.s.s.s.s.s.s.s.s.s.s.s.s.s.",
"s.s.s.s.s.s.s.s.s.s.s.s.s.s.s.s.s.s.s.s.s.s.s.s.s.s.s.s.s.s.s.s.s.s.s.s.s.s.s.s.s.s.",
"s.s.s.s.s.s.s.s.s.s.s.s.s.s.s.s.s.s.s.s.s.s.s.s.s.s.s.s.s.s.s.s.s.s.s.s.s.s.s.s.s.s.",
"s.s.s.s.s.s.s.s.s.s.s.s.s.s.s.s.s.s.s.s.s.s.s.s.s.s.s.s.s.s.s.s.s.s.s.s.s.s.s.s.s.s.",
"s.s.s.s.s.s.s.s.s.s.s.s.s.s.s.s.s.s.s.s.s.s.s.s.s.s.s.s.s.s.s.s.s.s.s.s.s.s.s.s.s.s.",
"s.s.s.s.s.s.s.s.s.s.s.s.s.s.s.s.s.s.s.s.s.s.s.s.s.s.s.s.s.s.s.s.s.s.s.s.s.s.s.s.s.s.",
"s.s.s.s.s.s.s.s.s.s.s.s.s.s.s.s.s.s.s.s.s.s.s.s.s.s.s.s.s.s.s.s.s.s.s.s.s.s.s.s.s.s.",
"s.s.s.s.s.s.s.s.s.s.s.s.s.s.s.s.s.s.s.s.s.s.s.s.s.s.s.s.s.s.s.s.s.s.s.s.s.s.s.s.s.s.",
"s.s.s.s.s.s.s.s.s.s.s.s.s.s.s.s.s.s.s.s.s.s.s.s.s.s.s.s.s.s.s.s.s.s.s.s.s.s.s.s.s.s.",
"s.s.s.s.s.s.s.s.s.s.s.s.s.s.s.s.s.s.s.s.s.s.s.s.s.s.s.s.s.s.s.s.s.s.s.s.s.s.s.s.s.s.",
"s.s.s.s.s.s.s.s.s.s.s.s.s.s.s.s.s.s.s.s.s.s.s.s.s.s.s.s.s.s.s.s.s.s.s.s.s.s.s.s.s.s.",
"s.s.s.s.s.s.s.s.s.s.s.s.s.s.s.s.s.s.s.s.s.s.s.s.s.s.s.s.s.s.s.s.s.s.s.s.s.s.s.s.s.s.",
"s.s.s.s.s.s.s.s.s.s.s.s.s.s.s.s.s.s.s.s.s.s.s.s.s.s.s.s.s.s.s.s.s.s.s.s.s.s.s.s.s.s.",
"s.s.s.s.s.s.s.s.s.s.s.s.s.s.s.s.s.                s.s.s.s.s.s.s.s.s.s.s.s.s.s.s.s.s.",
"s.s.s.s.s.s.s.s.s.s.s.s.s.s.s.s.s.6 8 8 8 8 8 8 6 s.s.s.s.s.s.s.s.s.s.s.s.s.s.s.s.s.",
"s.s.s.s.s.s.s.s.s.s.s.s.s.s.      N A A A A A A N       s.s.s.s.s.s.s.s.s.s.s.s.s.s.",
"s.s.s.s.s.s.s.s.s.s.s.s.s.s.0 r i ( ' Y H H D A C 0 7 5 s.s.s.s.s.s.s.s.s.s.s.s.s.s.",
"s.s.s.s.s.s.s.s.s.s.s.s.  0 A L / $.*.{ / / E A A A V v 5   s.s.s.s.s.s.s.s.s.s.s.s.",
"s.s.s.s.s.s.s.s.s.s.s.s.  r L ] | 7.r.%. .^ Q P K A Z V 7   s.s.s.s.s.s.s.s.s.s.s.s.",
"s.s.s.s.s.s.s.s.s.s.s.s.  i /  .*.t.p.5.*.~ / / T A A A 0   s.s.s.s.s.s.s.s.s.s.s.s.",
"s.s.s.s.s.s.s.s.s.s.  6 N G / ) } 4.6...} / / / T A A A b q 1   s.s.s.s.s.s.s.s.s.s.",
"s.s.s.s.s.s.s.s.s.s.  8 A J / / / #.&.[ ! ! ! / T A A A m v 2   s.s.s.s.s.s.s.s.s.s.",
"s.s.s.s.s.s.s.s.s.s.  w R W / / / _ [ I t t M F S A A A m v 2   s.s.s.s.s.s.s.s.s.s.",
"s.s.s.s.s.s.s.s.s.s.  t / / / / / / / u * O 9 A A A A A m v 2   s.s.s.s.s.s.s.s.s.s.",
"s.s.s.s.s.s.s.s.s.s.  . @ i / / / i < e.a.>.=.: 0 A V v 5 X     s.s.s.s.s.s.s.s.s.s.",
"s.s.s.s.s.s.s.s.s.s.  4 =.` U U U e , 0.u.>.=.& 6 B n y p f 3   s.s.s.s.s.s.s.s.s.s.",
"s.s.s.s.s.s.s.s.s.s.  =.i.w.- ; ; + & -.<.,.=.& X = # o c >.f   s.s.s.s.s.s.s.s.s.s.",
"s.s.s.s.s.s.s.s.s.s.  x w.8.:.:.:.:.:.=.c c z h g g g g l c d   s.s.s.s.s.s.s.s.s.s.",
"s.s.s.s.s.s.s.s.s.s.s.@.$ :.p.p.p.p.i.=.    f ,.,.,.,.,.g $ @.s.s.s.s.s.s.s.s.s.s.s.",
"s.s.s.s.s.s.s.s.s.s.@.X.% l q.y.p.p.p.9.3.k z ,.,.,.,.,.g % X.@.s.s.s.s.s.s.s.s.s.s.",
"s.s.s.s.s.s.s.s.s.s.@.O.$ g ,.q.p.p.p.p.a.>.,.,.,.,.,.,.g $ O.@.s.s.s.s.s.s.s.s.s.s.",
"s.s.s.s.s.s.s.s.s.s.@.+.o.s g l :.1.2.2.2.,.,.,.;.g g g s o.+.@.s.s.s.s.s.s.s.s.s.s.",
"s.s.s.s.s.s.s.s.s.s.@.@.@.o.$ > > c ,.,.,.,.,.,.c > > $ o.@.@.@.s.s.s.s.s.s.s.s.s.s.",
"s.s.s.s.s.s.s.s.s.s.@.@.@.+.O.O.O.j f f f f f f j O.O.O.+.@.@.@.s.s.s.s.s.s.s.s.s.s.",
"s.s.s.s.s.s.s.s.s.s.s.@.@.@.@.@.@.a             a @.@.@.@.@.@.s.s.s.s.s.s.s.s.s.s.s.",
"s.s.s.s.s.s.s.s.s.s.s.s.@.@.@.@.@.@.@.@.@.@.@.@.@.@.@.@.@.@.s.s.s.s.s.s.s.s.s.s.s.s.",
"s.s.s.s.s.s.s.s.s.s.s.s.s.s.@.@.@.@.@.@.@.@.@.@.@.@.@.@.s.s.s.s.s.s.s.s.s.s.s.s.s.s.",
"s.s.s.s.s.s.s.s.s.s.s.s.s.s.s.s.s.@.@.@.@.@.@.@.@.s.s.s.s.s.s.s.s.s.s.s.s.s.s.s.s.s.",
"s.s.s.s.s.s.s.s.s.s.s.s.s.s.s.s.s.s.s.s.s.s.s.s.s.s.s.s.s.s.s.s.s.s.s.s.s.s.s.s.s.s.",
"s.s.s.s.s.s.s.s.s.s.s.s.s.s.s.s.s.s.s.s.s.s.s.s.s.s.s.s.s.s.s.s.s.s.s.s.s.s.s.s.s.s."
};
