/* XPM */
static char *result[] = {
/* columns rows colors chars-per-pixel */
"42 42 7 1 ",
"  c #181818",
". c #302828",
"X c #484030",
"o c #807040",
"O c #409878",
"+ c #B8A860",
"@ c None",
/* pixels */
"@@@@@@@@@@@@@@@@@@@@@@@@@@@@@@@@@@@@@@@@@@",
"@@@@@@@@@@@@@@@@@@@@@@@@@@@@@@@@@@@@@@@@@@",
"@@@@@@@@@@@@@@@@@@@@@@@@@@@@@@@@@@@@@@@@@@",
"@@@@@@@@@@@@@@@@@@@@@@@@@@@@@@@@@@@@@@@@@@",
"@@@@@@@@@@@@@@@@@@@XXXXXXX@@@@@@@@@@@@@@@@",
"@@@@@@@@@@@@@@@@@@@XXXXXXX@@@@@@@@@@@@@@@@",
"@@@@@@@@@@@@@@@@@@@XXXXXXX@@@@@@@@@@@@@@@@",
"@@@@@@@@@@@@@@XXXXX++ooo++XX@@@@@@@@@@@@@@",
"@@@@@@@@@@@@@@XXXXX++ooo++XX@@@@@@@@@@@@@@",
"@@@@@@@@@@@@XX++++++++++ooooXXX@@@@@@@@@@@",
"@@@@@@@@@@@@XX++++++++++ooooXXX@@@@@@@@@@@",
"@@@@@@@@@XXXoooo+++++oooXXXXXXX@@@@@@@@@@@",
"@@@@@@@@@XXXoooo+++++oooXXXXXXX@@@@@@@@@@@",
"@@@@@@@@@XXXoooo+++++oooXXXXXXX@@@@@@@@@@@",
"@@@@@@@@@XXX++++oooXXXXXXX+++++XX@@@@@@@@@",
"@@@@@@@@@XXX++++oooXXXXXXX+++++XX@@@@@@@@@",
"@@@@@@@XX++++++++++XX+++oo+++++oo  @@@@@@@",
"@@@@@@@XX++++++++++XX+++oo+++++oo  @@@@@@@",
"@@@@@@@XXooo++++XXXoooooooooXXXXX  @@@@@@@",
"@@@@@@@XXooo++++XXXoooooooooXXXXX  @@@@@@@",
"@@@@@@@XXooo++++XXXoooooooooXXXXX  @@@@@@@",
"@@@@@  oo+++XXXXXXXXXoooXXXXXXXXXXX   @@@@",
"@@@@@  oo+++XXXXXXXXXoooXXXXXXXXXXX   @@@@",
"@@@@@  ooooooo..oooooXXX..XXXXXooXX   @@@@",
"@@@@@  ooooooo..oooooXXX..XXXXXooXX   @@@@",
"@@@@@  ooooooo..oooooXXX..XXXXXooXX   @@@@",
"@@@@@  XXoooXX..oooooooo..XXoooXXoo   @@@@",
"@@@@@  XXoooXX..oooooooo..XXoooXXoo   @@@@",
"@@@@@  ooXXX..oooooooXXXXX..XXXooXX   @@@@",
"@@@@@  ooXXX..oooooooXXXXX..XXXooXX   @@@@",
"@@@@@@@  XXX  XXXXXXXXXXXX  XXXXX  @@@@@@@",
"@@@@@@O  XXX  XXXXXXXXXXXX  XXXXX  O@@@@@@",
"@@@@@OO  XXX  XXXXXXXXXXXX  XXXXX  OO@@@@@",
"@@@@OOOOO     XXXXXXXXXXXX       OOOOO@@@@",
"@@@@OOOOO     XXXXXXXXXXXX       OOOOO@@@@",
"@@@@@OOOOOOOOO            OOOOOOOOOOO@@@@@",
"@@@@@@OOOOOOOO            OOOOOOOOOO@@@@@@",
"@@@@@@@OOOOOOOOOOOOOOOOOOOOOOOOOOOO@@@@@@@",
"@@@@@@@@@OOOOOOOOOOOOOOOOOOOOOOOO@@@@@@@@@",
"@@@@@@@@@@@@OOOOOOOOOOOOOOOOOO@@@@@@@@@@@@",
"@@@@@@@@@@@@@@@@@@OOOOOO@@@@@@@@@@@@@@@@@@",
"@@@@@@@@@@@@@@@@@@@@@@@@@@@@@@@@@@@@@@@@@@"
};
