/* XPM */
static char *result[] = {
/* columns rows colors chars-per-pixel */
"64 64 16 1 ",
"  c black",
". c #684838",
"X c gray25",
"o c #901818",
"O c #F03828",
"+ c #C04020",
"@ c #C83858",
"# c #E07050",
"$ c #A9000000",
"% c #D09800",
"& c #F8D000",
"* c #1858B0",
"= c gray66",
"- c #D8D8D8",
"; c #E8E8F8",
": c None",
/* pixels */
"::::::::::::::::::::::::::::::::::::::::::::::::::::::::::::::::",
"::::::::::::::::::::::::::::::::::::::::::::::::::::::::::::::::",
"::::::::::::::::::::::::::::::::::::::::::::::::::::::::::::::::",
"::::::::::::::::::::::::::::::::::::::::::::::::::::::::::::::::",
"::::::::::::::::::::::::::::::::::::::::::::::::::::::::::::::::",
"::::::::::::::::::::::::::::::::::::::::::::::::::::::::::::::::",
"::::::::::::::::::::::::::::::::::::::::::oooooo::::::::::::::::",
"::::::::::::::::::::::::::::::::::::::::::oooooo::::::::::::::::",
"::::::::::::::::::::::::::::::::::::::::oo&&OOoo::::::::::::::::",
"::::::::::::::::::::::::::::::::::::::::oo&&OOoo::::::::::::::::",
"::::::::::::::::::::::::::::::oooo::oooo&&oooo::::::::::::::::::",
"::::::::::::::::::::::::::::::oooo::oooo&&oooo::::::::::::::::::",
"::::::::::::::::::::oooo::oooo&&ooooOO&&&&OOoooooooo::::::::::::",
"::::::::::::::::::::oooo::oooo&&ooooOO&&&&OOoooooooo::::::::::::",
"::::::::::::::::::ooOOoooo&&&&ooOOOOOOOOOOOOOOOOOOoo::::::::::::",
"::::::::::::::::::ooOOoooo&&&&ooOOOOOOOOOOOOOOOOOOoo::::::::::::",
"::::::::::::::::ooOOOO&&&&&&OOOOOOooOOOOOOOOoooooo::::::::::::::",
"::::::::::::::::ooOOOO&&&&&&OOOOOOooOOOOOOOOoooooo::::::::::::::",
"::::::::::::::::XXooOO&&OOOOOOOOOO&&ooOOOOoo::::::::::::::::::::",
"::::::::::::::::XXooOO&&OOOOOOOOOO&&ooOOOOoo::::::::::::::::::::",
"::::::::::::::XX;;XXOOOOOOOOOOOO&&OOoooooo::::::::::::::::::::::",
"::::::::::::::XX;;XXOOOOOOOOOOOO&&OOoooooo::::::::::::::::::::::",
"::::::::::::::XX--XXXXOOOOOOOOOOOOOO&&OOoo::::::::::::::::::::::",
"::::::::::::::XX--XXXXOOOOOOOOOOOOOO&&OOoo::::::::::::::::::::::",
"::::::::::::XXXX--;;;;XXXXXXXXOOOOooOOoo::::::::::::::::::::::::",
"::::::::::::XXXX--;;;;XXXXXXXXOOOOooOOoo::::::::::::::::::::::::",
"::::::::::::XX@@;;;;--;;==;;XXOOooOOoo::::::::::::::::::::::::::",
"::::::::::::XX@@;;;;--;;==;;XXOOooOOoo::::::::::::::::::::::::::",
"::::::::::::XX@@..;;;;--;;        ooXX::::::::::::::::::::::::::",
"::::::::::::XX@@..;;;;--;;        ooXX::::::::::::::::::::::::::",
"::::::::::::XX@@@@@@..--XX######  --XX::::::::::::::::::::::::::",
"::::::::::::XX@@@@@@..--XX######  --XX::::::::::::::::::::::::::",
"::::::::::XX++XX@@@@@@..##****++  XX::::::::::::::::::::::::::::",
"::::::::::XX++XX@@@@@@..##****++  XX::::::::::::::::::::::::::::",
"::::::::::  ####**&&@@..****++  ==XX::::::::::::::::::::::::::::",
"::::::::::  ####**&&@@..****++  ==XX::::::::::::::::::::::::::::",
"::::::::::  ++%%  &&..==**++  ==XX::::::::::::::::::::::::::::::",
"::::::::::  ++%%  &&..==**++  ==XX::::::::::::::::::::::::::::::",
"::::::::::::  ..++++====XX  XXXX::::::::::::::::::::::::::::::::",
"::::::::::::  ..++++====XX  XXXX::::::::::::::::::::::::::::::::",
"::::::::::::::::    ..%%&&....::::::::::....::::::::::::::::::::",
"::::::::::::::::    ..%%&&....::::::::::....::::::::::::::::::::",
"::::::::::::::::XX--==&&&&%%  ::::::::..####..::::::::::::::::::",
"::::::::::::::::XX--==&&&&%%  ::::::::..####..::::::::::::::::::",
"::::::::::::::::::  &&XX%%##..  ::::::..##++..::::::::::::::::::",
"::::::::::::::::::  &&XX%%##..  ::::::..##++..::::::::::::::::::",
"::::::::::::::::::  &&  ..##++  ::::..##++..::::::::::::::::::::",
"::::::::::::::::::  &&  ..##++  ::::..##++..::::::::::::::::::::",
"::::::::::::::::::::  &&%%++..++  ..++++..::::::::::::::::::::::",
"::::::::::::::::::::  &&%%++..++  ..++++..::::::::::::::::::::::",
"::::::::::::::::::  **%%%%++  ++..++....::::::::::::::::::::::::",
"::::::::::::::::::  **%%%%++  ++..++....::::::::::::::::::::::::",
"::::::::::::::::::    ****  XX==....::::::::::::::::::::::::::::",
"::::::::::::::::::    ****  XX==....::::::::::::::::::::::::::::",
"::::::::::::::::::::XX    ====XXXX$$::::::::::::::::::::::::::::",
"::::::::::::::::::$$XX    ====XXXX$$$$::::::::::::::::::::::::::",
":::::::::::::::::$$$$$$$XX****XX$$$$$$$$::::::::::::::::::::::::",
"::::::::::::::::$$$$$$$$XX****XX$$$$$$$$::::::::::::::::::::::::",
"::::::::::::::::$$$$$$$$XX    $$$$$$$$$$$:::::::::::::::::::::::",
"::::::::::::::::$$$$$$$$XX    $$$$$$$$$$::::::::::::::::::::::::",
":::::::::::::::::$$$$$$$$$$$$$$$$$$$$$$$::::::::::::::::::::::::",
"::::::::::::::::::$$$$$$$$$$$$$$$$$$$$::::::::::::::::::::::::::",
":::::::::::::::::::::$$$$$$$$$$$$$$$::::::::::::::::::::::::::::",
"::::::::::::::::::::::::::$$$$::::::::::::::::::::::::::::::::::"
};
