/* XPM */
static char *result[] = {
/* columns rows colors chars-per-pixel */
"64 64 16 1 ",
"  c black",
". c #684838",
"X c gray25",
"o c #901818",
"O c #803820",
"+ c #F03828",
"@ c #C04020",
"# c #E07050",
"$ c #A9000000",
"% c #D09800",
"& c #F8D000",
"* c #1858B0",
"= c gray66",
"- c #D8D8D8",
"; c #E8E8F8",
": c None",
/* pixels */
"::::::::::::::::::::::::::::::::::::::::::::::::::::::::::::::::",
"::::::::::::::::::::::::::::::::::::::::::::::::::::::::::::::::",
"::::::::::::::::::::::::::::::::::::::::::::::::::::::::::::::::",
"::::::::::::::::::::::::::::::::::::::::::::::::::::::::::::::::",
"::::::::::::::::::::::::::::::oooo::::::::::::::::::::::::::::::",
"::::::::::::::::::::::::::::::oooo::::::::::::::::::::::::::::::",
"::::::::::::::::::::::::::::::oo++oo::::::::::::::::::::::::::::",
"::::::::::::::::::::::::::::::oo++oo::::::::::::::::::::::::::::",
"::::::::::::::::::::::::::::::::oo++oo::::::::::::::::::::::::::",
"::::::::::::::::::::::::::::::::oo++oo::::::::::::::::::::::::::",
"::::::::::::::::::::::::::::::oo++&&oo::::::::::::::::::::::::::",
"::::::::::::::::::::::::::::::oo++&&oo::::::::::::::::::::::::::",
"::::::::::::::::::::::oooo::oo++++&&oo::::::::::::::::::::::::::",
"::::::::::::::::::::::oooo::oo++++&&oo::::::::::::::::::::::::::",
"::::::::::::::::::::::oo++oooo++&&&&oo::oo::::::::::::::::::::::",
"::::::::::::::::::::::oo++oooo++&&&&oo::oo::::::::::::::::::::::",
"::::::::::::::::::::::oo++++oo++++&&&&oo++oo::::::::::::::::::::",
"::::::::::::::::::::::oo++++oo++++&&&&oo++oo::::::::::::::::::::",
"::::::::::::::::::::::oooo++++++&&&&&&++++oo::::::::::::::::::::",
"::::::::::::::::::::::oooo++++++&&&&&&++++oo::::::::::::::::::::",
"::::::::::::::::::::oo++&&++++++++&&++++oo::::::::::::::::::::::",
"::::::::::::::::::::oo++&&++++++++&&++++oo::::::::::::::::::::::",
"::::::::::::::::::::oo++&&++++++++++++++++oo::::::::::::::::::::",
"::::::::::::::::::::oo++&&++++++++++++++++oo::::::::::::::::::::",
"::::::::::::::::::::::XX++&&++++++++++++XXoo::::::::::::::::::::",
"::::::::::::::::::::::XX++&&++++++++++++XXoo::::::::::::::::::::",
"::::::::::::::::    ..XX++XX++++++++XX++XX..    ::::::::::::::::",
"::::::::::::::::    ..XX++XX++++++++XX++XX..    ::::::::::::::::",
"::::::::::::::::  ####  XX--XX++++XX--XX  ####  ::::::::::::::::",
"::::::::::::::::  ####  XX--XX++++XX--XX  ####  ::::::::::::::::",
"::::::::::::::::  @@@@##XX;;--XXXX--;;XX##@@@@  ::::::::::::::::",
"::::::::::::::::  @@@@##XX;;--XXXX--;;XX##@@@@  ::::::::::::::::",
"::::::::::::::::::  @@@@==;;;;----;;;;==@@@@  ::::::::::::::::::",
"::::::::::::::::::  @@@@==;;;;----;;;;==@@@@  ::::::::::::::::::",
"::::::::::::::::::  @@@@----;;----;;----@@@@  ::::::::::::::::::",
"::::::::::::::::::  @@@@----;;----;;----@@@@  ::::::::::::::::::",
"::::::::::::::::::::  ==----------------==  ::::::::::::::::::::",
"::::::::::::::::::::  ==----------------==  ::::::::::::::::::::",
"::::::::::::::::::....  ==------------==  ....::::::::::::::::::",
"::::::::::::::::::....  ==------------==  ....::::::::::::::::::",
"::::::::::::::::..%%&&##  ==----..--==  ##&&%%..::::::::::::::::",
"::::::::::::::::..%%&&##  ==----..--==  ##&&%%..::::::::::::::::",
"::::::::::::XXXX@@%%%%##====--..@@..====##%%%%..::::::::::::::::",
"::::::::::::XXXX@@%%%%##====--..@@..====##%%%%..::::::::::::::::",
"::::::::::  **&&%%@@OO  ======OO@@..====  OO@@@@..::::::::::::::",
"::::::::::  **&&%%@@OO  ======OO@@..====  OO@@@@..::::::::::::::",
"::::::::::  ..%%%%OO  ..  ==OO@@..====  ..  OO@@&&..::::::::::::",
"::::::::::  ..%%%%OO  ..  ==OO@@..====  ..  OO@@&&..::::::::::::",
"::::::::::::XX    ..::::  XXOO@@..==XX  ::::  **%%%%  ::::::::::",
"::::::::::::XX    ..::::  XXOO@@..==XX  ::::  **%%%%  ::::::::::",
"::::::::::::::::::::::  @@  ==OO@@..  @@  ::    **..  ::::::::::",
"::::::::::::::::::::::  @@  ==OO@@..  @@  ::    **..  ::::::::::",
"::::::::::::::::::::  %%==@@XXOO@@XX@@====  ::  XX  ::::::::::::",
"::::::::::::::::::::  %%==@@XXOO@@XX@@====  ::  XX  ::::::::::::",
"::::::::::::::::::::  ==**XXOO    XXOOXX**  ::::::::::::::::::::",
"::::::::::::::::::::  ==**XXOO    XXOOXX**  ::::::::::::::::::::",
":::::::::::::::::::$    **XX  $$$$$$      $$::::::::::::::::::::",
":::::::::::::::::::$    **XX  $$$$$$      $$::::::::::::::::::::",
":::::::::::::::::::$$$      $$$$$$$$$$$$$$$$::::::::::::::::::::",
"::::::::::::::::::::$$      $$$$$$$$$$$$$$$:::::::::::::::::::::",
":::::::::::::::::::::$$$$$$$$$$$$$$$$$$$$$::::::::::::::::::::::",
"::::::::::::::::::::::::$$$$$$$$$$$$$$$:::::::::::::::::::::::::",
":::::::::::::::::::::::::::::$$$$$::::::::::::::::::::::::::::::",
"::::::::::::::::::::::::::::::::::::::::::::::::::::::::::::::::"
};
