/* XPM */
static char *result[] = {
/* columns rows colors chars-per-pixel */
"64 64 16 1 ",
"  c black",
". c #684838",
"X c gray25",
"o c #901818",
"O c #F03828",
"+ c #C04020",
"@ c #C83858",
"# c #E07050",
"$ c #A9000000",
"% c #D09800",
"& c #F8D000",
"* c #1858B0",
"= c gray66",
"- c #D8D8D8",
"; c #E8E8F8",
": c None",
/* pixels */
"::::::::::::::::::::::::::::::::::::::::::::::::::::::::::::::::",
"::::::::::::::::::::::::::::::::::::::::::::::::::::::::::::::::",
"::::::::::::::::::::::::::::::::::::::::::::::::::::::::::::::::",
"::::::::::::::::::::::::::::::::::::::::::::::::::::::::::::::::",
"::::::::::::::::::::::::::::::::::::::::::oooo::::::::::::::::::",
"::::::::::::::::::::::::::::::::::::::::::oooo::::::::::::::::::",
"::::::::::::::::::::::::::::::::::::::::ooOOoo::::::::::::::::::",
"::::::::::::::::::::::::::::::::::::::::ooOOoo::::::::::::::::::",
"::::::::::::::::::::::::::::::::::::::oooo&&oo::::::::::::::::::",
"::::::::::::::::::::::::::::::::::::::oooo&&oo::::::::::::::::::",
"::::::::::::::::::::::::::::oooo::::ooOO&&oo::::::::::::::::::::",
"::::::::::::::::::::::::::::oooo::::ooOO&&oo::::::::::::::::::::",
"::::::::::::::::::::oooo::oo&&ooooooOO&&&&oooooooo::::::::::::::",
"::::::::::::::::::::oooo::oo&&ooooooOO&&&&oooooooo::::::::::::::",
"::::::::::::::::::ooOOoooo&&&&ooOOOOOOOOooOOOOOOoo::::::::::::::",
"::::::::::::::::::ooOOoooo&&&&ooOOOOOOOOooOOOOOOoo::::::::::::::",
"::::::::::::::::ooOOOO&&&&&&OOOOOOOOOOOOOOOOoooo::::::::::::::::",
"::::::::::::::::ooOOOO&&&&&&OOOOOOOOOOOOOOOOoooo::::::::::::::::",
"::::::::::::::::XXooOO&&OOOOOOooooOOOOOOOOoo::::::::::::::::::::",
"::::::::::::::::XXooOO&&OOOOOOooooOOOOOOOOoo::::::::::::::::::::",
"::::::::::::::XX;;XXOOOOOOOOOOOO&&ooOOOOoo::::::::::::::::::::::",
"::::::::::::::XX;;XXOOOOOOOOOOOO&&ooOOOOoo::::::::::::::::::::::",
"::::::::::::::XX--XXXXOOOOOOOO&&OOOOoooooo::::::::::::::::::::::",
"::::::::::::::XX--XXXXOOOOOOOO&&OOOOoooooo::::::::::::::::::::::",
"::::::::::::XXXX--;;;;XXXXXXXXOOOOOO&&OOoo::::::::::::::::::::::",
"::::::::::::XXXX--;;;;XXXXXXXXOOOOOO&&OOoo::::::::::::::::::::::",
"::::::::::::XX@@;;;;--;;==;;XXooOOOOoooo::::::::::::::::::::::::",
"::::::::::::XX@@;;;;--;;==;;XXooOOOOoooo::::::::::::::::::::::::",
"::::::::::::XX@@..;;;;--;;        ooXXoo::::::::::::::::::::::::",
"::::::::::::XX@@..;;;;--;;        ooXXoo::::::::::::::::::::::::",
"::::::::::::XX@@@@@@..--XX######  --XX::::::::::::::::::::::::::",
"::::::::::::XX@@@@@@..--XX######  --XX::::::::::::::::::::::::::",
"::::::::::XX++XX@@@@@@..##****++  XX::::::::::::::::::::::::::::",
"::::::::::XX++XX@@@@@@..##****++  XX::::::::::::::::::::::::::::",
"::::::::::  ####**&&@@..****++  ==XX::::::::::::::::::::::::::::",
"::::::::::  ####**&&@@..****++  ==XX::::::::::::::::::::::::::::",
"::::::::::  ++%%  &&..==**++  ==XX::::::::::::::::::::::::::::::",
"::::::::::  ++%%  &&..==**++  ==XX::::::::::::::::::::::::::::::",
"::::::::::::  ..++++====XX  XXXX::::::::::::::::::::::::::::::::",
"::::::::::::  ..++++====XX  XXXX::::::::::::::::::::::::::::::::",
"::::::::::::::::    ....%%&&..::::::::::....::::::::::::::::::::",
"::::::::::::::::    ....%%&&..::::::::::....::::::::::::::::::::",
"::::::::::::::::XX--====&&&&%%  ::::::..####..::::::::::::::::::",
"::::::::::::::::XX--====&&&&%%  ::::::..####..::::::::::::::::::",
"::::::::::::::::::  &&%%XX%%##..  ::::..##++..::::::::::::::::::",
"::::::::::::::::::  &&%%XX%%##..  ::::..##++..::::::::::::::::::",
"::::::::::::::::::  &&&&%%....++  ::..##++..::::::::::::::::::::",
"::::::::::::::::::  &&&&%%....++  ::..##++..::::::::::::::::::::",
"::::::::::::::::::::XX==++..++&&%%  ++++..::::::::::::::::::::::",
"::::::::::::::::::::XX==++..++&&%%  ++++..::::::::::::::::::::::",
"::::::::::::::::::XX%%++++  **%%%%  ....::::::::::::::::::::::::",
"::::::::::::::::::XX%%++++  **%%%%  ....::::::::::::::::::::::::",
"::::::::::::::::::XX%%%%XX    ****  ::::::::::::::::::::::::::::",
"::::::::::::::::::XX%%%%XX    ****  ::::::::::::::::::::::::::::",
"::::::::::::::::::::XX====XX      ::::::::::::::::::::::::::::::",
"::::::::::::::::::$$XX====XX      $$::::::::::::::::::::::::::::",
"::::::::::::::::$$  ****XXXX$$$$$$$$$$::::::::::::::::::::::::::",
":::::::::::::::$$$  ****XXXX$$$$$$$$$$$:::::::::::::::::::::::::",
":::::::::::::::$$$XX    XX$$$$$$$$$$$$$:::::::::::::::::::::::::",
":::::::::::::::$$$XX    XX$$$$$$$$$$$$$:::::::::::::::::::::::::",
":::::::::::::::$$$$$$$$$$$$$$$$$$$$$$$$:::::::::::::::::::::::::",
"::::::::::::::::$$$$$$$$$$$$$$$$$$$$$:::::::::::::::::::::::::::",
"::::::::::::::::::$$$$$$$$$$$$$$$$$:::::::::::::::::::::::::::::",
"::::::::::::::::::::::$$$$$$$$$$::::::::::::::::::::::::::::::::"
};
