/* XPM */
static char *result[] = {
/* columns rows colors chars-per-pixel */
"64 64 14 1 ",
"  c black",
". c #384050",
"X c #784040",
"o c #B83848",
"O c #D86878",
"+ c #A9000000",
"@ c #D8A078",
"# c #386088",
"$ c #5880E0",
"% c #F8D0B8",
"& c #A8A0C8",
"* c #C8C8D8",
"= c #E8E8F8",
"- c None",
/* pixels */
"----------------------------------------------------------------",
"----------------------------------------------------------------",
"----------------------------------------------------------------",
"----------------------------------------------------------------",
"----------------------------------------------------------------",
"----------------------------------------------------------------",
"----------------------------------------------------------------",
"----------------------------------------------------------------",
"----------------------------------------------------------------",
"----------------------------------------------------------------",
"----------------------------------------------------------------",
"----------------------------------------------------------------",
"-------------------------oooooooooo-----------------------------",
"-------------------------oooooooooo-----------------------------",
"---------------------    OOOOOOOOOOoooo-------------------------",
"---------------------    OOOOOOOOOOoooo-------------------------",
"-------------------  OOOOOOOOOOOOooOOOOoooo---------------------",
"-------------------  OOOOOOOOOOOOooOOOOoooo---------------------",
"-------------------  OOOOOOOOOOOOooOOOOOOOOoo-------------------",
"-------------------  OOOOOOOOOOOOooOOOOOOOOoo-------------------",
"-----------------  ooOOOOOOOOOOOOooOOOOOOOOOOoo-----------------",
"-----------------  ooOOOOOOOOOOOOooOOOOOOOOOOoo-----------------",
"-----------------  ooOOOOOOOOOOOOooOOOOOOOOOOOOoo---------------",
"-----------------  ooOOOOOOOOOOOOooOOOOOOOOOOOOoo---------------",
"-----------------  ooooOOOOOOOOOOooOOOOOOOOOOOOOOXX-------------",
"-----------------  ooooOOOOOOOOOOooOOOOOOOOOOOOOOXX-------------",
"-----------------  ooooooooOOOO======OOOOOOOOOOOO  -------------",
"-----------------  ooooooooOOOO======OOOOOOOOOOOO  -------------",
"-----------------  oooooooooo**######**OOOOOOOOoo  -------------",
"-----------------  oooooooooo**######**OOOOOOOOoo  -------------",
"-----------------  XXoooooo**##******##**&&&&&&  ---------------",
"-----------------  XXoooooo**##******##**&&&&&&  ---------------",
"-------------------  ..XXXX&&&&&&&&&&&&&&XXXX  -----------------",
"-------------------  ..XXXX&&&&&&&&&&&&&&XXXX  -----------------",
"-------------------  ..........@@..@@&&  XXXX-------------------",
"-------------------  ..........@@..@@&&  XXXX-------------------",
"-------------------  ........@@@@..@@==  @@XX-------------------",
"-------------------  ........@@@@..@@==  @@XX-------------------",
"---------------------    ....@@@@@@%%%%%%%%@@-------------------",
"---------------------    ....@@@@@@%%%%%%%%@@-------------------",
"-----------------------    XXXX@@@@@@%%%%@@---------------------",
"-----------------------    XXXX@@@@@@%%%%@@---------------------",
"---------------------  $$==****XXXXXX....-----------------------",
"---------------------  $$==****XXXXXX....-----------------------",
"---------------------  $$$$==**  &&&&&&**....-------------------",
"---------------------  $$$$==**  &&&&&&**....-------------------",
"---------------------  $$$$==**  ..$$##**====-------------------",
"---------------------  $$$$==**  ..$$##**====-------------------",
"---------------------  $$**==**  ..$$oo  ==..-------------------",
"---------------------  $$**==**  ..$$oo  ==..-------------------",
"-----------------------  ****  ....XX%%%%    -------------------",
"-----------------------  ****  ....XX%%%%    -------------------",
"-----------------------      ..oooo..@@%%  ##  -----------------",
"---------------------++      ..oooo..@@%%  ##  -----------------",
"--------------------+++  ##......        ##&&  -----------------",
"-------------------++++  ##......        ##&&  -----------------",
"------------------+++++++  **##  ++++++++    +------------------",
"------------------+++++++  **##  ++++++++    +------------------",
"-------------------++++++++    ++++++++++++++-------------------",
"--------------------+++++++    +++++++++++++--------------------",
"---------------------++++++++++++++++++++++---------------------",
"------------------------++++++++++++++++------------------------",
"----------------------------++++++++----------------------------",
"----------------------------------------------------------------"
};
