/* XPM */
static char *result[] = {
/* columns rows colors chars-per-pixel */
"64 64 15 1 ",
"  c black",
". c #384050",
"X c #784040",
"o c #B83848",
"O c #D86878",
"+ c #A9000000",
"@ c #D8A078",
"# c #386088",
"$ c #6070B8",
"% c #5880E0",
"& c #F8D0B8",
"* c #A8A0C8",
"= c #C8C8D8",
"- c #E8E8F8",
"; c None",
/* pixels */
";;;;;;;;;;;;;;;;;;;;;;;;;;;;;;;;;;;;;;;;;;;;;;;;;;;;;;;;;;;;;;;;",
";;;;;;;;;;;;;;;;;;;;;;;;;;;;;;;;;;;;;;;;;;;;;;;;;;;;;;;;;;;;;;;;",
";;;;;;;;;;;;;;;;;;;;;;;;;;;;;;;;;;;;;;;;;;;;;;;;;;;;;;;;;;;;;;;;",
";;;;;;;;;;;;;;;;;;;;;;;;;;;;;;;;;;;;;;;;;;;;;;;;;;;;;;;;;;;;;;;;",
";;;;;;;;;;;;;;;;;;;;;;;;;;;;;;;;;;;;;;;;;;;;;;;;;;;;;;;;;;;;;;;;",
";;;;;;;;;;;;;;;;;;;;;;;;;;;;;;;;;;;;;;;;;;;;;;;;;;;;;;;;;;;;;;;;",
";;;;;;;;;;;;;;;;;;;;;;;;;;;;;;;;;;;;;;;;;;;;;;;;;;;;;;;;;;;;;;;;",
";;;;;;;;;;;;;;;;;;;;;;;;;;;;;;;;;;;;;;;;;;;;;;;;;;;;;;;;;;;;;;;;",
";;;;;;;;;;;;;;;;;;;;;;;;;;;;;;;;;;;;;;;;;;;;;;;;;;;;;;;;;;;;;;;;",
";;;;;;;;;;;;;;;;;;;;;;;;;;;;;;;;;;;;;;;;;;;;;;;;;;;;;;;;;;;;;;;;",
";;;;;;;;;;;;;;;;;;;;;;;;;;;;;;;;;;;;;;;;;;;;;;;;;;;;;;;;;;;;;;;;",
";;;;;;;;;;;;;;;;;;;;;;;;;;;;;;;;;;;;;;;;;;;;;;;;;;;;;;;;;;;;;;;;",
";;;;;;;;;;;;;;;;;;;;;;;;;;;;;;;;;;;;;;;;;;;;;;;;;;;;;;;;;;;;;;;;",
";;;;;;;;;;;;;;;;;;;;;;;;;;;;;;;;;;;;;;;;;;;;;;;;;;;;;;;;;;;;;;;;",
";;;;;;;;;;;;;;;;;;;;;;;;;oooooooooooooo;;;;;;;;;;;;;;;;;;;;;;;;;",
";;;;;;;;;;;;;;;;;;;;;;;;;oooooooooooooo;;;;;;;;;;;;;;;;;;;;;;;;;",
";;;;;;;;;;;;;;;;;;;;;ooooOOOOOOOOOOOOOOoooo;;;;;;;;;;;;;;;;;;;;;",
";;;;;;;;;;;;;;;;;;;;;ooooOOOOOOOOOOOOOOoooo;;;;;;;;;;;;;;;;;;;;;",
";;;;;;;;;;;;;;;;;;;XXOOOOOOOOOOOOOOOOOOOOOOXX;;;;;;;;;;;;;;;;;;;",
";;;;;;;;;;;;;;;;;;;XXOOOOOOOOOOOOOOOOOOOOOOXX;;;;;;;;;;;;;;;;;;;",
";;;;;;;;;;;;;;;;;  OOOOOOooooooooooooooOOOOOO  ;;;;;;;;;;;;;;;;;",
";;;;;;;;;;;;;;;;;  OOOOOOooooooooooooooOOOOOO  ;;;;;;;;;;;;;;;;;",
";;;;;;;;;;;;;;;  ooooooooOOOOOOOOOOOOOOoooooooo  ;;;;;;;;;;;;;;;",
";;;;;;;;;;;;;;;  ooooooooOOOOOOOOOOOOOOoooooooo  ;;;;;;;;;;;;;;;",
";;;;;;;;;;;;;;;  ooooOOOOOOOOOOOOOOOOOOOOOOoooo  ;;;;;;;;;;;;;;;",
";;;;;;;;;;;;;;;  ooooOOOOOOOOOOOOOOOOOOOOOOoooo  ;;;;;;;;;;;;;;;",
";;;;;;;;;;;;;;;  ooooooOOOOOOOOOOOOOOOOOOoooooo  ;;;;;;;;;;;;;;;",
";;;;;;;;;;;;;;;  ooooooOOOOOOOOOOOOOOOOOOoooooo  ;;;;;;;;;;;;;;;",
";;;;;;;;;;;;;;;;;  oooooooooooooooooooooooooo  ;;;;;;;;;;;;;;;;;",
";;;;;;;;;;;;;;;;;  oooooooooooooooooooooooooo  ;;;;;;;;;;;;;;;;;",
";;;;;;;;;;;;;;;;;  oooooooooooooooooooooooooo  ;;;;;;;;;;;;;;;;;",
";;;;;;;;;;;;;;;;;  oooooooooooooooooooooooooo  ;;;;;;;;;;;;;;;;;",
";;;;;;;;;;;;;;;  @@XXooooooooooooooooooooooXX@@  ;;;;;;;;;;;;;;;",
";;;;;;;;;;;;;;;  @@XXooooooooooooooooooooooXX@@  ;;;;;;;;;;;;;;;",
";;;;;;;;;;;;;;;  @@XX..XXooooooooooooooXX..XX@@  ;;;;;;;;;;;;;;;",
";;;;;;;;;;;;;;;  @@XX..XXooooooooooooooXX..XX@@  ;;;;;;;;;;;;;;;",
";;;;;;;;;;;;;;;;;    ##..................##    ;;;;;;;;;;;;;;;;;",
";;;;;;;;;;;;;;;;;    ##..................##    ;;;;;;;;;;;;;;;;;",
";;;;;;;;;;;;;;;;;;;  @@####..........####@@  ;;;;;;;;;;;;;;;;;;;",
";;;;;;;;;;;;;;;;;;;  @@####..........####@@  ;;;;;;;;;;;;;;;;;;;",
";;;;;;;;;;;;;;;;;;;;;  @@@@##########@@@@XX;;;;;;;;;;;;;;;;;;;;;",
";;;;;;;;;;;;;;;;;;;;;  @@@@##########@@@@XX;;;;;;;;;;;;;;;;;;;;;",
";;;;;;;;;;;;;;;;;;;;;  ....**      **....  ;;;;;;;;;;;;;;;;;;;;;",
";;;;;;;;;;;;;;;;;;;;;  ....**      **....  ;;;;;;;;;;;;;;;;;;;;;",
";;;;;;;;;;;;;;;;;;;  %%==..............==%%  ;;;;;;;;;;;;;;;;;;;",
";;;;;;;;;;;;;;;;;;;  %%==..............==%%  ;;;;;;;;;;;;;;;;;;;",
";;;;;;;;;;;;;;;;;  $$%%**..----%%----..**%%$$  ;;;;;;;;;;;;;;;;;",
";;;;;;;;;;;;;;;;;  $$%%**..----%%----..**%%$$  ;;;;;;;;;;;;;;;;;",
";;;;;;;;;;;;;;;XX&&oo....==--%%%%%%--==....oo&&XX;;;;;;;;;;;;;;;",
";;;;;;;;;;;;;;;XX&&oo....==--%%%%%%--==....oo&&XX;;;;;;;;;;;;;;;",
";;;;;;;;;;;;;;;  &&&&XX..====%%==%%====..XX&&&&  ;;;;;;;;;;;;;;;",
";;;;;;;;;;;;;;;  &&&&XX..====%%==%%====..XX&&&&  ;;;;;;;;;;;;;;;",
";;;;;;;;;;;;;;;;;      oo====%%==%%====oo      ;;;;;;;;;;;;;;;;;",
";;;;;;;;;;;;;;;;;      oo====%%==%%====oo      ;;;;;;;;;;;;;;;;;",
";;;;;;;;;;;;;;;;;;;;;  ....==%%%%%%==....  ;;;;;;;;;;;;;;;;;;;;;",
";;;;;;;;;;;;;;;;;;;;;  ....==%%%%%%==....  ;;;;;;;;;;;;;;;;;;;;;",
";;;;;;;;;;;;;;;;;;;;+  ####          ####  +;;;;;;;;;;;;;;;;;;;;",
";;;;;;;;;;;;;;;;;;;++  ####          ####  ++;;;;;;;;;;;;;;;;;;;",
";;;;;;;;;;;;;;;;;;;++++    ++++++++++    ++++;;;;;;;;;;;;;;;;;;;",
";;;;;;;;;;;;;;;;;;;++++    ++++++++++    ++++;;;;;;;;;;;;;;;;;;;",
";;;;;;;;;;;;;;;;;;;;++++++++++++++++++++++++;;;;;;;;;;;;;;;;;;;;",
";;;;;;;;;;;;;;;;;;;;;++++++++++++++++++++++;;;;;;;;;;;;;;;;;;;;;",
";;;;;;;;;;;;;;;;;;;;;;;;++++++++++++++++;;;;;;;;;;;;;;;;;;;;;;;;",
";;;;;;;;;;;;;;;;;;;;;;;;;;;;++++++++;;;;;;;;;;;;;;;;;;;;;;;;;;;;"
};
