/* XPM */
static char *result[] = {
/* columns rows colors chars-per-pixel */
"64 64 14 1 ",
"  c black",
". c #384050",
"X c #784040",
"o c #B83848",
"O c #D86878",
"+ c #A9000000",
"@ c #D8A078",
"# c #386088",
"$ c #6070B8",
"% c #F8D0B8",
"& c #A8A0C8",
"* c #C8C8D8",
"= c #E8E8F8",
"- c None",
/* pixels */
"----------------------------------------------------------------",
"----------------------------------------------------------------",
"----------------------------------------------------------------",
"----------------------------------------------------------------",
"----------------------------------------------------------------",
"----------------------------------------------------------------",
"----------------------------------------------------------------",
"----------------------------------------------------------------",
"----------------------------------------------------------------",
"----------------------------------------------------------------",
"----------------------------------------------------------------",
"----------------------------------------------------------------",
"-------------------------------oooooooooo-----------------------",
"-------------------------------oooooooooo-----------------------",
"---------------------------ooooOOOOOOOOOO    -------------------",
"---------------------------ooooOOOOOOOOOO    -------------------",
"-----------------------ooooOOOOooOOOOOOOOOOOO  -----------------",
"-----------------------ooooOOOOooOOOOOOOOOOOO  -----------------",
"---------------------ooOOOOOOOOooOOOOOOOOOOOO  -----------------",
"---------------------ooOOOOOOOOooOOOOOOOOOOOO  -----------------",
"-------------------ooOOOOOOOOOOooOOOOOOOOOOOOoo  ---------------",
"-------------------ooOOOOOOOOOOooOOOOOOOOOOOOoo  ---------------",
"-----------------ooOOOOOOOOOOOOooOOOOOOOOOOOOoo  ---------------",
"-----------------ooOOOOOOOOOOOOooOOOOOOOOOOOOoo  ---------------",
"---------------XXOOOOOOOOOOOOOOooOOOOOOOOOOoooo  ---------------",
"---------------XXOOOOOOOOOOOOOOooOOOOOOOOOOoooo  ---------------",
"---------------  OOOOOOOOOOOO======OOOOoooooooo  ---------------",
"---------------  OOOOOOOOOOOO======OOOOoooooooo  ---------------",
"---------------  ooOOOOOOOO**######**oooooooooo  ---------------",
"---------------  ooOOOOOOOO**######**oooooooooo  ---------------",
"-----------------  &&&&&&**##******##**ooooooXX  ---------------",
"-----------------  &&&&&&**##******##**ooooooXX  ---------------",
"-------------------  XXXX&&&&&&&&&&&&&&XXXX..  -----------------",
"-------------------  XXXX&&&&&&&&&&&&&&XXXX..  -----------------",
"---------------------XXXX  &&@@..@@..........  -----------------",
"---------------------XXXX  &&@@..@@..........  -----------------",
"---------------------XX@@  ==@@..@@@@........  -----------------",
"---------------------XX@@  ==@@..@@@@........  -----------------",
"---------------------@@%%%%%%%%@@@@@@....    -------------------",
"---------------------@@%%%%%%%%@@@@@@....    -------------------",
"-----------------------@@%%%%@@@@@@XXXX    ---------------------",
"-----------------------@@%%%%@@@@@@XXXX    ---------------------",
"---------------------------XXXXXX  XX****==  -------------------",
"---------------------------XXXXXX  XX****==  -------------------",
"---------------------------&&....&&**..**==  -------------------",
"---------------------------&&....&&**..**==  -------------------",
"-------------------------&&==&&$$$$  ..**==  -------------------",
"-------------------------&&==&&$$$$  ..**==  -------------------",
"-------------------------&&==&&$$$$  ..****  -------------------",
"-------------------------&&==&&$$$$  ..****  -------------------",
"-------------------..XX--..==oo  oo@@      ---------------------",
"-------------------..XX--..==oo  oo@@      ---------------------",
"-------------------  $$........  %%@@  ##  ---------------------",
"-------------------  $$........  %%@@  ##  ---------------------",
"---------------------  $$##..        ####  ---------------------",
"--------------------+  $$##..        ####  +--------------------",
"-------------------++++    ++++++++++    ++++-------------------",
"-------------------++++    ++++++++++    ++++-------------------",
"-------------------++++++++++++++++++++++++++-------------------",
"--------------------++++++++++++++++++++++++--------------------",
"---------------------++++++++++++++++++++++---------------------",
"------------------------++++++++++++++++------------------------",
"----------------------------++++++++----------------------------",
"----------------------------------------------------------------"
};
