/* XPM */
static char *result[] = {
/* columns rows colors chars-per-pixel */
"64 64 14 1 ",
"  c black",
". c #383848",
"X c #384068",
"o c #786840",
"+ c gray47",
"+ c #A9000000",
"@ c #F8B818",
"# c #2858A8",
"$ c #4068E0",
"% c #5090B8",
"& c #78B0F0",
"* c #B0B8D8",
"= c #E8E8F8",
"- c None",
/* pixels */
"----------------------------------------------------------------",
"----------------------------------------------------------------",
"----------------------------------------------------------------",
"----------------------------------------------------------------",
"----------------------------------------------------------------",
"----------------------------------------------------------------",
"----------------------------------------------------------------",
"----------------------------------------------------------------",
"----------------------------------------------------------------",
"----------------------------------------------------------------",
"----------------------------------------------------------------",
"----------------------------------------------------------------",
"----------------------------------------------------------------",
"----------------------------------------------------------------",
"----------------------------------------------------------------",
"----------------------------------------------------------------",
"----------------------------------------------------------------",
"----------------------------------------------------------------",
"----------------------------------------------------------------",
"----------------------------------------------------------------",
"----------------------------------------------------------------",
"----------------------------------------------------------------",
"----------------------------------------------------------------",
"----------------------------------------------------------------",
"----------------------------------------------------------------",
"----------------------------------------------------------------",
"----------------------------------------------------------------",
"----------------------------------------------------------------",
"--------------------------..........----------------------------",
"--------------------------..........----------------------------",
"----------------------....$$$$$$$$$$....------------------------",
"----------------------....$$$$$$$$$$....------------------------",
"--------------------  ##$$$$$$$$$$$$$$##  ----------------------",
"--------------------  ##$$$$$$$$$$$$$$##  ----------------------",
"--------------------  $$$$$$$$$$$$$$$$$$  ----------------------",
"--------------------  $$$$$$$$$$$$$$$$$$  ----------------------",
"------------------  ##$$$$$$$$$$$$$$$$$$##  --------------------",
"------------------  ##$$$$$$$$$$$$$$$$$$##  --------------------",
"------------------  ##====$$$$&&$$$$====##  --------------------",
"------------------  ##====$$$$&&$$$$====##  --------------------",
"------------------  ========&&&&&&========  --------------------",
"------------------  ========&&&&&&========  --------------------",
"------------------  **==++====&&====++==**  --------------------",
"------------------  **==++====&&====++==**  --------------------",
"--------------------  **  ====oo====  **  ----------------------",
"--------------------  **  ====oo====  **  ----------------------",
"----------------------  ****oo@@oo****  ------------------------",
"----------------------  ****oo@@oo****  ------------------------",
"--------------------....##XXXXooXXXX##....----------------------",
"--------------------....##XXXXooXXXX##....----------------------",
"------------------..&&&&XX$$$$XX$$$$XX&&&&..--------------------",
"------------------..&&&&XX$$$$XX$$$$XX&&&&..--------------------",
"--------------------....&&XXXX%%XXXX&&....----------------------",
"--------------------....&&XXXX%%XXXX&&....----------------------",
"----------------------....%%**%%**%%%%..------------------------",
"----------------------....%%**%%**%%%%..------------------------",
"---------------------+++++......oooo  +++-----------------------",
"-------------------+++++++......oooo  +++++---------------------",
"------------------++++++++++++++    ++++++++--------------------",
"------------------++++++++++++++    ++++++++--------------------",
"-------------------++++++++++++++++++++++++---------------------",
"--------------------++++++++++++++++++++++----------------------",
"----------------------++++++++++++++++++------------------------",
"-------------------------++++++++++++---------------------------"
};
