/* XPM */
static char *result[] = {
/* columns rows colors chars-per-pixel */
"64 64 11 1 ",
"  c black",
". c #383848",
"X c #384068",
"o c #786840",
"O c #A9000000",
"+ c #2858A8",
"@ c #4068E0",
"# c #5090B8",
"$ c #78B0F0",
"% c #B0B8D8",
"- c None",
/* pixels */
"----------------------------------------------------------------",
"----------------------------------------------------------------",
"----------------------------------------------------------------",
"----------------------------------------------------------------",
"----------------------------------------------------------------",
"----------------------------------------------------------------",
"----------------------------------------------------------------",
"----------------------------------------------------------------",
"----------------------------------------------------------------",
"----------------------------------------------------------------",
"----------------------------------------------------------------",
"----------------------------------------------------------------",
"----------------------------------------------------------------",
"----------------------------------------------------------------",
"----------------------------------------------------------------",
"----------------------------------------------------------------",
"----------------------------------------------------------------",
"----------------------------------------------------------------",
"----------------------------------------------------------------",
"----------------------------------------------------------------",
"----------------------------------------------------------------",
"----------------------------------------------------------------",
"----------------------------------------------------------------",
"----------------------------------------------------------------",
"----------------------------------------------------------------",
"----------------------------------------------------------------",
"----------------------------------------------------------------",
"----------------------------------------------------------------",
"--------------------------..........----------------------------",
"--------------------------..........----------------------------",
"----------------------....@@@@@@@@@@....------------------------",
"----------------------....@@@@@@@@@@....------------------------",
"--------------------  ++@@@@@@@@@@@@@@++  ----------------------",
"--------------------  ++@@@@@@@@@@@@@@++  ----------------------",
"--------------------  @@@@@@@@@@@@@@@@@@  ----------------------",
"--------------------  @@@@@@@@@@@@@@@@@@  ----------------------",
"------------------  ++@@@@@@@@@@@@@@@@@@++  --------------------",
"------------------  ++@@@@@@@@@@@@@@@@@@++  --------------------",
"------------------  ++@@@@@@@@@@@@@@@@@@++  --------------------",
"------------------  ++@@@@@@@@@@@@@@@@@@++  --------------------",
"------------------  %%++@@@@@@@@@@@@@@++%%  --------------------",
"------------------  %%++@@@@@@@@@@@@@@++%%  --------------------",
"------------------  %%++++++@@@@@@++++++%%  --------------------",
"------------------  %%++++++@@@@@@++++++%%  --------------------",
"--------------------  %%++++++++++++++%%  ----------------------",
"--------------------  %%++++++++++++++%%  ----------------------",
"----------------------  %%XX++++++XX%%  ------------------------",
"----------------------  %%XX++++++XX%%  ------------------------",
"--------------------....XX++@@@@@@++XX....----------------------",
"--------------------....XX++@@@@@@++XX....----------------------",
"------------------..$$$$XX@@XX@@XX@@XX$$$$..--------------------",
"------------------..$$$$XX@@XX@@XX@@XX$$$$..--------------------",
"--------------------....$$XX++XX++XX$$....----------------------",
"--------------------....$$XX++XX++XX$$....----------------------",
"----------------------..############....------------------------",
"----------------------..############....------------------------",
"---------------------OOO  oooo......OOOOO-----------------------",
"-------------------OOOOO  oooo......OOOOOOO---------------------",
"------------------OOOOOOOO    OOOOOOOOOOOOOO--------------------",
"------------------OOOOOOOO    OOOOOOOOOOOOOO--------------------",
"-------------------OOOOOOOOOOOOOOOOOOOOOOOO---------------------",
"--------------------OOOOOOOOOOOOOOOOOOOOOO----------------------",
"----------------------OOOOOOOOOOOOOOOOOO------------------------",
"-------------------------OOOOOOOOOOOO---------------------------"
};
