/* XPM */
static char *result[] = {
/* columns rows colors chars-per-pixel */
"64 64 14 1 ",
"  c black",
". c gray19",
"X c #385038",
"o c #504838",
"O c #484848",
"+ c #487840",
"@ c #987038",
"# c #509868",
"$ c #A9000000",
"% c #D0B028",
"& c #F8E870",
"* c #88C8B0",
"= c #E8E8F8",
"- c None",
/* pixels */
"----------------------------------------------------------------",
"----------------------------------------------------------------",
"----------------------------------------------------------------",
"----------------------------------------------------------------",
"----------------------------------------------------------------",
"----------------------------------------------------------------",
"----------------------------------------------------------------",
"----------------------------------------------------------------",
"----------------------------------------------------------------",
"----------------------------------------------------------------",
"----------------------------------------------------------------",
"----------------------------------------------------------------",
"----------------------------------------------------------------",
"----------------------------------------------------------------",
"----------------------------------------------------------------",
"----------------------------------------------------------------",
"----------------------------------------------------------------",
"----------------------------------------------------------------",
"----------------------------------------------------------------",
"----------------------------------------------------------------",
"----------------------------------------------------------------",
"----------------------------------------------------------------",
"----------------------------------------------------------------",
"----------------------------------------------------------------",
"----------------------------XXXXXXXX----------------------------",
"----------------------------XXXXXXXX----------------------------",
"--------------------------XXXX++++XX----------------------------",
"--------------------------XXXX++++XX----------------------------",
"--------------------------XX++oo      --------------------------",
"--------------------------XX++oo      --------------------------",
"----------------------------oooo++++  --------------------------",
"----------------------------oooo++++  --------------------------",
"------------------------oooooo++++  ----------------------------",
"------------------------oooooo++++  ----------------------------",
"--------------------oooo@@oo@@    ------------------------------",
"--------------------oooo@@oo@@    ------------------------------",
"------------------XX**@@@@@@@@@@ooXX----------------------------",
"------------------XX**@@@@@@@@@@ooXX----------------------------",
"----------------XX******@@@@@@@@@@XX----------------------------",
"----------------XX******@@@@@@@@@@XX----------------------------",
"--------------XX##********@@**@@**##XX--------------------------",
"--------------XX##********@@**@@**##XX--------------------------",
"--------------XX********************..--------------------------",
"--------------XX********************..--------------------------",
"--------------XX##****%%**********##....------------------------",
"--------------XX##****%%**********##....------------------------",
"--------------XX******==%%**&&######OO@@..----------------------",
"--------------XX******==%%**&&######OO@@..----------------------",
"--------------XX******  %%&&&&&&##..OO@@@@..--------------------",
"--------------XX******  %%&&&&&&##..OO@@@@..--------------------",
"----------------XX**##@@%%%%&&%%  @@OO@@@@..XX------------------",
"----------------XX**##@@%%%%&&%%  @@OO@@@@..XX------------------",
"------------------  XX%%%%%%    OO@@OO@@OO..XX------------------",
"------------------  XX%%%%%%    OO@@OO@@OO..XX------------------",
"--------------------$$      XX....OOOOOO..XX--------------------",
"------------------$$$$      XX....OOOOOO..XX--------------------",
"-----------------$$$$$$$$$$$XX%%%%..%%%%  ----------------------",
"----------------$$$$$$$$$$$$XX%%%%..%%%%  ----------------------",
"---------------$$$$$$$$$$$$$$$    $$    $$----------------------",
"----------------$$$$$$$$$$$$$$    $$    $$----------------------",
"----------------$$$$$$$$$$$$$$$$$$$$$$$$$-----------------------",
"-----------------$$$$$$$$$$$$$$$$$$$$$$$------------------------",
"-------------------$$$$$$$$$$$$$$$$$$$--------------------------",
"-----------------------$$$$$$$$$$$$-----------------------------"
};
