/* XPM */
static char *result[] = {
/* columns rows colors chars-per-pixel */
"64 64 14 1 ",
"  c black",
". c gray19",
"X c #385038",
"o c #504838",
"O c #484848",
"+ c #685848",
"@ c #487840",
"# c #987038",
"$ c #509868",
"% c #A9000000",
"& c #D0B028",
"* c #F8E870",
"= c #88C8B0",
"- c None",
/* pixels */
"----------------------------------------------------------------",
"----------------------------------------------------------------",
"----------------------------------------------------------------",
"----------------------------------------------------------------",
"----------------------------------------------------------------",
"----------------------------------------------------------------",
"----------------------------------------------------------------",
"----------------------------------------------------------------",
"----------------------------------------------------------------",
"----------------------------------------------------------------",
"----------------------------------------------------------------",
"----------------------------------------------------------------",
"----------------------------------------------------------------",
"----------------------------------------------------------------",
"----------------------------------------------------------------",
"----------------------------------------------------------------",
"----------------------------------------------------------------",
"----------------------------------------------------------------",
"----------------------------------------------------------------",
"----------------------------------------------------------------",
"----------------------------------------------------------------",
"----------------------------------------------------------------",
"----------------------------------------------------------------",
"----------------------------------------------------------------",
"----------------------------------------------------------------",
"----------------------------------------------------------------",
"------------------------XXXXXX--XXXXXX--------------------------",
"------------------------XXXXXX--XXXXXX--------------------------",
"------------------------  @@@@oo@@@@  --------------------------",
"------------------------  @@@@oo@@@@  --------------------------",
"------------------------  @@@@##@@@@  --------------------------",
"------------------------  @@@@##@@@@  --------------------------",
"--------------------------XX  ##  XX----------------------------",
"--------------------------XX  ##  XX----------------------------",
"------------------------oo##  oo  ##oo--------------------------",
"------------------------oo##  oo  ##oo--------------------------",
"----------------------XX######oo######XX------------------------",
"----------------------XX######oo######XX------------------------",
"--------------------XX====####==####====XX----------------------",
"--------------------XX====####==####====XX----------------------",
"--------------------  ==================  ----------------------",
"--------------------  ==================  ----------------------",
"------------------  ======================  --------------------",
"------------------  ======================  --------------------",
"------------------  **======......======**  --------------------",
"------------------  **======......======**  --------------------",
"------------------  oo&&..OO######OO..&&oo  --------------------",
"------------------  oo&&..OO######OO..&&oo  --------------------",
"--------------------oo..OO##OOOOOO##OO..oo----------------------",
"--------------------oo..OO##OOOOOO##OO..oo----------------------",
"--------------------  XXOOOO######OOOOXX  ----------------------",
"--------------------  XXOOOO######OOOOXX  ----------------------",
"--------------------  $$..++######++..$$  ----------------------",
"--------------------  $$..++######++..$$  ----------------------",
"----------------------XX$$..OOOOOO..$$XX------------------------",
"---------------------%XX$$..OOOOOO..$$XX%%----------------------",
"-------------------%%%  &&&&......XXXX%%%%%---------------------",
"------------------%%%%  &&&&......XXXX%%%%%%--------------------",
"------------------%%%%%%    %%%%%%%%%%%%%%%%%-------------------",
"------------------%%%%%%    %%%%%%%%%%%%%%%%--------------------",
"-------------------%%%%%%%%%%%%%%%%%%%%%%%%%--------------------",
"--------------------%%%%%%%%%%%%%%%%%%%%%%%---------------------",
"----------------------%%%%%%%%%%%%%%%%%%%-----------------------",
"-------------------------%%%%%%%%%%%%---------------------------"
};
