/* XPM */
static char *result[] = {
/* columns rows colors chars-per-pixel */
"64 64 13 1 ",
"  c black",
". c #385038",
"X c #504838",
"o c #685848",
"O c #487840",
"+ c #987038",
"@ c #509868",
"# c #A9000000",
"$ c #D0B028",
"% c #F8E870",
"& c #88C8B0",
"* c #E8E8F8",
"= c None",
/* pixels */
"================================================================",
"================================================================",
"================================================================",
"================================================================",
"================================================================",
"================================================================",
"================================================================",
"================================================================",
"================================================================",
"================================================================",
"================================================================",
"================================================================",
"================================================================",
"================================================================",
"================================================================",
"================================================================",
"================================================================",
"================================================================",
"================================================================",
"================================================================",
"================================================================",
"================================================================",
"================================================================",
"================================================================",
"================================================================",
"================================================================",
"========================......==......==========================",
"========================......==......==========================",
"========================  OOOOXXOOOO  ==========================",
"========================  OOOOXXOOOO  ==========================",
"========================  OOOO++OOOO  ==========================",
"========================  OOOO++OOOO  ==========================",
"==========================..  ++  ..============================",
"==========================..  ++  ..============================",
"========================oo++  XX  ++oo==========================",
"========================oo++  XX  ++oo==========================",
"======================..++++++XX++++++..========================",
"======================..++++++XX++++++..========================",
"====================..&&++&&++++++&&++&&..======================",
"====================..&&++&&++++++&&++&&..======================",
"====================  &&&&&&&&++&&&&&&&&  ======================",
"====================  &&&&&&&&++&&&&&&&&  ======================",
"==================  &&&&$$&&&&&&&&&&$$&&&&  ====================",
"==================  &&&&$$&&&&&&&&&&$$&&&&  ====================",
"==================  %%$$**&&&&&&&&&&**$$%%  ====================",
"==================  %%$$**&&&&&&&&&&**$$%%  ====================",
"==================  %%$$  &&@@&&@@&&  $$%%  ====================",
"==================  %%$$  &&@@&&@@&&  $$%%  ====================",
"====================  $$++&&&&&&&&&&++$$  ======================",
"====================  $$++&&&&&&&&&&++$$  ======================",
"====================..  $$@@&&&&&&@@$$  ..======================",
"====================..  $$@@&&&&&&@@$$  ..======================",
"====================..@@XXXX@@&&@@XXXX@@..======================",
"====================..@@XXXX@@&&@@XXXX@@..======================",
"=====================#..@@@@......@@@@..#=======================",
"===================###..@@@@......@@@@..##======================",
"==================####  $$$$XX    ..#######=====================",
"=================#####  $$$$XX    ..########====================",
"=================#######    ################====================",
"==================######    ###############=====================",
"===================#######################======================",
"=====================####################=======================",
"========================##############==========================",
"================================================================"
};
