/* XPM */
static char *result[] = {
/* columns rows colors chars-per-pixel */
"64 64 20 1 ",
"  c black",
". c gray19",
"X c #780001",
"o c #286028",
"O c #504030",
"+ c #786030",
"@ c #484848",
"# c #585858",
"$ c #A9000000",
"% c #A07840",
"& c #409858",
"* c #58B840",
"= c #40B050",
"- c #68D040",
"; c #C89018",
": c #989898",
"> c #A8B0C8",
", c #D0D0D8",
"< c #E8E8F8",
"1 c None",
/* pixels */
"1111111111111111111111111111111111111111111111111111111111111111",
"1111111111111111111111111111111111111111111111111111111111111111",
"1111111111111111111111111111111111111111111111111111111111111111",
"1111111111111111111111111111111111111111111111111111111111111111",
"1111111111111111111111111111111111111111111111111111111111111111",
"1111111111111111111111111111111111111111111111111111111111111111",
"1111111111111111111111111111111111111111111111111111111111111111",
"1111111111111111111111111111111111111111111111111111111111111111",
"1111111111111111111111111111111111111111111111111111111111111111",
"1111111111111111111111111111111111111111111111111111111111111111",
"1111111111111111111111111111111111111111111111111111111111111111",
"1111111111111111111111111111111111111111111111111111111111111111",
"1111111111111111111111111111111111111111111111111111111111111111",
"1111111111111111111111111111111111111111111111111111111111111111",
"1111111111111111111111      11oooo111111111111111111111111111111",
"1111111111111111111111      11oooo111111111111111111111111111111",
"111111111111111111    ==--==  --==oooo    1111111111111111111111",
"111111111111111111    ==--==  --==oooo    1111111111111111111111",
"1111111111111111oo==--------==----==--====  11111111111111111111",
"1111111111111111oo==--------==----==--====  11111111111111111111",
"1111111111111111  --oooo----====--------==--oo111111111111111111",
"1111111111111111  --oooo----====--------==--oo111111111111111111",
"11111111111111oo==oo==--oooo==oooo==------==oo111111111111111111",
"11111111111111oo==oo==--oooo==oooo==------==oo111111111111111111",
"11111111111111oooo======--==oo----oo==--==oo11111111111111111111",
"11111111111111oooo======--==oo----oo==--==oo11111111111111111111",
"11111111111111  ====------==------oo====oooo11111111111111111111",
"11111111111111  ====------==------oo====oooo11111111111111111111",
"1111111111111111  ==----==----==oo    oooo1111111111111111111111",
"1111111111111111  ==----==----==oo    oooo1111111111111111111111",
"111111111111111111    oo++==oo    ++%%&&oooooo111111111111111111",
"111111111111111111    oo++==oo    ++%%&&oooooo111111111111111111",
"11111111111111oooo&&**%%%%++++++%%**++++&&**oooo1111111111111111",
"11111111111111oooo&&**%%%%++++++%%**++++&&**oooo1111111111111111",
"111111111111##,,##********####********oo**##,,,,oo11111111111111",
"111111111111##,,##********####********oo**##,,,,oo11111111111111",
"1111111111##,,,,##****##**##,,##****oo,,oo##,,,,##..111111111111",
"1111111111##,,,,##****##**##,,##****oo,,oo##,,,,##..111111111111",
"11111111  ,,::,,&&**##,,##..,,,,##..,,,,oo##,,,,,,  111111111111",
"11111111  ,,::,,&&**##,,##..,,,,##..,,,,oo##,,,,,,  111111111111",
"111111@@  ,,,,oo****::,,oo##,,,,,,##&&,,&&####,,,,  111111111111",
"111111@@  ,,,,oo****::,,oo##,,,,,,##&&,,&&####,,,,  111111111111",
"111111oo&&  ,,,,,,oooooo&&&&&&,,&&&&&&oooo,,,,::  **oo1111111111",
"111111oo&&  ,,,,,,oooooo&&&&&&,,&&&&&&oooo,,,,::  **oo1111111111",
"11oooo&&oo&&  ::,,,,,,,,,,oooooooooo,,,,,,,,    ****&&oo11111111",
"11oooo&&oo&&  ::,,,,,,,,,,oooooooooo,,,,,,,,    ****&&oo11111111",
"11  &&&&&&oo&&oo    ::,,,,,,,,,,,,,,,,,,::    &&**&&####11111111",
"11  &&&&&&oo&&oo    ::,,,,,,,,,,,,,,,,,,::    &&**&&####11111111",
"1111    oooooooooooo##                  ##::##,,&&&&##  11111111",
"1111    oooooooooooo##                  ##::##,,&&&&##  11111111",
"11111111  OOOOOO++++oooo&&&&&&oo++++OO..,,,,##<<XX%%..  11111111",
"11111111  OOOOOO++++oooo&&&&&&oo++++OO..,,,,##<<XX%%..  11111111",
"1111111111  OO++%%%%++OOooooooOO++++++..,,  &&%%%%    1111111111",
"1111111111  OO++%%%%++OOooooooOO++++++..,,  &&%%%%    1111111111",
"1111111111  OOOOOO++++OO        OO++++OO  ##oooooo11111111111111",
"1111111111  OOOOOO++++OO        OO++++OO  ##oooooo11111111111111",
"1111111111  ::OO::::  >>    ;;  ::OO::::##$$$1111111111111111111",
"1111111111  ::OO::::  >>    ;;  ::OO::::##$$$1111111111111111111",
"111111111111            $$$$            $$$$11111111111111111111",
"111111111111            $$$$            $$$111111111111111111111",
"111111111111111$$$$$$$$$$$$$$$$$$$$$$$$$$11111111111111111111111",
"11111111111111111$$$$$$$$$$$$$$$$$$$$$$1111111111111111111111111",
"1111111111111111111111$$$$$$$$$$$$111111111111111111111111111111",
"1111111111111111111111111111111111111111111111111111111111111111"
};
