/* XPM */
static char *result[] = {
/* columns rows colors chars-per-pixel */
"64 64 18 1 ",
"  c black",
". c gray19",
"X c #385038",
"o c #286028",
"O c #504030",
"+ c #786030",
"@ c #585858",
"# c #A9000000",
"$ c #A07840",
"% c #409858",
"& c #58B840",
"* c #40B050",
"= c #68D040",
"- c #C89018",
"; c #80C830",
": c #989898",
"> c #D0D0D8",
", c None",
/* pixels */
",,,,,,,,,,,,,,,,,,,,,,,,,,,,,,,,,,,,,,,,,,,,,,,,,,,,,,,,,,,,,,,,",
",,,,,,,,,,,,,,,,,,,,,,,,,,,,,,,,,,,,,,,,,,,,,,,,,,,,,,,,,,,,,,,,",
",,,,,,,,,,,,,,,,,,,,,,,,,,,,,,,,,,,,,,,,,,,,,,,,,,,,,,,,,,,,,,,,",
",,,,,,,,,,,,,,,,,,,,,,,,,,,,,,,,,,,,,,,,,,,,,,,,,,,,,,,,,,,,,,,,",
",,,,,,,,,,,,,,,,,,,,,,,,,,,,,,,,,,,,,,,,,,,,,,,,,,,,,,,,,,,,,,,,",
",,,,,,,,,,,,,,,,,,,,,,,,,,,,,,,,,,,,,,,,,,,,,,,,,,,,,,,,,,,,,,,,",
",,,,,,,,,,,,,,,,,,,,,,,,,,,,,,,,,,,,,,,,,,,,,,,,,,,,,,,,,,,,,,,,",
",,,,,,,,,,,,,,,,,,,,,,,,,,,,,,,,,,,,,,,,,,,,,,,,,,,,,,,,,,,,,,,,",
",,,,,,,,,,,,,,,,,,,,,,,,,,,,,,,,,,,,,,,,,,,,,,,,,,,,,,,,,,,,,,,,",
",,,,,,,,,,,,,,,,,,,,,,,,,,,,,,,,,,,,,,,,,,,,,,,,,,,,,,,,,,,,,,,,",
",,,,,,,,,,,,,,,,,,,,,,,,,,,,,,,,,,,,,,,,,,,,,,,,,,,,,,,,,,,,,,,,",
",,,,,,,,,,,,,,,,,,,,,,,,,,,,,,,,,,,,,,,,,,,,,,,,,,,,,,,,,,,,,,,,",
",,,,,,,,,,,,,,,,,,,,,,,,,,oooo,,,,,,,,,,,,,,,,,,,,,,,,,,,,,,,,,,",
",,,,,,,,,,,,,,,,,,,,,,,,,,oooo,,,,,,,,,,,,,,,,,,,,,,,,,,,,,,,,,,",
",,,,,,,,,,,,,,,,,,,,,,oooo==oooo,,,,,,,,,,,,,,,,,,,,,,,,,,,,,,,,",
",,,,,,,,,,,,,,,,,,,,,,oooo==oooo,,,,,,,,,,,,,,,,,,,,,,,,,,,,,,,,",
",,,,,,,,,,,,,,,,,,  oo==**====**oo,,,,,,,,,,,,,,,,,,,,,,,,,,,,,,",
",,,,,,,,,,,,,,,,,,  oo==**====**oo,,,,,,,,,,,,,,,,,,,,,,,,,,,,,,",
",,,,,,,,,,,,,,,,,,  **======****  ,,,,,,,,,,,,,,,,,,,,,,,,,,,,,,",
",,,,,,,,,,,,,,,,,,  **======****  ,,,,,,,,,,,,,,,,,,,,,,,,,,,,,,",
",,,,,,,,,,,,,,,,,,oo****====**  ,,,,,,....,,,,,,,,,,,,,,,,,,,,,,",
",,,,,,,,,,,,,,,,,,oo****====**  ,,,,,,....,,,,,,,,,,,,,,,,,,,,,,",
",,,,,,,,,,,,,,,,  **==******oooo,,,,..>>..,,    ,,,,,,,,,,,,,,,,",
",,,,,,,,,,,,,,,,  **==******oooo,,,,..>>..,,    ,,,,,,,,,,,,,,,,",
",,,,,,,,,,,,,,oo**====******==**  oo::>>..  >>  ,,,,,,,,,,,,,,,,",
",,,,,,,,,,,,,,oo**====******==**  oo::>>..  >>  ,,,,,,,,,,,,,,,,",
",,,,,,,,,,,,,,  ======**==******  &&oooo  ::>>  ,,,,,,,,,,,,,,,,",
",,,,,,,,,,,,,,  ======**==******  &&oooo  ::>>  ,,,,,,,,,,,,,,,,",
",,,,,,,,,,,,,,XX  ==**==**oo**  &&&&&&&&@@%%>>  ,,,,,,,,,,,,,,,,",
",,,,,,,,,,,,,,XX  ==**==**oo**  &&&&&&&&@@%%>>  ,,,,,,,,,,,,,,,,",
",,,,,,,,,,,,,,oo************  ++++%%&&&&&&@@%%..,,,,,,,,,,,,,,,,",
",,,,,,,,,,,,,,oo************  ++++%%&&&&&&@@%%..,,,,,,,,,,,,,,,,",
",,,,,,,,,,,,XX  **********  ++..&&&&&&&&&&&&    XX,,,,,,,,,,,,,,",
",,,,,,,,,,,,XX  **********  ++..&&&&&&&&&&&&    XX,,,,,,,,,,,,,,",
",,,,,,,,,,,,XX;;  **oo    $$..&&%%%%&&&&&&  >>  oo,,,,,,,,,,,,,,",
",,,,,,,,,,,,XX;;  **oo    $$..&&%%%%&&&&&&  >>  oo,,,,,,,,,,,,,,",
",,,,,,,,,,,,  oo++    ++....$$%%%%%%&&&&%%@@>>  oo,,,,,,,,,,,,,,",
",,,,,,,,,,,,  oo++    ++....$$%%%%%%&&&&%%@@>>  oo,,,,,,,,,,,,,,",
",,,,,,,,,,,,..@@++++%%&&%%%%oooooooo%%%%%%@@::  @@..,,,,,,,,,,,,",
",,,,,,,,,,,,..@@++++%%&&%%%%oooooooo%%%%%%@@::  @@..,,,,,,,,,,,,",
",,,,,,,,,,,,  >>@@%%&&%%%%oo>>>>>>>>oo%%%%%%**@@>>  ,,,,,,,,,,,,",
",,,,,,,,,,,,  >>@@%%&&%%%%oo>>>>>>>>oo%%%%%%**@@>>  ,,,,,,,,,,,,",
",,,,,,,,,,,,  >>>>@@@@%%oo>>>>>>>>>>>>oo%%@@@@>>>>  ,,,,,,,,,,,,",
",,,,,,,,,,,,  >>>>@@@@%%oo>>>>>>>>>>>>oo%%@@@@>>>>  ,,,,,,,,,,,,",
",,,,,,,,,,,,oo  >>>>>>oooo::>>>>>>>>::oooo>>>>>>  oo,,,,,,,,,,,,",
",,,,,,,,,,,,oo  >>>>>>oooo::>>>>>>>>::oooo>>>>>>  oo,,,,,,,,,,,,",
",,,,,,,,,,..oo%%  >>>>>>>>>>::>>>>::>>>>>>>>>>  %%oo,,,,,,,,,,,,",
",,,,,,,,,,..oo%%  >>>>>>>>>>::>>>>::>>>>>>>>>>  %%oo,,,,,,,,,,,,",
",,,,,,,,,,..$$oo%%      ::>>>>>>>>>>>>::      %%oo$$..,,,,,,,,,,",
",,,,,,,,,,..$$oo%%      ::>>>>>>>>>>>>::      %%oo$$..,,,,,,,,,,",
",,,,,,,,,,..$$$$oo%%%%%%                %%%%%%oo$$$$..,,,,,,,,,,",
",,,,,,,,,,..$$$$oo%%%%%%                %%%%%%oo$$$$..,,,,,,,,,,",
",,,,,,,,,,,,..++++oooo%%%%oo%%&&&&&&%%oooooooo++$$OO..,,,,,,,,,,",
",,,,,,,,,,,,..++++oooo%%%%oo%%&&&&&&%%oooooooo++$$OO..,,,,,,,,,,",
",,,,,,,,,,,,  OO::::oooooo  %%%%oooooo    oo++OOOO..,,,,,,,,,,,,",
",,,,,,,,,,,,  OO::::oooooo  %%%%oooooo    oo++OOOO..,,,,,,,,,,,,",
",,,,,,,,,,,,,,      OO  ####oooo%%%%oo--OOOO::::++  ,,,,,,,,,,,,",
",,,,,,,,,,,,,,      OO  ####oooo%%%%oo--OOOO::::++  ,,,,,,,,,,,,",
",,,,,,,,,,,,,,################oo%%  ##            ,,,,,,,,,,,,,,",
",,,,,,,,,,,,,,,###############oo%%  ##            ,,,,,,,,,,,,,,",
",,,,,,,,,,,,,,,,################oo  ##########,,,,,,,,,,,,,,,,,,",
",,,,,,,,,,,,,,,,,,##############oo  ########,,,,,,,,,,,,,,,,,,,,",
",,,,,,,,,,,,,,,,,,,,######################,,,,,,,,,,,,,,,,,,,,,,",
",,,,,,,,,,,,,,,,,,,,,,,,,############,,,,,,,,,,,,,,,,,,,,,,,,,,,"
};
