/* XPM */
static char *result[] = {
/* columns rows colors chars-per-pixel */
"64 64 18 1 ",
"  c black",
". c gray19",
"X c #780001",
"o c #286028",
"O c #504030",
"+ c #786030",
"@ c #484848",
"# c #585858",
"$ c #A9000000",
"% c #A07840",
"& c #409858",
"* c #58B840",
"= c #40B050",
"- c #68D040",
"; c #989898",
": c #D0D0D8",
"> c #E8E8F8",
", c None",
/* pixels */
",,,,,,,,,,,,,,,,,,,,,,,,,,,,,,,,,,,,,,,,,,,,,,,,,,,,,,,,,,,,,,,,",
",,,,,,,,,,,,,,,,,,,,,,,,,,,,,,,,,,,,,,,,,,,,,,,,,,,,,,,,,,,,,,,,",
",,,,,,,,,,,,,,,,,,,,,,,,,,,,,,,,,,,,,,,,,,,,,,,,,,,,,,,,,,,,,,,,",
",,,,,,,,,,,,,,,,,,,,,,,,,,,,,,,,,,,,,,,,,,,,,,,,,,,,,,,,,,,,,,,,",
",,,,,,,,,,,,,,,,,,,,,,,,,,,,,,,,,,,,,,,,,,,,,,,,,,,,,,,,,,,,,,,,",
",,,,,,,,,,,,,,,,,,,,,,,,,,,,,,,,,,,,,,,,,,,,,,,,,,,,,,,,,,,,,,,,",
",,,,,,,,,,,,,,,,,,,,,,,,,,,,,,,,,,,,,,,,,,,,,,,,,,,,,,,,,,,,,,,,",
",,,,,,,,,,,,,,,,,,,,,,,,,,,,,,,,,,,,,,,,,,,,,,,,,,,,,,,,,,,,,,,,",
",,,,,,,,,,,,,,,,,,,,,,,,,,,,,,,,,,,,,,,,,,,,,,,,,,,,,,,,,,,,,,,,",
",,,,,,,,,,,,,,,,,,,,,,,,,,,,,,,,,,,,,,,,,,,,,,,,,,,,,,,,,,,,,,,,",
",,,,,,,,,,,,,,,,,,,,,,,,,,,,,,,,,,,,,,,,,,,,,,,,,,,,,,,,,,,,,,,,",
",,,,,,,,,,,,,,,,,,,,,,,,,,,,,,,,,,,,,,,,,,,,,,,,,,,,,,,,,,,,,,,,",
",,,,,,,,,,,,,,,,,,,,,,,,,,,,,,,,,,,,,,,,,,,,,,,,,,,,,,,,,,,,,,,,",
",,,,,,,,,,,,,,,,,,,,,,,,,,,,,,,,,,,,,,,,,,,,,,,,,,,,,,,,,,,,,,,,",
",,,,,,,,,,,,,,,,,,,,,,,,,,,,,,,,,,,,,,,,,,,,,,,,,,,,,,,,,,,,,,,,",
",,,,,,,,,,,,,,,,,,,,,,,,,,,,,,,,,,,,,,,,,,,,,,,,,,,,,,,,,,,,,,,,",
",,,,,,,,,,,,,,,,,,,,,,,,,,,,,,,,,,,,,,,,,,,,,,,,,,,,,,,,,,,,,,,,",
",,,,,,,,,,,,,,,,,,,,,,,,,,,,,,,,,,,,,,,,,,,,,,,,,,,,,,,,,,,,,,,,",
",,,,,,,,,,,,,,,,,,,,,,,,,,,,,,,,##,,,,,,,,,,,,,,,,,,,,,,,,,,,,,,",
",,,,,,,,,,,,,,,,,,,,,,,,,,,,,,,,##,,,,,,,,,,,,,,,,,,,,,,,,,,,,,,",
",,,,,,,,,,,,,,,,,,,,,,,,,,,,,,##::##,,,,,,,,##,,,,,,,,,,,,,,,,,,",
",,,,,,,,,,,,,,,,,,,,,,,,,,,,,,##::##,,,,,,,,##,,,,,,,,,,,,,,,,,,",
",,,,,,,,,,,,,,,,,,,,,,,,,,,,##    ####oooo  ;;##,,,,,,,,,,,,,,,,",
",,,,,,,,,,,,,,,,,,,,,,,,,,,,##    ####oooo  ;;##,,,,,,,,,,,,,,,,",
",,,,,,,,,,,,,,,,,,,,,,##,,    ----==oo--==oooo    ,,,,,,,,,,,,,,",
",,,,,,,,,,,,,,,,,,,,,,##,,    ----==oo--==oooo    ,,,,,,,,,,,,,,",
",,,,,,,,,,,,,,,,,,,,##::oo==----========--==--====  ,,,,,,,,,,,,",
",,,,,,,,,,,,,,,,,,,,##::oo==----========--==--====  ,,,,,,,,,,,,",
",,,,,,,,,,,,,,,,,,,,oo&&  --oooo--oooooo==--------==oo,,,,,,,,,,",
",,,,,,,,,,,,,,,,,,,,oo&&  --oooo--oooooo==--------==oo,,,,,,,,,,",
",,,,,,,,,,,,,,,,,,oo&&oo==oo----oo--==--oo==----==--oo,,,,,,,,,,",
",,,,,,,,,,,,,,,,,,oo&&oo==oo----oo--==--oo==----==--oo,,,,,,,,,,",
",,,,,,,,,,,,,,,,oooooo----==--====------==oo======oo,,,,,,,,,,,,",
",,,,,,,,,,,,,,,,oooooo----==--====------==oo======oo,,,,,,,,,,,,",
",,,,,,,,,,,,,,oo::::oo==--------==----====oo==oooooo,,,,,,,,,,,,",
",,,,,,,,,,,,,,oo::::oo==--------==----====oo==oooooo,,,,,,,,,,,,",
",,,,,,,,,,,,..##::::##oo  ==--==========oo    oo::##,,,,,,,,,,,,",
",,,,,,,,,,,,..##::::##oo  ==--==========oo    oo::##,,,,,,,,,,,,",
",,,,,,,,,,,,  ::::::##&&&&    oo++==oo    ++++##::::  ,,,,,,,,,,",
",,,,,,,,,,,,  ::::::##&&&&    oo++==oo    ++++##::::  ,,,,,,,,,,",
",,,,,,,,,,,,  ::::;;##&&&&&&%%%%++    ++++++####;;::  oo@@,,,,,,",
",,,,,,,,,,,,  ::::;;##&&&&&&%%%%++    ++++++####;;::  oo@@,,,,,,",
",,,,,,,,,,oo**  ;;::::######&&++++++++######::::::  &&oooo,,,,,,",
",,,,,,,,,,oo**  ;;::::######&&++++++++######::::::  &&oooo,,,,,,",
",,,,,,,,oo&&****    ::::::::;;;;;;;;;;::::::::;;  &&&&oo&&oooo,,",
",,,,,,,,oo&&****    ::::::::;;;;;;;;;;::::::::;;  &&&&oo&&oooo,,",
",,,,,,,,####&&**&&    ;;::::::::::::::::::;;    oo&&oo&&&&&&  ,,",
",,,,,,,,####&&**&&    ;;::::::::::::::::::;;    oo&&oo&&&&&&  ,,",
",,,,,,,,  ##&&&&::##;;##                  ##oooooooooooo    ,,,,",
",,,,,,,,  ##&&&&::##;;##                  ##oooooooooooo    ,,,,",
",,,,,,,,  ..%%XX>>##::::..OOOOOOoo&&&&&&oooo++++++++    ,,,,,,,,",
",,,,,,,,  ..%%XX>>##::::..OOOOOOoo&&&&&&oooo++++++++    ,,,,,,,,",
",,,,,,,,,,    %%%%&&  ::..OO++++OOoooooo++%%%%++OO  ,,,,,,,,,,,,",
",,,,,,,,,,    %%%%&&  ::..OO++++OOoooooo++%%%%++OO  ,,,,,,,,,,,,",
",,,,,,,,,,,,,,oooooo##    OO++++++OO    OO++OOOOOO  ,,,,,,,,,,,,",
",,,,,,,,,,,,,,oooooo##    OO++++++OO    OO++OOOOOO  ,,,,,,,,,,,,",
",,,,,,,,,,,,,,,,,,$$$$$$$$##;;;;OO;;    ;;;;OO;;  $$,,,,,,,,,,,,",
",,,,,,,,,,,,,,,,,,$$$$$$$$##;;;;OO;;    ;;;;OO;;  $$,,,,,,,,,,,,",
",,,,,,,,,,,,,,,,,,$$$$$$$$$$        $$$$        $$$$,,,,,,,,,,,,",
",,,,,,,,,,,,,,,,,,,$$$$$$$$$        $$$$        $$$,,,,,,,,,,,,,",
",,,,,,,,,,,,,,,,,,,,$$$$$$$$$$$$$$$$$$$$$$$$$$$$$$,,,,,,,,,,,,,,",
",,,,,,,,,,,,,,,,,,,,,,$$$$$$$$$$$$$$$$$$$$$$$$$$,,,,,,,,,,,,,,,,",
",,,,,,,,,,,,,,,,,,,,,,,,$$$$$$$$$$$$$$$$$$$$$$,,,,,,,,,,,,,,,,,,",
",,,,,,,,,,,,,,,,,,,,,,,,,,,,,$$$$$$$$$$$$,,,,,,,,,,,,,,,,,,,,,,,"
};
