/* XPM */
static char *result[] = {
/* columns rows colors chars-per-pixel */
"64 64 19 1 ",
"  c black",
". c gray19",
"X c #780001",
"o c #385038",
"O c #286028",
"+ c #504030",
"@ c #786030",
"# c #484848",
"$ c #585858",
"% c #A9000000",
"& c #A07840",
"* c #409858",
"= c #58B840",
"- c #40B050",
"; c #68D040",
": c #989898",
"> c #D0D0D8",
", c #E8E8F8",
"< c None",
/* pixels */
"<<<<<<<<<<<<<<<<<<<<<<<<<<<<<<<<<<<<<<<<<<<<<<<<<<<<<<<<<<<<<<<<",
"<<<<<<<<<<<<<<<<<<<<<<<<<<<<<<<<<<<<<<<<<<<<<<<<<<<<<<<<<<<<<<<<",
"<<<<<<<<<<<<<<<<<<<<<<<<<<<<<<<<<<<<<<<<<<<<<<<<<<<<<<<<<<<<<<<<",
"<<<<<<<<<<<<<<<<<<<<<<<<<<<<<<<<<<<<<<<<<<<<<<<<<<<<<<<<<<<<<<<<",
"<<<<<<<<<<<<<<<<<<<<<<<<<<<<<<<<<<<<<<<<<<<<<<<<<<<<<<<<<<<<<<<<",
"<<<<<<<<<<<<<<<<<<<<<<<<<<<<<<<<<<<<<<<<<<<<<<<<<<<<<<<<<<<<<<<<",
"<<<<<<<<<<<<<<<<<<<<<<<<<<<<<<<<<<<<<<<<<<<<<<<<<<<<<<<<<<<<<<<<",
"<<<<<<<<<<<<<<<<<<<<<<<<<<<<<<<<<<<<<<<<<<<<<<<<<<<<<<<<<<<<<<<<",
"<<<<<<<<<<<<<<<<<<<<<<<<<<<<<<<<<<<<<<<<<<<<<<<<<<<<<<<<<<<<<<<<",
"<<<<<<<<<<<<<<<<<<<<<<<<<<<<<<<<<<<<<<<<<<<<<<<<<<<<<<<<<<<<<<<<",
"<<<<<<<<<<<<<<<<<<<<<<<<<<<<<<<<<<<<<<<<<<<<<<<<<<<<<<<<<<<<<<<<",
"<<<<<<<<<<<<<<<<<<<<<<<<<<<<<<<<<<<<<<<<<<<<<<<<<<<<<<<<<<<<<<<<",
"<<<<<<<<<<<<<<<<<<<<<<<<<<<<<<<<<<<<<<<<<<<<<<<<<<<<<<<<<<<<<<<<",
"<<<<<<<<<<<<<<<<<<<<<<<<<<<<<<<<<<<<<<<<<<<<<<<<<<<<<<<<<<<<<<<<",
"<<<<<<<<<<<<<<<<<<<<<<      <<OOOO<<<<<<<<<<<<<<<<<<<<<<<<<<<<<<",
"<<<<<<<<<<<<<<<<<<<<<<      <<OOOO<<<<<<<<<<<<<<<<<<<<<<<<<<<<<<",
"<<<<<<<<<<<<<<<<<<    --;;;;  ;;--OOOO    <<<<<<<<<<<<<<<<<<<<<<",
"<<<<<<<<<<<<<<<<<<    --;;;;  ;;--OOOO    <<<<<<<<<<<<<<<<<<<<<<",
"<<<<<<<<<<<<<<<<OO--;;;;;;;;----;;;;;;;;--  <<<<<<<<<<<<<<<<<<<<",
"<<<<<<<<<<<<<<<<OO--;;;;;;;;----;;;;;;;;--  <<<<<<<<<<<<<<<<<<<<",
"<<<<<<<<<<<<<<<<  ;;OOOO;;------;;--;;;;;;--OO<<<<<<<<<<<<<<<<<<",
"<<<<<<<<<<<<<<<<  ;;OOOO;;------;;--;;;;;;--OO<<<<<<<<<<<<<<<<<<",
"<<<<<<<<<<<<<<OO--OO;;;;OOOO--OOOO----;;----OO<<<<<<<<<<<<<<<<<<",
"<<<<<<<<<<<<<<OO--OO;;;;OOOO--OOOO----;;----OO<<<<<<<<<<<<<<<<<<",
"<<<<<<<<<<<<<<OOOO----;;;;;;OO;;--OO------OO<<<<<<<<<<<<<<<<<<<<",
"<<<<<<<<<<<<<<OOOO----;;;;;;OO;;--OO------OO<<<<<<<<<<<<<<<<<<<<",
"<<<<<<<<<<<<<<  --;;;;--;;;;------OO----OOOO<<<<<<<<<<<<<<<<<<<<",
"<<<<<<<<<<<<<<  --;;;;--;;;;------OO----OOOO<<<<<<<<<<<<<<<<<<<<",
"<<<<<<<<<<<<<<<<  --;;----------OO    OOOO<<<<<<<<<<<<<<<<<<<<<<",
"<<<<<<<<<<<<<<<<  --;;----------OO    OOOO<<<<<<<<<<<<<<<<<<<<<<",
"<<<<<<<<<<<<<<<<<<    OO@@--OO    @@&&**OOOOOO<<<<<<<<<<<<<<<<<<",
"<<<<<<<<<<<<<<<<<<    OO@@--OO    @@&&**OOOOOO<<<<<<<<<<<<<<<<<<",
"<<<<<<<<<<<<<<OOOO**==&&&&@@@@@@&&==@@@@**==OOOO<<<<<<<<<<<<<<<<",
"<<<<<<<<<<<<<<OOOO**==&&&&@@@@@@&&==@@@@**==OOOO<<<<<<<<<<<<<<<<",
"<<<<<<<<<<<<$$>>$$========$$$$========OO==$$>>>>OO<<<<<<<<<<<<<<",
"<<<<<<<<<<<<$$>>$$========$$$$========OO==$$>>>>OO<<<<<<<<<<<<<<",
"<<<<<<<<<<$$>>>>$$====$$==$$>>$$====OO>>OO$$>>>>$$..<<<<<<<<<<<<",
"<<<<<<<<<<$$>>>>$$====$$==$$>>$$====OO>>OO$$>>>>$$..<<<<<<<<<<<<",
"<<<<<<<<  >>::>>**==$$>>$$..>>>>$$..>>>>OO$$>>>>>>  <<<<<<<<<<<<",
"<<<<<<<<  >>::>>**==$$>>$$..>>>>$$..>>>>OO$$>>>>>>  <<<<<<<<<<<<",
"<<<<<<##  >>>>OO====::>>OO$$>>>>>>$$**>>**$$$$>>>>  <<<<<<<<<<<<",
"<<<<<<##  >>>>OO====::>>OO$$>>>>>>$$**>>**$$$$>>>>  <<<<<<<<<<<<",
"<<<<<<OO**  >>>>>>OOOOOO******>>******OOOO>>>>::  ==OO<<<<<<<<<<",
"<<<<<<OO**  >>>>>>OOOOOO******>>******OOOO>>>>::  ==OO<<<<<<<<<<",
"<<OOOO**OO**  ::>>>>>>>>>>OOOOOOOOOO>>>>>>>>    ====**OO<<<<<<<<",
"<<OOOO**OO**  ::>>>>>>>>>>OOOOOOOOOO>>>>>>>>    ====**OO<<<<<<<<",
"<<  ******OO**OO    ::>>>>>>>>>>>>>>>>>>::    **==**$$$$<<<<<<<<",
"<<  ******OO**OO    ::>>>>>>>>>>>>>>>>>>::    **==**$$$$<<<<<<<<",
"<<<<    OOOOOOOOOOOO$$                  $$::$$>>****$$  <<<<<<<<",
"<<<<    OOOOOOOOOOOO$$                  $$::$$>>****$$  <<<<<<<<",
"<<<<<<<<    @@@@@@@@OOOO******OO++++++..>>>>$$,,XX&&..  <<<<<<<<",
"<<<<<<<<    @@@@@@@@OOOO******OO++++++..>>>>$$,,XX&&..  <<<<<<<<",
"<<<<<<<<<<<<  ++@@&&&&@@OOOOOO++@@@@++..>>  **&&&&    <<<<<<<<<<",
"<<<<<<<<<<<<  ++@@&&&&@@OOOOOO++@@@@++..>>  **&&&&    <<<<<<<<<<",
"<<<<<<<<<<<<  ++++++@@++    ++@@@@@@++    $$OOOOOO<<<<<<<<<<<<<<",
"<<<<<<<<<<<%  ++++++@@++    ++@@@@@@++    $$OOOOOO<<<<<<<<<<<<<<",
"<<<<<<<<<<<%    ::++::::    ::++::::$$oo%%%%%<<<<<<<<<<<<<<<<<<<",
"<<<<<<<<<<<%    ::++::::    ::++::::$$oo%%%%%<<<<<<<<<<<<<<<<<<<",
"<<<<<<<<<<<%%%          %%%%          %%%%%%%<<<<<<<<<<<<<<<<<<<",
"<<<<<<<<<<<<%%          %%%%          %%%%%%<<<<<<<<<<<<<<<<<<<<",
"<<<<<<<<<<<<<%%%%%%%%%%%%%%%%%%%%%%%%%%%%%%<<<<<<<<<<<<<<<<<<<<<",
"<<<<<<<<<<<<<<<%%%%%%%%%%%%%%%%%%%%%%%%%%<<<<<<<<<<<<<<<<<<<<<<<",
"<<<<<<<<<<<<<<<<<%%%%%%%%%%%%%%%%%%%%%%<<<<<<<<<<<<<<<<<<<<<<<<<",
"<<<<<<<<<<<<<<<<<<<<<<%%%%%%%%%%%%<<<<<<<<<<<<<<<<<<<<<<<<<<<<<<"
};
