/* XPM */
static char *result[] = {
/* columns rows colors chars-per-pixel */
"32 32 14 1 ",
"  c #68D0A0",
". c #68C8A0",
"X c #B8D0A0",
"o c #98C888",
"O c #A0D890",
"+ c #88B070",
"@ c #C8D8A8",
"# c #80A068",
"$ c #90B878",
"% c #53A680",
"& c #4E9C78",
"* c #53A080",
"= c #499270",
"- c #498C70",
/* pixels */
"                                ",
"                                ",
"            ....    ........    ",
"            ....    ........    ",
"                  ....          ",
"                  ....          ",
"        ....                    ",
"        ....                    ",
"        ....      XX            ",
"        ....      XX            ",
"                XXoo....        ",
"                XXoo....        ",
"              ooOO++  XXoo      ",
"              ooOO++  XXoo      ",
"      XXXX@@  oooo##XXOOoo      ",
"      XXXX@@  oooo##XXOOoo      ",
"      ooOOoo++oooo##OOOO++......",
"      ooOOoo++oooo##OOOO++......",
"        ++oooo++##$$oo##        ",
"        ++oooo++##$$oo##        ",
"      %%&&++oo##++++$$&&%%      ",
"      %%&&++oo##++++$$&&%%      ",
"....****&&==++++##++----&&%%    ",
"....****&&==++++##++----&&%%    ",
"    %%%%&&&&======&&&&&&%%%%    ",
"    %%%%&&&&======&&&&&&%%%%    ",
"      %%%%%%&&&&&&&&%%%%%%      ",
"      %%%%%%&&&&&&&&%%%%%%      ",
"        ..******%%%%%%  ........",
"        ..******%%%%%%  ........",
"        ........        ........",
"        ........        ........"
};
